<svg xmlns="http://www.w3.org/2000/svg" width="1198.78" height="316.59" viewBox="0 0 1198.78 316.59"><g opacity="0.15"><path d="M270.39,92.61c-5.33-8.77-12.22-15.18-19.17-21.56C240.06,60.8,226.77,55.31,212,52.91a148.47,148.47,0,0,0-21-1.58c-3.18-.06-4.67,1-5.37,4.15-4.74,21.1-9.6,42.16-14.42,63.24q-2.08,9.06-4.16,18.13c-.3,1.33-.92,2.66-.11,4.39a210.18,210.18,0,0,1,32.52-3.53c11.25-.2,22.44.1,33.45,2.73,11.36,2.73,17.39,10,17.91,21.73.6,13.59-3.66,26-8.9,38-1.77.85-2.54-.34-3.45-1a62.59,62.59,0,0,0-35-11.16c-13.83-.34-27.68-.06-41.52.06-6,0-5.89-.41-7.85,5.82-5.53,17.58-11,35.18-16.89,52.64-5.68,16.86-13.55,32.62-26.45,45.28-19.21,18.87-42.65,26.49-69.15,24.49-13.73-1-24.69-7.76-32.15-19.62C3.57,287.28.82,276.94,0,266c-.22-3,.71-4.46,3.87-4.61,13.89-.63,25.52-6.66,37.15-13.93,14.84-9.27,24.76-21.9,31.32-37.67,8.76-21.09,16.45-42.59,24.43-64,9.94-26.62,20-53.22,28.89-80.2.54-1.66,1.39-3.23,1.2-5.28-2.83-.59-5.2.76-7.53,1.67-19.7,7.68-34.31,21.12-44.2,39.7A45.86,45.86,0,0,0,70,121.27c-.31,6.4-1.11,12.77-1,19.2.07,4-.08,4.21-3.93,4-15.73-.77-28.21-7.6-34.34-22.25C18.94,94.14,22.61,63.44,48,41.2c14.77-12.94,32.36-20.54,50.7-26.75,18.16-6.14,37-8.67,55.89-11C175.1,1,195.69-.49,216.37.15c15,.47,30,1.84,44.55,6,10.33,3,20,7.25,27.48,15.32C298.85,32.71,301.64,45.53,296,59.8,290.86,73,281.72,83.28,270.39,92.61Z" fill="#fff"/><path d="M362,265.14c-2.28,2.2-4.42,4.23-6.52,6.29A236,236,0,0,1,331.12,292a62.85,62.85,0,0,1-34.53,12.44c-6.78.42-13.47,1.32-20.36.54-15-1.7-25.14-11.17-28.17-27.6-2.75-14.93-.94-29.52,3.07-44,4.62-16.64,11.15-32.56,18.16-48.3,9.44-21.21,20.1-41.87,28.76-63.44,2.32-5.75,4.67-11.53,5.48-17.74.31-2.37,1.4-3.45,3.67-4,16.18-3.86,32.38-7.54,48.93-9.4a34.53,34.53,0,0,1,10.2.12c8.29,1.55,12.58,6.5,12.93,14.9.28,6.57-1.57,12.68-4.35,18.53-5.75,12.11-11.43,24.26-17.43,36.25-12.46,24.91-25.09,49.73-37.69,74.56a44.61,44.61,0,0,0-4.8,14.78c-1,8.22,3.87,13,12.16,12,6.17-.75,11.46-3.59,16.42-7,16.33-11.32,28.44-26.35,37.85-43.68,5.76-10.62,9-22.25,13.28-33.46,8.7-22.81,17.51-45.55,27.43-67.87a13.22,13.22,0,0,1,7.33-7.29,114.92,114.92,0,0,1,31.65-9.1A49.79,49.79,0,0,1,481.91,95c4.38,1.32,6.58,4,7.26,8.51,1.11,7.32-.07,14.45-1.94,21.38-3.65,13.57-8.85,26.58-14,39.68-10.18,25.89-23,50.47-35,75.47-3.94,8.2-5.12,17.25-5.57,26.28-.14,2.76.8,5.52,1.7,8.2A72.77,72.77,0,0,0,440.83,288c2.11,3.61,2,4-1.52,6.09a60.54,60.54,0,0,1-8.59,4.32c-16.75,6.59-34.25,9.61-52.15,10.6a30.51,30.51,0,0,1-8.35-.89c-8.06-1.78-11.3-5.6-11-14A142.72,142.72,0,0,1,362,270.36C362.28,268.84,362.89,267.31,362,265.14Z" fill="#fff"/><path d="M1078.65,137.71c4.21-4,7.32-7.08,10.56-10,13.9-12.55,28.73-23.78,46-31.35a57.66,57.66,0,0,1,17.32-4.78c15.23-1.57,26.18,5.86,35,17.18a50.88,50.88,0,0,1,11.18,30.41,46.84,46.84,0,0,1-2.17,15.73c-11.24,35.86-30.93,67.88-45.93,102a67.83,67.83,0,0,0-5,14.76,12.22,12.22,0,0,0,2.63,10.65c2.79,3.39,5.65,6.72,8.72,10.36-1.39,1.93-3.53,2.55-5.4,3.49-17.85,9-37,11.47-56.67,10.89a53.63,53.63,0,0,1-14.78-2.3c-11-3.48-16.6-11.71-15.3-24.7,1.14-11.48,5.19-22.2,10-32.62,8-17.4,18.6-33.2,30.3-48.3,6.25-8.08,12.7-16,17.82-24.92a75.13,75.13,0,0,0,7.94-19.4,33.44,33.44,0,0,0,.69-8.35c0-4.87-4.3-9.27-10.36-7.1A100.77,100.77,0,0,0,1090.05,157c-16,13.45-27.25,30.37-35.33,49.46a527.6,527.6,0,0,0-27.52,85.1c-.58,2.5-1.16,4.5-3.85,5.49-11.67,4.26-23.27,8.74-35.72,10.27a30,30,0,0,1-19.1-3.74c-7.38-4.23-10.21-10.37-8.52-18.73,3.13-15.56,8.24-30.55,13.46-45.49,12.6-36.08,25.46-72.08,38-108.17,3.4-9.8,7.47-19.48,8.2-30,.12-1.81,1.31-2.18,2.78-2.54,13.26-3.21,26.59-6,40.22-7,1.61-.09,3.21-.11,4.82,0,8.28.26,10.68,2.08,12.49,10.07,2.35,10.34,1.72,20.7-.35,31C1079.42,133.84,1079.19,135,1078.65,137.71Z" fill="#fff"/><path d="M903.21,142.91c14.12-14.94,37.13-17.33,52.63-8.22,9.57,5.62,12.8,15.07,13.55,25.44,1.27,17.56-2.33,34.42-9.45,50.31-11.49,25.63-26.69,48.9-47,68.56-14,13.6-30,24.21-49.44,28.29-15.89,3.33-31.87,3.42-47.6-1.09-21.05-6.05-33.62-20.06-38.16-41.4-2.88-13.55-2.06-27.12.19-40.6,4-24.14,11.56-47,25.64-67.35C817.37,137,834.18,120.53,855.05,108c14.44-8.67,29.38-15.53,46-18.24,10.77-1.76,21.59-1.68,32.12,1.75,14.06,4.59,23.93,13.92,30.67,26.84-1.66,1.42-3.05.71-4.35.52-30.69-4.38-57.55,3-79.68,25.5a91.5,91.5,0,0,0-15.55,21.74c-8,15.11-14.4,30.87-17.18,47.84-1.52,9.36-1.75,18.77,1.78,27.86,2.73,7,7.33,12.39,14.26,15.53a16.53,16.53,0,0,0,12.87.47c12.43-4.49,21.45-13,28.52-23.86,7.86-12.05,11.57-25.5,12.67-39.67.9-11.78,1.46-23.64-1.28-35.31C914.21,151.73,911.34,145.23,903.21,142.91Z" fill="#fff"/><path d="M621.8,175.75c.71-11.61.6-22.19-2-32.59a35.47,35.47,0,0,0-4.55-11.06c-4.53-6.87-10.84-9.82-19-8.52-3.75.6-7.57.67-11.22,1.93-7.9,2.76-12.31,8.67-12.93,17-.93,12.44,3.52,22.33,13.64,29.64a68.69,68.69,0,0,0,6,4.07c7.06,4.06,14.21,8,21.29,12,17.95,10.2,28.69,25.43,27.28,46.3-.93,13.86-7.13,25.79-16.07,36.23-18,21-41.26,32.66-68.22,37.2a108.25,108.25,0,0,1-47.66-2.33,70.53,70.53,0,0,1-18.7-8.07c-9.62-6.06-16.16-14.37-18.18-25.72-3.49-19.52,2.28-35.91,16.72-49.15,2.31.19,2.28,1.95,2.73,3.12,8.11,21,24,32.3,45.57,36.6a44.19,44.19,0,0,0,27-2.71,27.38,27.38,0,0,0,9.88-6.7,13.81,13.81,0,0,0-.69-19.5c-3.5-3.41-7.86-5.51-12.16-7.67-14.16-7.09-28.33-14.15-42.08-22-5.83-3.34-11-7.42-14.76-13-6.2-9.2-7.42-19.31-4.79-29.91,5.18-20.92,17.06-37.4,34.32-50,26-19,55.39-26.79,87.32-24.1,17.52,1.48,32.36,8.93,42.61,23.89,8.29,12.09,8.16,23.7-.27,35.72a66.08,66.08,0,0,1-16.35,15.82C639,167.57,631.21,172.34,621.8,175.75Z" fill="#fff"/><path d="M742.85,291.92a54.7,54.7,0,0,1-32.76,17c-9.29,1.36-18.66,2-28.14.52-15.44-2.37-24.2-11.33-25.91-26.95-1.32-12,.65-23.55,3.49-35.05,5.79-23.4,15.06-45.55,24.64-67.58,8.37-19.25,17.7-38.08,25.47-57.6,1.86-4.65,3.76-9.29,4.25-14.33.16-1.56.63-2.66,2.25-3.1,18.15-5,36.18-10.61,55.35-9.79a25.15,25.15,0,0,1,9.82,2.54c4.42,2.1,6.67,5.48,6.32,10.56a39.07,39.07,0,0,1-1.72,8.21c-4.63,15.77-11,30.87-17.28,46-10.37,25.2-21.23,50.24-28.5,76.58a94.81,94.81,0,0,0-2.22,42.82A20.37,20.37,0,0,0,742.85,291.92Z" fill="#fff"/><path d="M809.37,34.8c-1.33,15.61-8.52,27.77-22.28,35.47A57.76,57.76,0,0,1,748.2,77c-11.1-1.92-18-9.86-18.47-21.22-.8-17.5,7.82-29.89,22.18-38.46A51.34,51.34,0,0,1,788.42,11c8.2,1.52,15.13,5.22,18.93,13.22A23.29,23.29,0,0,1,809.37,34.8Z" fill="#fff"/></g></svg>