<svg xmlns="http://www.w3.org/2000/svg" xmlns:xlink="http://www.w3.org/1999/xlink" width="72.05" height="44.85" viewBox="0 0 72.05 44.85"><defs><clipPath id="a"><rect width="72.05" height="44.85" fill="none"/></clipPath></defs><g clip-path="url(#a)"><path d="M70.06,18.11a5.7,5.7,0,0,0-3-1.34,9.19,9.19,0,0,0-4.33-3.91c-1.17-.34-12.22.06-7.89,5.06,3.27,3.77,1.61,7,.6,8.33l-7.87,9.08a5.78,5.78,0,0,0,.59,8.12,5.65,5.65,0,0,0,3.76,1.4,5.72,5.72,0,0,0,4.36-2l5-5.82.21-.25,9.17-10.57a5.72,5.72,0,0,0,1.34-3q0-.36.06-.72v-.08A5.75,5.75,0,0,0,70.06,18.11Z" fill="#e8e8e8"/><path d="M72.05,22.39c0-.25,0-.49-.06-.73a5.68,5.68,0,0,0-1.34-3l-6.57-7.58L56.23,2a5.76,5.76,0,0,0-8.71,7.55L58.7,22.42h0l2.07,2.39,0,0,.57.66.06.09c1.39,1.8,4.16,6.46,0,11.2l9.17-10.57a5.63,5.63,0,0,0,1.22-2.44,5.91,5.91,0,0,0,.18-1.32Z" fill="#fff"/><path d="M47,18.11a5.67,5.67,0,0,0-3.05-1.34,9.19,9.19,0,0,0-4.33-3.91c-1.17-.34-12.22.06-7.88,5.06,3.26,3.77,1.61,7,.59,8.33l-7.86,9.08a5.77,5.77,0,0,0,.59,8.12,5.64,5.64,0,0,0,3.76,1.4,5.75,5.75,0,0,0,4.36-2l5-5.82.2-.25,9.17-10.57a5.64,5.64,0,0,0,1.34-3,4.37,4.37,0,0,0,.06-.72v-.08A5.72,5.72,0,0,0,47,18.11Z" fill="#50100c"/><path d="M49,22.39a4.4,4.4,0,0,0-.06-.73,5.61,5.61,0,0,0-1.34-3L41,11.05,33.17,2a5.79,5.79,0,0,0-4.36-2,5.71,5.71,0,0,0-3.76,1.4,5.78,5.78,0,0,0-.59,8.13L35.63,22.42h0l2.08,2.39,0,0,.57.66a.7.7,0,0,1,.06.09c1.4,1.8,4.16,6.46.05,11.2l9.16-10.57a5.63,5.63,0,0,0,1.22-2.44A5.91,5.91,0,0,0,49,22.47Z" fill="#951910"/><path d="M23.93,18.11a5.67,5.67,0,0,0-3.05-1.34,9.19,9.19,0,0,0-4.33-3.91c-1.17-.34-12.22.06-7.89,5.06,3.27,3.77,1.61,7,.6,8.33L1.4,35.33A5.77,5.77,0,0,0,2,43.45a5.65,5.65,0,0,0,3.76,1.4,5.75,5.75,0,0,0,4.36-2l5-5.82.21-.25,9.16-10.57a5.64,5.64,0,0,0,1.34-3,4.37,4.37,0,0,0,.06-.72v-.08A5.72,5.72,0,0,0,23.93,18.11Z" fill="#e8e8e8"/><path d="M25.92,22.39c0-.25,0-.49-.06-.73a5.68,5.68,0,0,0-1.34-3L18,11.05,10.1,2A5.76,5.76,0,1,0,1.4,9.53L12.57,22.42h0l2.07,2.39,0,0,.57.66.06.09c1.39,1.8,4.16,6.46,0,11.2l9.17-10.57a5.63,5.63,0,0,0,1.22-2.44,5.91,5.91,0,0,0,.18-1.32Z" fill="#fff"/></g></svg>