<svg xmlns="http://www.w3.org/2000/svg" width="72.05" height="44.85" viewBox="0 0 72.05 44.85"><path d="M2,26.75A5.75,5.75,0,0,0,5,28.09,9.24,9.24,0,0,0,9.37,32c1.17.34,12.22-.06,7.89-5.06-3.27-3.77-1.61-7-.6-8.34l7.87-9.07a5.8,5.8,0,0,0-.59-8.13A5.76,5.76,0,0,0,15.82,2l-5,5.81-.21.25L1.4,18.63a5.68,5.68,0,0,0-1.34,3c0,.24,0,.48-.06.73v.08A5.78,5.78,0,0,0,2,26.75Z" fill="#e8e8e8"/><path d="M0,22.47c0,.24,0,.48.06.73a5.72,5.72,0,0,0,1.34,3L8,33.8l7.86,9.07a5.77,5.77,0,0,0,8.12.58,5.78,5.78,0,0,0,.58-8.12L13.35,22.43h0L11.28,20l0,0-.57-.65a.47.47,0,0,0-.06-.09c-1.39-1.8-4.16-6.46,0-11.21L1.4,18.63A5.59,5.59,0,0,0,.18,21.06,6,6,0,0,0,0,22.39Z" fill="#fff"/><path d="M25.05,26.75a5.81,5.81,0,0,0,3.06,1.34A9.27,9.27,0,0,0,32.43,32c1.18.34,12.23-.06,7.89-5.06-3.27-3.77-1.61-7-.59-8.34l7.86-9.07A5.78,5.78,0,0,0,47,1.4,5.65,5.65,0,0,0,43.24,0a5.76,5.76,0,0,0-4.36,2l-5,5.81-.21.25L24.47,18.63a5.61,5.61,0,0,0-1.34,3,4.4,4.4,0,0,0-.06.73v.08A5.77,5.77,0,0,0,25.05,26.75Z" fill="#e8e8e8"/><path d="M23.07,22.47a4.59,4.59,0,0,0,.06.73,5.64,5.64,0,0,0,1.34,3L31,33.8l7.85,9.07a5.72,5.72,0,0,0,4.36,2A5.65,5.65,0,0,0,47,43.45a5.77,5.77,0,0,0,.59-8.12L36.42,22.43h0L34.34,20l0,0-.57-.65-.06-.09c-1.4-1.8-4.16-6.46,0-11.21L24.47,18.63a5.39,5.39,0,0,0-1.22,2.43,6,6,0,0,0-.18,1.33Z" fill="#fff"/><path d="M48.12,26.75a5.75,5.75,0,0,0,3.05,1.34A9.24,9.24,0,0,0,55.5,32c1.17.34,12.22-.06,7.89-5.06-3.27-3.77-1.61-7-.6-8.34l7.86-9.07a5.78,5.78,0,0,0-.59-8.13A5.65,5.65,0,0,0,66.3,0a5.76,5.76,0,0,0-4.36,2l-5,5.81-.21.25L47.53,18.63a5.61,5.61,0,0,0-1.34,3,4.49,4.49,0,0,0-.06.73v.08A5.75,5.75,0,0,0,48.12,26.75Z" fill="#e8e8e8"/><path d="M46.13,22.47c0,.24,0,.48.06.73a5.64,5.64,0,0,0,1.34,3l6.56,7.57,7.85,9.07a5.72,5.72,0,0,0,4.36,2,5.64,5.64,0,0,0,3.76-1.4,5.77,5.77,0,0,0,.59-8.12L59.48,22.43h0L57.4,20l0,0-.57-.65-.06-.09c-1.39-1.8-4.16-6.46,0-11.21L47.53,18.63a5.59,5.59,0,0,0-1.22,2.43,6,6,0,0,0-.18,1.33Z" fill="#fff"/></svg>