<svg xmlns="http://www.w3.org/2000/svg" width="136" height="136" viewBox="0 0 136 136">
  <g id="bigC" transform="translate(0.059)">
    <rect id="Your_image_here" data-name="Your image here" width="136" height="136" transform="translate(-0.059)" fill="#fff"/>
    <g id="Big_C_Logo" transform="translate(27.311 8.944)">
      <rect id="Rectangle_391" data-name="Rectangle 391" width="81.261" height="118.112" fill="#b2d235"/>
      <path id="Path_2367" data-name="Path 2367" d="M56.348,53.065C40.571,58.782,28.865,73.141,26.213,90.655c-3.064,21.95,11.3,39.1,33.611,38.87,4.893-.046,15.548-1.1,20.441-3.2l4.847-28.947c-5.076,4.253-10.655,7.317-17.148,7.362a13.017,13.017,0,0,1-13.4-15.045c1.326-8.414,9.146-15.228,17.56-15.319,6.265-.046,11.432,3.613,15.411,7.774l4.07-29.4s-12.027-2.652-19.8-2.286c-6.082.229-15.456,2.607-15.456,2.607" transform="translate(-14.003 -26.366)" fill="#fff" fill-rule="evenodd"/>
      <path id="Path_2368" data-name="Path 2368" d="M71.769,50.4c7.317-.32,18.566,2.058,19.664,2.286-.046.229-3.978,28.626-4.024,29.084-5.03-5.213-10.06-7.728-15.319-7.682-8.414.091-16.325,7-17.651,15.411a13.108,13.108,0,0,0,13.49,15.136c5.67-.046,11.112-2.378,16.966-7.225-.091.594-4.756,28.489-4.8,28.581-4.984,2.149-15.685,3.155-20.349,3.2-10.563.091-19.8-3.75-26.02-10.838a32.923,32.923,0,0,1-7.911-21.813,45.812,45.812,0,0,1,.412-6.082,47.044,47.044,0,0,1,30.044-37.5c.229,0,9.512-2.332,15.5-2.561m0-.229c-6.036.274-15.411,2.607-15.5,2.607h0C40.261,58.582,28.692,73.032,26.085,90.455c-1.555,10.838,1.1,20.853,7.5,28.123,6.265,7.134,15.548,10.975,26.2,10.884,4.71-.046,15.5-1.052,20.487-3.247l.046-.046,4.893-29.312-.229.229c-5.945,4.939-11.341,7.317-17.057,7.362A13.335,13.335,0,0,1,57.684,100.1,13.033,13.033,0,0,1,54.62,89.586c1.28-8.323,9.1-15.136,17.423-15.228,5.3-.046,10.289,2.515,15.319,7.774l.137.183,4.116-29.77-.137-.046c0-.046-12.027-2.652-19.709-2.332" transform="translate(-13.921 -26.212)" fill="#fff" fill-rule="evenodd"/>
      <path id="Path_2369" data-name="Path 2369" d="M51.648,49.137A47.273,47.273,0,0,0,21.513,86.727c-3.064,21.95,11.3,39.1,33.611,38.87,4.893-.046,15.594-1.1,20.441-3.247L80.412,93.4c-5.076,4.253-10.609,7.317-17.148,7.362a13.017,13.017,0,0,1-13.4-15.045c1.326-8.414,9.192-15.228,17.56-15.319,6.265-.091,11.432,3.613,15.411,7.774l4.07-29.4s-11.3-3.064-18.658-2.881c-6.539.274-16.6,3.247-16.6,3.247" transform="translate(-11.452 -23.901)" fill="#ed1d24" fill-rule="evenodd"/>
      <path id="Path_2370" data-name="Path 2370" d="M53.383,62.746,51.6,75.367l5.853-.046L59.191,62.7Z" transform="translate(-28.004 -33.753)" fill-rule="evenodd"/>
      <path id="Path_2371" data-name="Path 2371" d="M62.136,50.689c.457-1.646-.732-2.789-2.561-2.789a3.57,3.57,0,0,0-3.7,2.835c-.229,2.1,1.189,3.018,2.835,3.018a3.332,3.332,0,0,0,3.43-3.064" transform="translate(-30.309 -25.799)" fill-rule="evenodd"/>
      <path id="Path_2372" data-name="Path 2372" d="M17.607,51.29,15,69.032l8.368-.091c3.018,0,6.494-1.235,6.951-4.71A3.941,3.941,0,0,0,27.941,59.8a4.285,4.285,0,0,0,2.744-3.521C31.1,52.067,27.85,51.152,24.6,51.2ZM22.82,58.24h-.457l.183-2.561H23c.915,0,2.1-.229,1.875,1.143-.183,1.143-1.143,1.418-2.058,1.418M21.265,64.78l.412-2.789h.686c.915,0,2.561,0,2.332,1.372-.229,1.418-1.6,1.418-2.789,1.418h-.64" transform="translate(-8.141 -27.549)" fill-rule="evenodd"/>
      <path id="Path_2373" data-name="Path 2373" d="M83.4,74.124l1.738-11.89-5.808.046v1.875h-.229A3.008,3.008,0,0,0,76.042,62.1c-3.475.046-5.762,3.338-6.219,6.585-.457,3.018.96,6.539,4.253,6.494a4.78,4.78,0,0,0,3.933-2.149L77.78,74.17a3.03,3.03,0,0,1-2.972,2.835,5.927,5.927,0,0,1-3.978-1.372L69,79.841l.457.229a11.8,11.8,0,0,0,4.893.915c4.207-.046,8.368-1.966,9.054-6.859m-6.311-3.887a1.3,1.3,0,0,1-1.418-1.6c.229-.96.915-1.875,1.829-1.875a1.385,1.385,0,0,1,1.189,1.875,1.62,1.62,0,0,1-1.6,1.6" transform="translate(-37.447 -33.411)" fill-rule="evenodd"/>
      <path id="Path_2374" data-name="Path 2374" d="M50.338,58.346,48.6,70.967l5.579-.046L55.917,58.3Z" transform="translate(-26.376 -31.385)" fill="#fd0" fill-rule="evenodd"/>
      <path id="Path_2375" data-name="Path 2375" d="M58.907,46.289c.229-1.646-.96-2.789-2.835-2.789A3.326,3.326,0,0,0,52.6,46.335c-.457,2.1.96,3.018,2.607,3.018,1.875,0,3.521-.96,3.7-3.064" transform="translate(-28.498 -23.429)" fill="#fd0" fill-rule="evenodd"/>
      <path id="Path_2376" data-name="Path 2376" d="M14.324,46.944,11.9,64.687l8.368-.091c3.018,0,6.265-1.235,6.951-4.71a3.77,3.77,0,0,0-2.607-4.39,4.315,4.315,0,0,0,2.744-3.75c.686-3.978-2.607-4.893-5.853-4.847Zm5.4,6.951h-.686l.457-2.561h.457c.915,0,2.1-.274,1.875,1.143-.229,1.143-1.189,1.418-2.1,1.418m-1.555,6.539.457-2.789h.686c.96,0,2.561-.046,2.332,1.372s-1.829,1.418-2.789,1.418h-.686" transform="translate(-6.458 -25.235)" fill="#fd0" fill-rule="evenodd"/>
      <path id="Path_2377" data-name="Path 2377" d="M73.723,65.837c-1.189,0-1.646-.686-1.418-1.6a1.974,1.974,0,0,1,1.829-1.875,1.385,1.385,0,0,1,1.189,1.875c-.229.869-.686,1.555-1.6,1.6m6.311,3.887,1.509-11.89-5.579.046v1.875h-.229A3.236,3.236,0,0,0,72.488,57.7c-3.247,0-5.579,3.292-5.991,6.585-.412,3.018,1.006,6.539,4.253,6.494a4.135,4.135,0,0,0,3.7-2.149h.229l-.229,1.189a3.258,3.258,0,0,1-3.247,2.835,6.461,6.461,0,0,1-3.978-1.372L65.4,75.486l.732.183a15.244,15.244,0,0,0,4.893.869c4.161,0,8.323-1.921,9.009-6.814" transform="translate(-35.493 -31.043)" fill="#fd0" fill-rule="evenodd"/>
      <path id="Path_2378" data-name="Path 2378" d="M15.383,38.338l.274-1.738H14.286l-.32,1.783a.3.3,0,0,1-.274.274c-.137,0-.183-.137-.183-.274l.32-1.783H12.456l-.274,1.738c-.137.777.686,1.1,1.418,1.1.777,0,1.646-.366,1.783-1.1" transform="translate(-6.603 -19.863)" fill="#fff" fill-rule="evenodd"/>
      <path id="Path_2379" data-name="Path 2379" d="M16.347,34.5H13.191L13.1,35l3.155-.046Z" transform="translate(-7.109 -18.723)" fill="#fff" fill-rule="evenodd"/>
      <path id="Path_2380" data-name="Path 2380" d="M16.065,32.49h.96l.091-.5-.412.091a.47.47,0,0,0-.457-.594.866.866,0,0,0-.732.32.547.547,0,0,0-.594-.32.788.788,0,0,0-.64,1.006h.5c0-.549.64-.594.457,0h.366c0-.549.64-.594.457,0" transform="translate(-7.742 -17.08)" fill="#fff" fill-rule="evenodd"/>
      <path id="Path_2381" data-name="Path 2381" d="M21.7,36.4c-.732,0-1.646.366-1.783,1.1l-.32,1.738h1.372l.32-1.783a.3.3,0,0,1,.274-.274.2.2,0,0,1,.183.274l-.32,1.783h1.418l.274-1.738c.137-.777-.686-1.1-1.418-1.1" transform="translate(-10.637 -19.755)" fill="#fff" fill-rule="evenodd"/>
      <path id="Path_2382" data-name="Path 2382" d="M29.59,37.163l-.137.686a.264.264,0,0,1-.274.274A.2.2,0,0,1,29,37.849l.137-.686c.046-.229.32-.274.32-.457l.137-.686a1.794,1.794,0,0,1-.823.183,2.136,2.136,0,0,1-.777-.137l-.091.412c.091-.091.229-.091.274,0,.091.274-.366.366-.457.686l-.137.686c-.137.686.5,1.052,1.418,1.006.915,0,1.692-.366,1.783-1.052l.091-.594c.091-.366-.229-.366-.229-.366V36.8a.441.441,0,0,0,.366-.412L31.1,35.7H29.773l-.137.915c-.046.229-.183.274-.183.274a.253.253,0,0,1,.137.274" transform="translate(-14.957 -19.375)" fill="#fff" fill-rule="evenodd"/>
      <path id="Path_2383" data-name="Path 2383" d="M28.846,34.174l-.046.457,3.155-.046.091-.686H30.812l-.046.274Z" transform="translate(-15.63 -18.398)" fill="#fff" fill-rule="evenodd"/>
    </g>
  </g>
</svg>
