<svg xmlns="http://www.w3.org/2000/svg" xmlns:xlink="http://www.w3.org/1999/xlink" width="902.6" height="902.6" viewBox="0 0 902.6 902.6"><defs><clipPath id="a"><circle cx="451.3" cy="451.3" r="451.3" fill="none"/></clipPath><clipPath id="b"><circle cx="1410.09" cy="460.5" r="451.3" fill="none"/></clipPath></defs><circle cx="451.3" cy="451.3" r="451.3" fill="#ff8f1c"/><g clip-path="url(#a)"><path d="M1158.06,936.59V324L-750.28,936.59Z" fill="#cb271b"/><path d="M764.12,387.54C752.53,376.87-33.33.81-33.33.81L-73.8,62.25Z" fill="#ff7320"/></g><path d="M619.88,552c-13.8-13.81-46.94-34.55-63.28-42.35-19-9.08-25.91-8.92-39.34.75C506.09,518.5,498.86,526,486,523.2s-38.21-22-62.81-46.48-43.75-50-46.47-62.8,4.78-20.09,12.76-31.27c9.65-13.42,9.95-20.37.75-39.34-7.79-16.43-28.44-49.48-42.34-63.28S331,269.24,323.39,272a139.54,139.54,0,0,0-22.46,11.93A67.6,67.6,0,0,0,274,312.34c-5.36,11.54-11.55,33.05,20,89.19a497.45,497.45,0,0,0,87.52,116.7h0l.1.09.09.1h0a499.53,499.53,0,0,0,116.7,87.49c56.14,31.55,77.64,25.35,89.19,20s19.25-13,28.45-26.94A139.77,139.77,0,0,0,628,576.53C630.68,568.92,633.77,565.83,619.88,552Z" fill="none" stroke="#fff" stroke-width="22.71"/><g clip-path="url(#b)"><path d="M2116.84,945.79V333.16L208.5,945.79Z" fill="#cb271b"/><path d="M885,396.74C896.58,386.07,1682.44,10,1682.44,10l40.46,61.44Z" fill="#ff7320"/></g></svg>