<svg xmlns="http://www.w3.org/2000/svg" xmlns:xlink="http://www.w3.org/1999/xlink" width="902.6" height="902.6" viewBox="0 0 902.6 902.6"><defs><clipPath id="a"><circle cx="-504.07" cy="520.67" r="451.3" fill="none"/></clipPath><clipPath id="b"><circle cx="451.3" cy="451.3" r="451.3" fill="none"/></clipPath></defs><g clip-path="url(#a)"><path d="M202.69,1006V393.32L-1705.65,1006Z" fill="#cb271b"/></g><circle cx="451.3" cy="451.3" r="451.3" fill="#ff8f1c"/><g clip-path="url(#b)"><path d="M1158.06,936.59V324L-750.28,936.59Z" fill="#cb271b"/><path d="M792.5,710.68C780.91,700-4.95,324-4.95,324L-45.41,385.4Z" fill="#ff7320"/></g><path d="M673.1,289.51h-438a25.11,25.11,0,0,0-25,25V589.87a25.11,25.11,0,0,0,25,25h438a25.11,25.11,0,0,0,25-25V314.54A25.11,25.11,0,0,0,673.1,289.51Zm-9.4,18.78L468.48,454.71a26.16,26.16,0,0,1-28.8,0L244.46,308.29ZM559.42,464.4,665.8,595.81c.11.13.24.23.35.35H242c.11-.12.24-.22.35-.35L348.75,464.4a9.39,9.39,0,0,0-14.6-11.81L228.81,582.69V320L428.43,469.73a44.81,44.81,0,0,0,51.31,0L679.35,320V582.69L574,452.56a9.39,9.39,0,0,0-14.6,11.82Z" fill="#fff"/></svg>