<svg xmlns="http://www.w3.org/2000/svg" width="418.89" height="110.61" viewBox="0 0 418.89 110.61"><g opacity="0.19"><path d="M94.49,32.34a35.09,35.09,0,0,0-6.7-7.53,25.71,25.71,0,0,0-13.72-6.34,51.2,51.2,0,0,0-7.32-.55,1.6,1.6,0,0,0-1.86,1.29c0,.05,0,.1,0,.16-1.65,7.37-3.35,14.73-5,22.1-.48,2.11-1,4.22-1.45,6.33a2.1,2.1,0,0,0,0,1.54A73.51,73.51,0,0,1,69.71,48.1a45.82,45.82,0,0,1,11.68,1c4,.95,6.08,3.49,6.26,7.59.21,4.75-1.27,9.09-3.11,13.26-.61.3-.88-.11-1.2-.34a22,22,0,0,0-12.24-3.9c-4.83-.12-9.67,0-14.5,0-2.1,0-2.06-.14-2.75,2C51.92,73.87,50,80,48,86.12c-2,5.89-4.73,11.4-9.24,15.82-6.71,6.6-14.9,9.26-24.16,8.56a14,14,0,0,1-11.24-6.86A22.75,22.75,0,0,1,0,92.92c-.07-1,.25-1.56,1.35-1.61,4.85-.22,8.92-2.33,13-4.87a27.25,27.25,0,0,0,11-13.16C28.35,65.91,31,58.4,33.83,50.93c3.47-9.3,7-18.6,10.09-28a4.31,4.31,0,0,0,.42-1.84,4.53,4.53,0,0,0-2.63.58A29,29,0,0,0,26.26,35.52a15.83,15.83,0,0,0-1.81,6.84c-.11,2.24-.39,4.46-.35,6.71,0,1.38,0,1.47-1.37,1.4-5.5-.26-9.86-2.65-12-7.77-4.11-9.82-2.83-20.55,6-28.32C21.93,9.86,28.07,7.2,34.48,5S47.41,2,54,1.2A140.45,140.45,0,0,1,75.6,0a62.94,62.94,0,0,1,15.57,2.1,20.1,20.1,0,0,1,9.6,5.35c3.65,3.92,4.63,8.4,2.67,13.39C101.64,25.49,98.45,29.08,94.49,32.34Z" fill="#e4e4e4"/><path d="M126.49,92.63c-.8.77-1.55,1.48-2.28,2.2a83.16,83.16,0,0,1-8.5,7.18,22,22,0,0,1-12.07,4.35,40.21,40.21,0,0,1-7.11.18c-5.23-.59-8.79-3.9-9.84-9.64a33.7,33.7,0,0,1,1.07-15.36A120.74,120.74,0,0,1,94.1,64.66c3.3-7.41,7-14.63,10.06-22.17a25.75,25.75,0,0,0,1.91-6.2,1.46,1.46,0,0,1,1.28-1.4,142.07,142.07,0,0,1,17.1-3.28,11.87,11.87,0,0,1,3.57,0,5,5,0,0,1,4.52,5.21A13.72,13.72,0,0,1,131,43.33c-2,4.23-4,8.48-6.1,12.67-4.35,8.7-8.76,17.37-13.16,26.05a15.46,15.46,0,0,0-1.68,5.17c-.35,2.87,1.35,4.53,4.25,4.17a13,13,0,0,0,5.74-2.45,43.14,43.14,0,0,0,13.22-15.27c2-3.71,3.15-7.77,4.64-11.69,3-8,6.12-15.92,9.58-23.71a4.6,4.6,0,0,1,2.57-2.55,39.84,39.84,0,0,1,11.06-3.18,17.37,17.37,0,0,1,7.27.62,3.31,3.31,0,0,1,2.53,3,18.16,18.16,0,0,1-.67,7.47,130.23,130.23,0,0,1-4.9,13.86c-3.56,9-8,17.64-12.21,26.37A23.64,23.64,0,0,0,151.21,93a8,8,0,0,0,.59,2.86,26,26,0,0,0,2.25,4.74c.74,1.26.71,1.39-.53,2.13a22.16,22.16,0,0,1-3,1.51,58.32,58.32,0,0,1-18.23,3.7,10.57,10.57,0,0,1-2.91-.32c-2.82-.62-3.95-2-3.84-4.87a49.54,49.54,0,0,1,.95-8.33A2.65,2.65,0,0,0,126.49,92.63Z" fill="#e4e4e4"/><path d="M376.91,48.1c1.48-1.4,2.56-2.47,3.7-3.5a60.28,60.28,0,0,1,16.08-11A20.24,20.24,0,0,1,402.74,32c5.32-.55,9.14,2.05,12.24,6a17.82,17.82,0,0,1,3.9,10.63,16.3,16.3,0,0,1-.76,5.5c-3.92,12.53-10.81,23.72-16,35.65a23.32,23.32,0,0,0-1.74,5.15,4.25,4.25,0,0,0,.92,3.72c1,1.19,2,2.35,3.05,3.63a4.42,4.42,0,0,1-1.89,1.21c-6.24,3.15-12.91,4-19.8,3.8a18.53,18.53,0,0,1-5.17-.8c-3.83-1.21-5.8-4.09-5.34-8.63a36,36,0,0,1,3.49-11.4,87.93,87.93,0,0,1,10.58-16.88,76.1,76.1,0,0,0,6.23-8.7,26,26,0,0,0,2.77-6.78,11.46,11.46,0,0,0,.25-2.92,2.59,2.59,0,0,0-2.49-2.69,2.56,2.56,0,0,0-1.13.21,35.06,35.06,0,0,0-10.91,6.16,44.8,44.8,0,0,0-12.35,17.28,183.54,183.54,0,0,0-9.61,29.74c-.2.87-.41,1.57-1.35,1.91-4.08,1.49-8.13,3.06-12.48,3.59a10.48,10.48,0,0,1-6.67-1.3,5.6,5.6,0,0,1-3-6.55,120.78,120.78,0,0,1,4.7-15.9c4.4-12.61,8.9-25.18,13.28-37.8,1.19-3.42,2.61-6.8,2.87-10.49,0-.63.46-.76,1-.88A86.88,86.88,0,0,1,371.34,32,15.69,15.69,0,0,1,373,32c2.89.09,3.73.73,4.36,3.52a25.73,25.73,0,0,1-.12,10.84C377.19,46.75,377.1,47.16,376.91,48.1Z" fill="#e4e4e4"/><path d="M315.61,49.92A15.35,15.35,0,0,1,334,47c3.35,2,4.48,5.27,4.74,8.89a36.31,36.31,0,0,1-3.3,17.58,76.44,76.44,0,0,1-16.41,24c-4.9,4.75-10.47,8.46-17.27,9.89a34.21,34.21,0,0,1-16.64-.39c-7.35-2.11-11.74-7-13.33-14.46a37.83,37.83,0,0,1,.07-14.19c1.4-8.44,4-16.42,9-23.53a58,58,0,0,1,18-17.08,45.41,45.41,0,0,1,16.07-6.37,23.47,23.47,0,0,1,11.23.61,18.13,18.13,0,0,1,10.71,9.38c-.57.5-1.06.24-1.52.18-10.72-1.53-20.11,1.07-27.84,8.91A32.07,32.07,0,0,0,302,58a54.27,54.27,0,0,0-6,16.72,18.24,18.24,0,0,0,.62,9.74,9.39,9.39,0,0,0,5,5.42,5.81,5.81,0,0,0,4.5.17,20,20,0,0,0,10-8.34,29,29,0,0,0,4.42-13.86,40.23,40.23,0,0,0-.44-12.34C319.46,53,318.45,50.73,315.61,49.92Z" fill="#e4e4e4"/><path d="M217.28,61.39A37.25,37.25,0,0,0,216.59,50,12.08,12.08,0,0,0,215,46.14a6.24,6.24,0,0,0-6.65-3,22.81,22.81,0,0,0-3.92.68,6.4,6.4,0,0,0-4.52,5.95,11,11,0,0,0,4.77,10.36,24.6,24.6,0,0,0,2.08,1.42c2.47,1.42,5,2.79,7.44,4.2,6.27,3.56,10,8.88,9.53,16.17a21.6,21.6,0,0,1-5.61,12.66c-6.29,7.35-14.42,11.42-23.84,13a38,38,0,0,1-16.66-.81,24.73,24.73,0,0,1-6.53-2.82,13.09,13.09,0,0,1-6.35-9,17.77,17.77,0,0,1,5.84-17.17c.81.06.8.68.95,1.09,2.84,7.35,8.37,11.28,15.93,12.79a15.48,15.48,0,0,0,9.45-1,9.69,9.69,0,0,0,3.45-2.34,4.83,4.83,0,0,0-.24-6.82,16.23,16.23,0,0,0-4.25-2.68c-5-2.48-9.9-4.94-14.7-7.7A15,15,0,0,1,176,66.66a12.55,12.55,0,0,1-1.67-10.45,30.09,30.09,0,0,1,12-17.46,44.11,44.11,0,0,1,30.51-8.43c6.12.52,11.31,3.12,14.89,8.35,2.9,4.23,2.85,8.28-.1,12.48a23.08,23.08,0,0,1-5.71,5.53A36.06,36.06,0,0,1,217.28,61.39Z" fill="#e4e4e4"/><path d="M259.58,102a19.07,19.07,0,0,1-11.45,5.94,32.73,32.73,0,0,1-9.83.19c-5.4-.83-8.46-4-9.06-9.42a34.93,34.93,0,0,1,1.22-12.25c2-8.18,5.27-15.92,8.61-23.61C242,56.1,245.26,49.52,248,42.7a18.66,18.66,0,0,0,1.49-5,1.05,1.05,0,0,1,.79-1.09c6.34-1.74,12.64-3.7,19.34-3.42a8.89,8.89,0,0,1,3.43.89,3.51,3.51,0,0,1,2.21,3.69,14,14,0,0,1-.6,2.87,163.77,163.77,0,0,1-6,16.09c-3.62,8.81-7.42,17.56-10,26.76a33,33,0,0,0-.77,15A7,7,0,0,0,259.58,102Z" fill="#e4e4e4"/><path d="M282.82,12.14A14.85,14.85,0,0,1,275,24.54a20.19,20.19,0,0,1-13.59,2.33A7.44,7.44,0,0,1,255,19.46C254.71,13.34,257.73,9,262.75,6A18,18,0,0,1,275.5,3.81c2.87.53,5.29,1.83,6.62,4.62A8.18,8.18,0,0,1,282.82,12.14Z" fill="#e4e4e4"/></g></svg>