<svg xmlns="http://www.w3.org/2000/svg" width="293" height="124.5" viewBox="0 0 293 124.5"><path d="M93.58,76.36a21.15,21.15,0,0,0-4.12-4.63A15.77,15.77,0,0,0,81,67.83a32.23,32.23,0,0,0-4.5-.34,1,1,0,0,0-1.14.79s0,.07,0,.1q-1.53,6.8-3.1,13.58c-.3,1.3-.59,2.6-.89,3.9a1.27,1.27,0,0,0,0,.94,46.85,46.85,0,0,1,7-.76,28.38,28.38,0,0,1,7.18.59,4.6,4.6,0,0,1,3.85,4.67,18.14,18.14,0,0,1-1.91,8.15c-.38.18-.54-.07-.74-.21a13.48,13.48,0,0,0-7.52-2.4c-3-.07-5.95,0-8.92,0-1.29,0-1.26-.09-1.69,1.25-1.18,3.77-2.36,7.55-3.62,11.3a24,24,0,0,1-5.68,9.73,18.36,18.36,0,0,1-14.86,5.26,8.62,8.62,0,0,1-6.9-4.21,13.91,13.91,0,0,1-2-6.6c0-.64.15-1,.83-1,3-.13,5.48-1.43,8-3a16.78,16.78,0,0,0,6.73-8.09c1.88-4.53,3.53-9.15,5.25-13.74,2.13-5.72,4.28-11.43,6.2-17.23a2.74,2.74,0,0,0,.25-1.13,2.75,2.75,0,0,0-1.61.36,17.83,17.83,0,0,0-9.5,8.53,9.76,9.76,0,0,0-1.11,4.2c-.07,1.38-.24,2.74-.22,4.13,0,.85,0,.9-.84.86-3.38-.16-6.06-1.63-7.38-4.78-2.52-6-1.74-12.63,3.72-17.41A31.08,31.08,0,0,1,56.7,59.57a59.14,59.14,0,0,1,12-2.36A86.55,86.55,0,0,1,82,56.49a38.65,38.65,0,0,1,9.57,1.3,12.25,12.25,0,0,1,5.9,3.29,7.35,7.35,0,0,1,1.64,8.23A17.46,17.46,0,0,1,93.58,76.36Z" fill="#fff"/><path d="M113.25,113.42l-1.4,1.35a50.93,50.93,0,0,1-5.22,4.41,13.6,13.6,0,0,1-7.42,2.68,25.62,25.62,0,0,1-4.38.11c-3.21-.36-5.4-2.4-6-5.93a20.81,20.81,0,0,1,.66-9.44,74.8,74.8,0,0,1,3.9-10.37c2-4.56,4.32-9,6.18-13.63a16,16,0,0,0,1.18-3.81.89.89,0,0,1,.79-.86,87.38,87.38,0,0,1,10.51-2,7.65,7.65,0,0,1,2.19,0,3.09,3.09,0,0,1,2.78,3.2,8.34,8.34,0,0,1-.94,4c-1.23,2.6-2.45,5.21-3.74,7.79q-4,8-8.1,16a9.59,9.59,0,0,0-1,3.17,2.12,2.12,0,0,0,1.53,2.58,2.19,2.19,0,0,0,1.08,0,8,8,0,0,0,3.53-1.51,26.52,26.52,0,0,0,8.13-9.38,57.8,57.8,0,0,0,2.85-7.19c1.87-4.9,3.76-9.78,5.89-14.58a2.82,2.82,0,0,1,1.58-1.56,24.44,24.44,0,0,1,6.8-2,10.73,10.73,0,0,1,4.47.38,2.06,2.06,0,0,1,1.56,1.83,11.14,11.14,0,0,1-.42,4.59,80.67,80.67,0,0,1-3,8.53c-2.18,5.56-4.93,10.84-7.51,16.21a14.61,14.61,0,0,0-1.2,5.65,5.08,5.08,0,0,0,.37,1.76,15.81,15.81,0,0,0,1.38,2.91c.45.77.44.85-.33,1.31a13.73,13.73,0,0,1-1.84.92,35.53,35.53,0,0,1-11.2,2.28,6.73,6.73,0,0,1-1.79-.19c-1.73-.38-2.43-1.2-2.36-3a30.3,30.3,0,0,1,.58-5.12A1.66,1.66,0,0,0,113.25,113.42Z" fill="#fff"/><path d="M267.2,86.05c.9-.86,1.57-1.52,2.27-2.15a36.9,36.9,0,0,1,9.88-6.74,12.71,12.71,0,0,1,3.72-1c3.27-.33,5.62,1.26,7.52,3.69a10.92,10.92,0,0,1,2.4,6.54,10.23,10.23,0,0,1-.46,3.38c-2.42,7.7-6.65,14.58-9.87,21.91a14.07,14.07,0,0,0-1.06,3.17,2.61,2.61,0,0,0,.56,2.29l1.87,2.22a2.71,2.71,0,0,1-1.16.75,24.79,24.79,0,0,1-12.17,2.34,11.41,11.41,0,0,1-3.18-.5c-2.35-.74-3.56-2.51-3.28-5.3a22.1,22.1,0,0,1,2.14-7,53.93,53.93,0,0,1,6.51-10.37,47.92,47.92,0,0,0,3.83-5.36,16,16,0,0,0,1.7-4.16,7.77,7.77,0,0,0,.15-1.8A1.6,1.6,0,0,0,277,86.26a1.68,1.68,0,0,0-.7.13,21.85,21.85,0,0,0-6.71,3.79,27.51,27.51,0,0,0-7.58,10.62,112,112,0,0,0-5.91,18.28c-.13.54-.25,1-.83,1.18a34.79,34.79,0,0,1-7.68,2.21,6.52,6.52,0,0,1-4.1-.8,3.46,3.46,0,0,1-1.83-4,74,74,0,0,1,2.9-9.77c2.7-7.75,5.47-15.48,8.16-23.23a24.88,24.88,0,0,0,1.76-6.45c0-.39.29-.47.6-.55a55.19,55.19,0,0,1,8.64-1.5,9,9,0,0,1,1,0c1.78,0,2.29.44,2.68,2.16a15.74,15.74,0,0,1-.07,6.66C267.36,85.22,267.31,85.46,267.2,86.05Z" fill="#fff"/><path d="M229.51,87.16a9.43,9.43,0,0,1,11.3-1.76c2.06,1.21,2.75,3.24,2.91,5.46a22.24,22.24,0,0,1-2,10.81,47,47,0,0,1-10.08,14.73A21.65,21.65,0,0,1,221,122.47a21,21,0,0,1-10.23-.23,11,11,0,0,1-8.2-8.9,23.25,23.25,0,0,1,.05-8.72,35,35,0,0,1,5.5-14.46,35.62,35.62,0,0,1,11-10.5A27.85,27.85,0,0,1,229,75.74a14.27,14.27,0,0,1,6.9.38,11.14,11.14,0,0,1,6.59,5.76c-.36.31-.65.15-.93.11-6.6-.94-12.37.66-17.12,5.48a19.8,19.8,0,0,0-3.34,4.67,33.56,33.56,0,0,0-3.69,10.28,11.26,11.26,0,0,0,.38,6,5.79,5.79,0,0,0,3.07,3.33,3.49,3.49,0,0,0,2.76.1,12.26,12.26,0,0,0,6.13-5.12,17.92,17.92,0,0,0,2.72-8.52,24.47,24.47,0,0,0-.28-7.59C231.88,89.06,231.26,87.66,229.51,87.16Z" fill="#fff"/><path d="M169.06,94.22a22.83,22.83,0,0,0-.42-7,7.53,7.53,0,0,0-1-2.38A3.83,3.83,0,0,0,163.58,83a14,14,0,0,0-2.41.42,3.92,3.92,0,0,0-2.78,3.66,6.73,6.73,0,0,0,2.93,6.36,13.83,13.83,0,0,0,1.28.88c1.51.87,3.05,1.71,4.57,2.58,3.86,2.19,6.16,5.46,5.86,9.94a13.31,13.31,0,0,1-3.45,7.78,23.75,23.75,0,0,1-14.66,8,23.17,23.17,0,0,1-10.24-.5,15.16,15.16,0,0,1-4-1.73,8.07,8.07,0,0,1-3.91-5.52,10.94,10.94,0,0,1,3.59-10.56c.5,0,.49.42.59.67,1.74,4.52,5.15,6.94,9.79,7.86a9.5,9.5,0,0,0,5.81-.58,5.92,5.92,0,0,0,2.12-1.44,3,3,0,0,0-.15-4.19A10,10,0,0,0,155.9,105c-3-1.52-6.08-3-9-4.73a9.27,9.27,0,0,1-3.17-2.8,7.72,7.72,0,0,1-1-6.42A18.5,18.5,0,0,1,150,80.3a27,27,0,0,1,18.75-5.18,11.75,11.75,0,0,1,9.15,5.13,6.14,6.14,0,0,1-.05,7.67,14.22,14.22,0,0,1-3.52,3.4A22.26,22.26,0,0,1,169.06,94.22Z" fill="#fff"/><path d="M195.07,119.17a11.69,11.69,0,0,1-7,3.65,20.06,20.06,0,0,1-6,.11,6,6,0,0,1-5.57-5.78,21.25,21.25,0,0,1,.75-7.53,91.33,91.33,0,0,1,5.29-14.52c1.8-4.13,3.8-8.18,5.47-12.37a11.51,11.51,0,0,0,.92-3.08c0-.34.13-.57.48-.67,3.9-1.07,7.77-2.27,11.89-2.1a5.55,5.55,0,0,1,2.11.55,2.14,2.14,0,0,1,1.35,2.27,8.09,8.09,0,0,1-.36,1.76,104.94,104.94,0,0,1-3.71,9.89,143.78,143.78,0,0,0-6.13,16.45A20.3,20.3,0,0,0,194,117,4.35,4.35,0,0,0,195.07,119.17Z" fill="#fff"/><path d="M209.36,63.94a9.14,9.14,0,0,1-4.79,7.62A12.47,12.47,0,0,1,196.22,73a4.57,4.57,0,0,1-4-4.56c-.17-3.76,1.68-6.42,4.76-8.26a11,11,0,0,1,7.85-1.36,4.9,4.9,0,0,1,4.5,5.12Z" fill="#fff"/><g style="isolation:isolate"><g style="isolation:isolate"><path d="M5.35,14.8v7.45h8.8v3H5.35v13H2.15V11.8h12.4v3Z" fill="#fff"/><path d="M17.7,38.2V11.8h3.2V38.2Z" fill="#fff"/><path d="M28.05,18.6V38.2h-3.2V10.55L43.8,31.25V11.85H47V39.3Z" fill="#fff"/><path d="M55.85,38.2H50.8V11.8H56c7.9,0,14.35,4.3,14.35,13.05C70.3,33.85,63.9,38.2,55.85,38.2ZM55,14.8H54V35.2h1c6.5,0,12.1-2.55,12.1-10.2S61.5,14.8,55,14.8Z" fill="#fff"/></g></g></svg>