<svg xmlns="http://www.w3.org/2000/svg" width="1366" height="915.74" viewBox="0 0 1366 915.74"><path d="M609.92,605a21.15,21.15,0,0,0-4.12-4.63,15.69,15.69,0,0,0-8.43-3.9,30.78,30.78,0,0,0-4.5-.34,1,1,0,0,0-1.14.78s0,.07,0,.11q-1.53,6.79-3.1,13.58c-.3,1.3-.6,2.6-.89,3.9a1.27,1.27,0,0,0,0,.94,45.56,45.56,0,0,1,7-.76,28.38,28.38,0,0,1,7.18.59,4.6,4.6,0,0,1,3.85,4.67,18.28,18.28,0,0,1-1.91,8.15c-.38.18-.55-.07-.74-.21a13.41,13.41,0,0,0-7.52-2.4c-3-.07-5.95,0-8.92,0-1.29,0-1.27-.09-1.69,1.25-1.19,3.78-2.36,7.56-3.62,11.31a24.08,24.08,0,0,1-5.69,9.73A18.33,18.33,0,0,1,560.78,653a8.62,8.62,0,0,1-6.91-4.22,14,14,0,0,1-2-6.59c-.05-.65.15-1,.83-1,3-.14,5.48-1.43,8-3a16.75,16.75,0,0,0,6.72-8.09c1.89-4.53,3.54-9.15,5.25-13.74,2.14-5.72,4.29-11.43,6.2-17.23a2.6,2.6,0,0,0,.26-1.13,2.78,2.78,0,0,0-1.62.35,17.89,17.89,0,0,0-9.49,8.53,10,10,0,0,0-1.12,4.21c-.06,1.37-.23,2.74-.21,4.12,0,.86,0,.91-.84.87-3.38-.17-6.06-1.64-7.38-4.78-2.53-6-1.74-12.63,3.71-17.41A31.23,31.23,0,0,1,573,588.2a60.4,60.4,0,0,1,12-2.36,87.76,87.76,0,0,1,13.27-.71,39.18,39.18,0,0,1,9.57,1.29,12.46,12.46,0,0,1,5.9,3.29,7.37,7.37,0,0,1,1.64,8.24A17.59,17.59,0,0,1,609.92,605Z" fill="#fff"/><path d="M629.59,642.06c-.49.47-1,.9-1.4,1.35a51.25,51.25,0,0,1-5.23,4.41,13.45,13.45,0,0,1-7.41,2.67,24.67,24.67,0,0,1-4.38.12c-3.21-.37-5.4-2.4-6-5.93a20.8,20.8,0,0,1,.66-9.44,75.41,75.41,0,0,1,3.9-10.38c2-4.55,4.32-9,6.18-13.62a16,16,0,0,0,1.18-3.82.88.88,0,0,1,.79-.85,84.75,84.75,0,0,1,10.51-2,7,7,0,0,1,2.19,0,3.09,3.09,0,0,1,2.78,3.2,8.36,8.36,0,0,1-.94,4c-1.24,2.6-2.46,5.21-3.75,7.79q-4,8-8.09,16a9.42,9.42,0,0,0-1,3.18A2.11,2.11,0,0,0,621,641.3a2,2,0,0,0,1.09,0,7.93,7.93,0,0,0,3.53-1.5,26.56,26.56,0,0,0,8.13-9.39,58.28,58.28,0,0,0,2.85-7.18c1.87-4.9,3.76-9.79,5.89-14.58a2.83,2.83,0,0,1,1.58-1.57,24.76,24.76,0,0,1,6.8-2,10.73,10.73,0,0,1,4.47.38,2.06,2.06,0,0,1,1.56,1.83,11.14,11.14,0,0,1-.42,4.59,80.67,80.67,0,0,1-3,8.53c-2.18,5.56-4.93,10.84-7.51,16.21a14.6,14.6,0,0,0-1.2,5.64,4.82,4.82,0,0,0,.37,1.76,15.51,15.51,0,0,0,1.38,2.91c.45.78.44.86-.33,1.31a12.69,12.69,0,0,1-1.84.93,35.53,35.53,0,0,1-11.2,2.28,6.69,6.69,0,0,1-1.79-.19c-1.74-.39-2.43-1.2-2.37-3a31.62,31.62,0,0,1,.59-5.13A1.63,1.63,0,0,0,629.59,642.06Z" fill="#fff"/><path d="M783.53,614.68c.9-.86,1.58-1.52,2.27-2.15a37.07,37.07,0,0,1,9.89-6.73,12.33,12.33,0,0,1,3.72-1c3.27-.34,5.62,1.26,7.52,3.69a11,11,0,0,1,2.4,6.53,9.91,9.91,0,0,1-.47,3.38c-2.41,7.7-6.64,14.58-9.86,21.92a14.19,14.19,0,0,0-1.07,3.16,2.64,2.64,0,0,0,.57,2.29c.6.73,1.21,1.45,1.87,2.23a2.87,2.87,0,0,1-1.16.75A24.92,24.92,0,0,1,787,651.06a11.79,11.79,0,0,1-3.18-.5c-2.35-.75-3.56-2.51-3.29-5.3a22.11,22.11,0,0,1,2.15-7,54,54,0,0,1,6.51-10.38,49.51,49.51,0,0,0,3.83-5.35,16.41,16.41,0,0,0,1.7-4.16,7.29,7.29,0,0,0,.14-1.8,1.6,1.6,0,0,0-1.52-1.66,1.68,1.68,0,0,0-.7.13,21.54,21.54,0,0,0-6.71,3.79,27.64,27.64,0,0,0-7.59,10.62,114,114,0,0,0-5.91,18.28c-.12.54-.25,1-.82,1.18a35.31,35.31,0,0,1-7.68,2.2,6.39,6.39,0,0,1-4.1-.8,3.45,3.45,0,0,1-1.83-4,75.5,75.5,0,0,1,2.89-9.77c2.71-7.75,5.47-15.48,8.17-23.24a24.91,24.91,0,0,0,1.76-6.44c0-.39.28-.47.6-.55a55,55,0,0,1,8.64-1.5c.34,0,.69,0,1,0,1.78.06,2.3.45,2.69,2.16a15.79,15.79,0,0,1-.08,6.67C783.7,613.85,783.65,614.1,783.53,614.68Z" fill="#fff"/><path d="M745.85,615.8a9.43,9.43,0,0,1,11.3-1.77c2.06,1.21,2.75,3.24,2.91,5.47a22.26,22.26,0,0,1-2,10.81A47.07,47.07,0,0,1,748,645a21.63,21.63,0,0,1-10.62,6.08,21,21,0,0,1-10.23-.24,11,11,0,0,1-8.2-8.89,23.46,23.46,0,0,1,0-8.72,35.21,35.21,0,0,1,5.51-14.47,35.74,35.74,0,0,1,11-10.5,28.23,28.23,0,0,1,9.88-3.92,14.52,14.52,0,0,1,6.9.38,11.19,11.19,0,0,1,6.59,5.77c-.36.3-.66.15-.94.11-6.59-.94-12.36.66-17.11,5.48a19.46,19.46,0,0,0-3.34,4.66,33.49,33.49,0,0,0-3.69,10.28,11.21,11.21,0,0,0,.38,6,5.78,5.78,0,0,0,3.07,3.33,3.53,3.53,0,0,0,2.76.1,12.2,12.2,0,0,0,6.12-5.12,17.74,17.74,0,0,0,2.72-8.52,24.47,24.47,0,0,0-.27-7.59C748.21,617.7,747.6,616.3,745.85,615.8Z" fill="#fff"/><path d="M685.4,622.85a22.87,22.87,0,0,0-.42-7,7.57,7.57,0,0,0-1-2.37,3.83,3.83,0,0,0-4.09-1.83,13.2,13.2,0,0,0-2.41.41,3.93,3.93,0,0,0-2.77,3.66,6.74,6.74,0,0,0,2.93,6.37c.41.31.83.6,1.27.87,1.52.88,3.06,1.72,4.58,2.58,3.85,2.19,6.16,5.46,5.86,10a13.34,13.34,0,0,1-3.45,7.78,23.8,23.8,0,0,1-14.66,8,23.16,23.16,0,0,1-10.24-.5,15,15,0,0,1-4-1.73,8.07,8.07,0,0,1-3.91-5.53,10.94,10.94,0,0,1,3.59-10.56c.5,0,.49.42.59.67,1.74,4.52,5.14,6.94,9.79,7.87a9.5,9.5,0,0,0,5.81-.59,5.79,5.79,0,0,0,2.12-1.44,3,3,0,0,0-.15-4.18,9.77,9.77,0,0,0-2.61-1.65c-3-1.53-6.09-3-9-4.73a9.27,9.27,0,0,1-3.17-2.8,7.72,7.72,0,0,1-1-6.42,18.55,18.55,0,0,1,7.37-10.74,27.13,27.13,0,0,1,18.76-5.17,11.76,11.76,0,0,1,9.15,5.13,6.12,6.12,0,0,1-.06,7.67,14,14,0,0,1-3.51,3.4A21.88,21.88,0,0,1,685.4,622.85Z" fill="#fff"/><path d="M711.4,647.81a11.78,11.78,0,0,1-7,3.65,20.12,20.12,0,0,1-6,.11,6,6,0,0,1-5.56-5.79,21.3,21.3,0,0,1,.75-7.53,91.58,91.58,0,0,1,5.29-14.51c1.8-4.14,3.8-8.18,5.47-12.37a11.51,11.51,0,0,0,.92-3.08c0-.34.13-.57.48-.67,3.9-1.07,7.77-2.28,11.89-2.1a5.37,5.37,0,0,1,2.11.55,2.15,2.15,0,0,1,1.35,2.26,8.32,8.32,0,0,1-.37,1.77,99.68,99.68,0,0,1-3.71,9.89,145.63,145.63,0,0,0-6.12,16.45,20.44,20.44,0,0,0-.48,9.2A4.43,4.43,0,0,0,711.4,647.81Z" fill="#fff"/><path d="M725.69,592.58a9.12,9.12,0,0,1-4.78,7.62,12.41,12.41,0,0,1-8.35,1.43,4.55,4.55,0,0,1-4-4.56c-.17-3.75,1.68-6.42,4.76-8.26a11,11,0,0,1,7.84-1.35,5.16,5.16,0,0,1,4.07,2.84A4.94,4.94,0,0,1,725.69,592.58Z" fill="#fff"/><rect width="1366" height="915.74" fill="#ff8f1c"/><path d="M0,915.74v-613l1367.88,613Z" fill="#ff9f1c"/><g opacity="0.6"><path d="M326.41,460.3c-5.74-9.46-13.16-16.36-20.65-23.24-12-11.05-26.36-17-42.29-19.55a159.63,159.63,0,0,0-22.59-1.7c-3.43-.06-5,1.11-5.79,4.47-5.1,22.74-10.35,45.44-15.55,68.16q-2.23,9.76-4.48,19.54c-.33,1.44-1,2.86-.11,4.73a227.73,227.73,0,0,1,35.05-3.8c12.12-.22,24.18.1,36.05,2.94,12.24,2.94,18.74,10.78,19.3,23.42.64,14.65-3.94,28-9.59,40.91-1.9.91-2.73-.36-3.72-1a67.42,67.42,0,0,0-37.73-12c-14.91-.37-29.83-.06-44.75.06-6.47.05-6.35-.44-8.46,6.28-6,18.94-11.86,37.91-18.2,56.73-6.13,18.17-14.61,35.15-28.51,48.8-20.7,20.34-46,28.55-74.53,26.39-14.8-1.12-26.61-8.35-34.65-21.14C38.85,670.11,35.89,659,35,647.15c-.23-3.25.77-4.82,4.17-5,15-.69,27.5-7.18,40-15,16-10,26.68-23.61,33.75-40.61,9.44-22.72,17.73-45.89,26.33-68.94,10.72-28.68,21.52-57.35,31.14-86.43.59-1.78,1.5-3.48,1.29-5.68-3-.64-5.6.81-8.11,1.8-21.23,8.27-37,22.76-47.64,42.78a49.38,49.38,0,0,0-5.6,21.11c-.33,6.9-1.19,13.76-1.07,20.69.07,4.28-.09,4.54-4.24,4.34-16.95-.83-30.4-8.19-37-24C55.42,462,59.38,428.87,86.73,404.9c15.91-13.95,34.87-22.14,54.65-28.83,19.56-6.62,39.86-9.35,60.23-11.83,22.12-2.7,44.3-4.27,66.59-3.58,16.21.5,32.34,2,48,6.48,11.13,3.19,21.51,7.8,29.62,16.51,11.26,12.1,14.26,25.92,8.23,41.3C348.48,439.17,338.63,450.24,326.41,460.3Z" fill="none" stroke="#fff"/><path d="M425.12,646.25c-2.46,2.37-4.76,4.55-7,6.77a254.1,254.1,0,0,1-26.23,22.15,67.61,67.61,0,0,1-37.21,13.41c-7.31.45-14.52,1.42-22,.58-16.14-1.83-27.09-12-30.36-29.75-3-16.1-1-31.82,3.31-47.38,5-17.93,12-35.09,19.57-52,10.18-22.86,21.67-45.13,31-68.37,2.5-6.21,5-12.43,5.91-19.12.33-2.56,1.5-3.73,3.95-4.31C383.52,464,401,460.05,418.83,458a37.14,37.14,0,0,1,11,.13c8.93,1.67,13.56,7,13.94,16.06.3,7.08-1.7,13.67-4.69,20-6.2,13.05-12.33,26.15-18.79,39.07-13.43,26.84-27,53.59-40.62,80.36a48.21,48.21,0,0,0-5.17,15.93c-1.07,8.85,4.17,14,13.11,12.88,6.65-.81,12.35-3.87,17.7-7.57,17.6-12.2,30.65-28.39,40.79-47.08,6.21-11.45,9.71-24,14.32-36.06,9.36-24.58,18.86-49.1,29.55-73.14a14.25,14.25,0,0,1,7.9-7.86A124.05,124.05,0,0,1,532,460.92a53.8,53.8,0,0,1,22.42,1.92c4.72,1.42,7.1,4.34,7.83,9.17,1.19,7.89-.08,15.58-2.09,23-3.93,14.63-9.54,28.65-15.09,42.77-11,27.9-24.75,54.4-37.68,81.34-4.24,8.84-5.52,18.59-6,28.33-.15,3,.85,6,1.82,8.84a79,79,0,0,0,6.94,14.6c2.27,3.89,2.2,4.29-1.65,6.57a65.58,65.58,0,0,1-9.25,4.65c-18.05,7.1-36.91,10.35-56.21,11.42a33.18,33.18,0,0,1-9-1c-8.69-1.92-12.18-6-11.85-15a154.22,154.22,0,0,1,2.94-25.7C425.45,650.23,426.11,648.58,425.12,646.25Z" fill="none" stroke="#fff"/><path d="M1197.53,508.9c4.54-4.31,7.89-7.63,11.38-10.78,15-13.53,31-25.64,49.6-33.8a62.85,62.85,0,0,1,18.67-5.15c16.42-1.69,28.21,6.33,37.74,18.52a54.8,54.8,0,0,1,12,32.78,50.48,50.48,0,0,1-2.34,16.95c-12.11,38.65-33.34,73.15-49.5,110a72.42,72.42,0,0,0-5.35,15.9,13.2,13.2,0,0,0,2.83,11.48c3,3.65,6.09,7.24,9.4,11.17-1.49,2.08-3.8,2.74-5.82,3.76-19.24,9.69-39.83,12.36-61.07,11.73a57.82,57.82,0,0,1-15.94-2.48c-11.81-3.75-17.88-12.62-16.49-26.62,1.24-12.37,5.6-23.93,10.77-35.15,8.64-18.75,20-35.78,32.66-52.06,6.74-8.71,13.68-17.28,19.2-26.86a80.71,80.71,0,0,0,8.56-20.9,36.35,36.35,0,0,0,.74-9c0-5.24-4.62-10-11.16-7.64a108.83,108.83,0,0,0-33.65,19c-17.26,14.5-29.37,32.74-38.08,53.31a569.11,569.11,0,0,0-29.65,91.72c-.63,2.69-1.25,4.86-4.16,5.92-12.57,4.59-25.07,9.41-38.5,11.07a32.5,32.5,0,0,1-20.58-4c-7.95-4.56-11-11.18-9.19-20.19,3.38-16.77,8.89-32.93,14.51-49,13.59-38.89,27.45-77.68,41-116.58,3.67-10.56,8-21,8.84-32.36.13-1.95,1.42-2.35,3-2.73,14.28-3.46,28.65-6.42,43.35-7.52a47.11,47.11,0,0,1,5.18,0c8.93.27,11.52,2.23,13.47,10.84,2.53,11.14,1.86,22.31-.37,33.42Z" fill="none" stroke="#fff"/><path d="M1008.45,514.5c15.21-16.1,40-18.67,56.72-8.85,10.31,6.05,13.8,16.24,14.61,27.42,1.36,18.92-2.52,37.09-10.19,54.22-12.38,27.62-28.77,52.71-50.61,73.89-15.11,14.66-32.3,26.1-53.28,30.49-17.13,3.59-34.34,3.69-51.3-1.18-22.68-6.51-36.23-21.62-41.13-44.62-3.1-14.6-2.21-29.23.21-43.76,4.34-26,12.46-50.65,27.64-72.58,14.81-21.41,32.93-39.15,55.42-52.66,15.57-9.34,31.67-16.74,49.59-19.67,11.61-1.89,23.27-1.81,34.62,1.9,15.15,4.94,25.79,15,33,28.92-1.78,1.53-3.28.76-4.69.56-33.07-4.72-62,3.29-85.87,27.48a98.74,98.74,0,0,0-16.76,23.43C957.83,555.77,951,572.76,948,591.05c-1.65,10.09-1.9,20.23,1.91,30,2.94,7.57,7.9,13.36,15.37,16.73a17.77,17.77,0,0,0,13.87.51c13.4-4.84,23.12-14,30.74-25.71,8.47-13,12.47-27.49,13.65-42.75,1-12.7,1.58-25.49-1.37-38.06C1020.31,524,1017.21,517,1008.45,514.5Z" fill="none" stroke="#fff"/><path d="M705.16,549.9c.77-12.51.64-23.92-2.13-35.13a37.65,37.65,0,0,0-4.91-11.91c-4.87-7.4-11.68-10.59-20.5-9.19-4,.65-8.16.72-12.09,2.09-8.52,3-13.26,9.33-13.94,18.36-1,13.41,3.8,24.06,14.7,31.94a73.34,73.34,0,0,0,6.41,4.39c7.62,4.38,15.32,8.6,22.95,12.94,19.34,11,30.92,27.4,29.4,49.9-1,14.93-7.68,27.79-17.32,39.05-19.4,22.66-44.46,35.2-73.53,40.1a116.67,116.67,0,0,1-51.36-2.52,75.67,75.67,0,0,1-20.15-8.69c-10.37-6.54-17.41-15.49-19.59-27.72-3.76-21,2.45-38.71,18-53,2.5.21,2.46,2.11,2.95,3.36,8.73,22.68,25.82,34.82,49.12,39.46a47.71,47.71,0,0,0,29.14-2.93A29.64,29.64,0,0,0,653,633.19a14.87,14.87,0,0,0-.75-21c-3.77-3.68-8.47-5.95-13.1-8.27-15.26-7.64-30.54-15.25-45.35-23.74-6.28-3.6-11.84-8-15.91-14-6.68-9.91-8-20.81-5.16-32.23,5.59-22.55,18.38-40.31,37-53.86,28.06-20.42,59.7-28.87,94.11-26,18.88,1.59,34.88,9.62,45.92,25.74,8.93,13,8.8,25.54-.29,38.49a71.24,71.24,0,0,1-17.62,17.06C723.72,541.08,715.29,546.22,705.16,549.9Z" fill="none" stroke="#fff"/><path d="M835.62,675.1a58.84,58.84,0,0,1-35.31,18.32c-10,1.47-20.11,2.13-30.32.57-16.65-2.56-26.08-12.21-27.93-29-1.42-12.9.7-25.39,3.76-37.78,6.24-25.22,16.23-49.09,26.56-72.83,9-20.75,19.07-41.05,27.45-62.09,2-5,4-10,4.58-15.44.17-1.69.68-2.87,2.43-3.35,19.55-5.37,39-11.43,59.65-10.55a27.29,27.29,0,0,1,10.59,2.75c4.76,2.26,7.19,5.9,6.8,11.37a41.11,41.11,0,0,1-1.85,8.85c-5,17-11.89,33.27-18.62,49.62-11.18,27.16-22.88,54.15-30.72,82.54a102.16,102.16,0,0,0-2.39,46.15A21.91,21.91,0,0,0,835.62,675.1Z" fill="none" stroke="#fff"/><path d="M907.32,398c-1.44,16.82-9.18,29.93-24,38.23a62.3,62.3,0,0,1-41.91,7.2c-12-2.07-19.35-10.62-19.91-22.87-.86-18.86,8.43-32.22,23.91-41.45a55.29,55.29,0,0,1,39.34-6.8c8.84,1.63,16.3,5.62,20.41,14.24A25.2,25.2,0,0,1,907.32,398Z" fill="none" stroke="#fff"/></g></svg>