<svg xmlns="http://www.w3.org/2000/svg" width="697.68" height="184.21" viewBox="0 0 697.68 184.21"><g opacity="0.1"><path d="M157.36,53.87c-3.1-5.1-7.1-8.83-11.15-12.55-6.5-6-14.23-9.16-22.84-10.55a84.38,84.38,0,0,0-12.2-.92c-1.85,0-2.72.6-3.12,2.41-2.76,12.28-5.59,24.54-8.4,36.8q-1.2,5.28-2.42,10.55a3.48,3.48,0,0,0-.06,2.56,124.13,124.13,0,0,1,18.93-2.06c6.54-.12,13.06.06,19.46,1.6,6.61,1.58,10.12,5.81,10.42,12.64.35,7.91-2.12,15.14-5.18,22.09-1,.49-1.47-.2-2-.57a36.5,36.5,0,0,0-20.38-6.5c-8-.2-16.11,0-24.16,0-3.5,0-3.43-.24-4.57,3.39-3.22,10.23-6.4,20.47-9.83,30.63-3.31,9.81-7.89,19-15.39,26.35-11.18,11-24.82,15.42-40.25,14.25A23.38,23.38,0,0,1,5.51,172.62,37.93,37.93,0,0,1,0,154.76c-.13-1.76.41-2.6,2.25-2.69,8.08-.36,14.85-3.87,21.62-8.1a45.46,45.46,0,0,0,18.23-21.92c5.1-12.27,9.57-24.79,14.22-37.23,5.78-15.49,11.61-31,16.81-46.67a7.11,7.11,0,0,0,.7-3.07c-1.64-.35-3,.44-4.38,1a48.29,48.29,0,0,0-25.72,23.1,26.55,26.55,0,0,0-3,11.4c-.18,3.73-.65,7.43-.58,11.17,0,2.31,0,2.46-2.29,2.35-9.16-.45-16.42-4.43-20-12.95C11,54.76,13.17,36.89,27.93,24,36.53,16.42,46.77,12,57.44,8.38S79,3.34,90,2a236.21,236.21,0,0,1,36-1.93c8.75.27,17.46,1.07,25.93,3.5,6,1.72,11.62,4.22,16,8.92,6.08,6.53,7.7,14,4.45,22.3C169.28,42.46,164,48.44,157.36,53.87Z" fill="#ff8f1c"/><path d="M210.66,154.28c-1.33,1.28-2.57,2.46-3.79,3.66a136.91,136.91,0,0,1-14.16,12,36.58,36.58,0,0,1-20.1,7.24c-4,.25-7.84.77-11.85.31-8.72-1-14.63-6.5-16.39-16.06-1.6-8.69-.55-17.18,1.78-25.59a204,204,0,0,1,10.57-28.1c5.5-12.35,11.7-24.37,16.74-36.92a42.64,42.64,0,0,0,3.19-10.33,2.43,2.43,0,0,1,2.14-2.33,237.5,237.5,0,0,1,28.47-5.47,20,20,0,0,1,5.94.07c4.82.9,7.32,3.78,7.53,8.67a22.62,22.62,0,0,1-2.54,10.79c-3.35,7-6.65,14.12-10.14,21.1-7.25,14.49-14.6,28.94-21.94,43.39a26.07,26.07,0,0,0-2.79,8.6c-.58,4.78,2.25,7.55,7.08,7a21.43,21.43,0,0,0,9.56-4.09c9.5-6.59,16.55-15.33,22-25.42,3.36-6.18,5.25-13,7.73-19.47,5.06-13.28,10.19-26.52,16-39.5a7.71,7.71,0,0,1,4.27-4.25,67.18,67.18,0,0,1,18.42-5.3,29,29,0,0,1,12.11,1,5.51,5.51,0,0,1,4.22,4.95,30.09,30.09,0,0,1-1.12,12.44,221.25,221.25,0,0,1-8.15,23.1c-5.93,15.06-13.37,29.37-20.35,43.92-2.29,4.78-3,10-3.24,15.3a13.24,13.24,0,0,0,1,4.77,42.47,42.47,0,0,0,3.75,7.88c1.22,2.1,1.19,2.32-.89,3.55a34.25,34.25,0,0,1-5,2.51,96.47,96.47,0,0,1-30.36,6.17,17.6,17.6,0,0,1-4.85-.52c-4.7-1-6.58-3.26-6.4-8.11a83.93,83.93,0,0,1,1.58-13.88A4.36,4.36,0,0,0,210.66,154.28Z" fill="#ff8f1c"/><path d="M627.76,80.12c2.45-2.33,4.26-4.12,6.15-5.83C642,67,650.63,60.45,660.69,56a34,34,0,0,1,10.08-2.78c8.87-.91,15.23,3.42,20.38,10A29.6,29.6,0,0,1,697.66,81a27.36,27.36,0,0,1-1.27,9.16c-6.54,20.87-18,39.5-26.72,59.37a39.4,39.4,0,0,0-2.89,8.58,7.11,7.11,0,0,0,1.53,6.2c1.62,2,3.29,3.91,5.07,6-.8,1.12-2,1.48-3.14,2-10.39,5.24-21.51,6.68-33,6.34a31.31,31.31,0,0,1-8.6-1.34c-6.39-2-9.66-6.82-8.9-14.38.66-6.68,3-12.92,5.81-19a146.31,146.31,0,0,1,17.63-28.11c3.64-4.7,7.39-9.33,10.37-14.5a43.23,43.23,0,0,0,4.62-11.29,19.36,19.36,0,0,0,.4-4.86,4.31,4.31,0,0,0-4.14-4.48,4.17,4.17,0,0,0-1.88.35,58.68,58.68,0,0,0-18.18,10.25c-9.32,7.83-15.86,17.68-20.56,28.79a307,307,0,0,0-16,49.53c-.34,1.45-.67,2.62-2.24,3.19-6.79,2.48-13.54,5.08-20.79,6a17.52,17.52,0,0,1-11.11-2.18c-4.3-2.46-5.94-6-5-10.9,1.82-9.06,4.8-17.78,7.83-26.47,7.34-21,14.82-42,22.13-63,2-5.7,4.35-11.33,4.77-17.47.07-1.05.77-1.27,1.62-1.48a147.36,147.36,0,0,1,23.41-4.06c.93,0,1.87-.06,2.8,0,4.82.15,6.22,1.21,7.27,5.86a42.69,42.69,0,0,1-.2,18C628.21,77.86,628.07,78.55,627.76,80.12Z" fill="#ff8f1c"/><path d="M525.66,83.14c8.22-8.7,21.61-10.08,30.63-4.78,5.57,3.27,7.45,8.77,7.89,14.81a60.41,60.41,0,0,1-5.5,29.28c-6.68,14.91-15.54,28.46-27.33,39.9-8.15,7.91-17.44,14.09-28.77,16.46a56.72,56.72,0,0,1-27.7-.64c-12.25-3.51-19.56-11.67-22.21-24.09-1.67-7.89-1.2-15.78.12-23.63,2.34-14,6.72-27.35,14.92-39.19a96.52,96.52,0,0,1,29.93-28.44c8.4-5,17.1-9,26.78-10.62a39.31,39.31,0,0,1,18.69,1c8.18,2.67,13.93,8.1,17.85,15.62-1,.83-1.77.41-2.53.31-17.86-2.55-33.5,1.77-46.38,14.84a53.84,53.84,0,0,0-9,12.64c-4.66,8.8-8.38,18-10,27.85-.89,5.45-1,10.92,1,16.21a15.66,15.66,0,0,0,8.3,9,9.6,9.6,0,0,0,7.49.27c7.23-2.61,12.48-7.57,16.6-13.88A48.26,48.26,0,0,0,533.8,113c.53-6.86.85-13.76-.74-20.55C532.06,88.28,530.39,84.49,525.66,83.14Z" fill="#ff8f1c"/><path d="M361.88,102.26c.42-6.76.35-12.92-1.15-19a20.16,20.16,0,0,0-2.65-6.44c-2.63-4-6.3-5.72-11.07-5A37.18,37.18,0,0,0,340.48,73,10.63,10.63,0,0,0,333,82.93c-.55,7.25,2.05,13,7.93,17.25a40.84,40.84,0,0,0,3.47,2.37c4.11,2.37,8.27,4.65,12.39,7,10.45,5.94,16.69,14.8,15.88,26.94-.55,8.07-4.15,15-9.36,21.09-10.47,12.24-24,19-39.7,21.65a62.91,62.91,0,0,1-27.73-1.36,40.6,40.6,0,0,1-10.88-4.7c-5.6-3.53-9.4-8.36-10.58-15-2-11.37,1.32-20.9,9.73-28.61,1.34.11,1.32,1.14,1.58,1.81,4.72,12.25,13.95,18.8,26.53,21.3A25.7,25.7,0,0,0,328,151.12a15.88,15.88,0,0,0,5.74-3.9,8,8,0,0,0-.4-11.35,27.16,27.16,0,0,0-7.07-4.46c-8.24-4.13-16.49-8.23-24.49-12.82a25.1,25.1,0,0,1-8.59-7.57c-3.61-5.35-4.32-11.24-2.79-17.41,3-12.18,9.93-21.77,20-29.08,15.16-11,32.24-15.59,50.82-14,10.2.86,18.84,5.2,24.8,13.9,4.82,7,4.75,13.79-.16,20.79a38.54,38.54,0,0,1-9.51,9.21A60.3,60.3,0,0,1,361.88,102.26Z" fill="#ff8f1c"/><path d="M432.33,169.86a31.85,31.85,0,0,1-19.07,9.9,54.78,54.78,0,0,1-16.37.3c-9-1.38-14.08-6.59-15.08-15.69-.77-7,.38-13.7,2-20.4,3.37-13.62,8.77-26.51,14.34-39.33,4.87-11.2,10.3-22.16,14.83-33.52a31.16,31.16,0,0,0,2.47-8.34c.09-.91.37-1.55,1.31-1.81,10.56-2.9,21-6.17,32.21-5.7a14.79,14.79,0,0,1,5.72,1.49,5.82,5.82,0,0,1,3.67,6.14,22.47,22.47,0,0,1-1,4.78c-2.69,9.17-6.42,18-10.05,26.8-6,14.66-12.36,29.23-16.59,44.56A55.16,55.16,0,0,0,429.46,164,11.82,11.82,0,0,0,432.33,169.86Z" fill="#ff8f1c"/><path d="M471.05,20.22c-.78,9.09-5,16.17-13,20.65a33.64,33.64,0,0,1-22.63,3.89C429,43.64,425,39,424.7,32.4,424.23,22.22,429.25,15,437.61,10a29.91,29.91,0,0,1,21.24-3.67c4.78.88,8.8,3,11,7.69A13.69,13.69,0,0,1,471.05,20.22Z" fill="#ff8f1c"/></g></svg>