<svg xmlns="http://www.w3.org/2000/svg" width="306.2" height="111.1" viewBox="0 0 306.2 111.1"><path d="M58.08,19.89A21.15,21.15,0,0,0,54,15.26a15.69,15.69,0,0,0-8.43-3.9A30.78,30.78,0,0,0,41,11a1,1,0,0,0-1.14.78s0,.07,0,.11q-1.53,6.8-3.1,13.58c-.3,1.3-.6,2.6-.89,3.9a1.27,1.27,0,0,0,0,.94,45.56,45.56,0,0,1,7-.76,28.38,28.38,0,0,1,7.18.59,4.61,4.61,0,0,1,3.85,4.67A18.28,18.28,0,0,1,52,43c-.38.18-.55-.07-.74-.21a13.48,13.48,0,0,0-7.52-2.4c-3-.07-6,0-8.92,0-1.29,0-1.27-.08-1.69,1.26-1.19,3.77-2.36,7.55-3.62,11.3a24.08,24.08,0,0,1-5.69,9.73A18.33,18.33,0,0,1,8.94,67.93,8.62,8.62,0,0,1,2,63.71a14,14,0,0,1-2-6.59c0-.65.15-1,.83-1,3-.13,5.48-1.43,8-3a16.75,16.75,0,0,0,6.72-8.09c1.89-4.53,3.54-9.15,5.25-13.74,2.14-5.72,4.29-11.43,6.2-17.23A2.6,2.6,0,0,0,27.25,13a2.71,2.71,0,0,0-1.62.36,17.83,17.83,0,0,0-9.49,8.52A10,10,0,0,0,15,26c-.06,1.37-.23,2.74-.21,4.12,0,.86,0,.91-.84.87-3.38-.17-6.06-1.63-7.38-4.78-2.53-6-1.74-12.63,3.71-17.41A31.4,31.4,0,0,1,21.2,3.09,59.54,59.54,0,0,1,33.2.74,86.48,86.48,0,0,1,46.47,0,39.18,39.18,0,0,1,56,1.31a12.39,12.39,0,0,1,5.9,3.3,7.35,7.35,0,0,1,1.64,8.23A17.59,17.59,0,0,1,58.08,19.89Z" fill="#ff8f1c"/><path d="M77.75,57l-1.4,1.35a50,50,0,0,1-5.23,4.41,13.45,13.45,0,0,1-7.41,2.67,24.67,24.67,0,0,1-4.38.12c-3.21-.37-5.4-2.4-6-5.93a20.8,20.8,0,0,1,.66-9.44,75.41,75.41,0,0,1,3.9-10.38c2-4.55,4.32-9,6.18-13.62a16,16,0,0,0,1.18-3.81.88.88,0,0,1,.78-.86,85.26,85.26,0,0,1,10.52-2,7.31,7.31,0,0,1,2.19,0,3.07,3.07,0,0,1,2.77,3.2,8.24,8.24,0,0,1-.93,4c-1.24,2.6-2.46,5.21-3.75,7.79q-4,8-8.09,16a9.42,9.42,0,0,0-1,3.18,2.13,2.13,0,0,0,2.61,2.57,8.06,8.06,0,0,0,3.53-1.51,26.56,26.56,0,0,0,8.13-9.39,57.66,57.66,0,0,0,2.85-7.18c1.87-4.9,3.76-9.79,5.89-14.58A2.86,2.86,0,0,1,92.25,22,24.76,24.76,0,0,1,99.05,20a10.73,10.73,0,0,1,4.47.38,2.06,2.06,0,0,1,1.56,1.83,11.14,11.14,0,0,1-.42,4.59,80.67,80.67,0,0,1-3,8.53c-2.19,5.56-4.93,10.84-7.51,16.21a14.6,14.6,0,0,0-1.2,5.64A4.87,4.87,0,0,0,93.31,59a15.81,15.81,0,0,0,1.38,2.91c.45.77.44.85-.33,1.3a12.69,12.69,0,0,1-1.84.93,35.53,35.53,0,0,1-11.2,2.28,6.69,6.69,0,0,1-1.79-.19c-1.74-.39-2.43-1.2-2.37-3a31.62,31.62,0,0,1,.59-5.13A1.63,1.63,0,0,0,77.75,57Z" fill="#ff8f1c"/><path d="M231.69,29.57c.9-.86,1.58-1.52,2.27-2.15a37.07,37.07,0,0,1,9.89-6.73,12.63,12.63,0,0,1,3.72-1c3.27-.33,5.62,1.26,7.52,3.69a11,11,0,0,1,2.4,6.54,9.89,9.89,0,0,1-.47,3.37c-2.41,7.7-6.64,14.58-9.86,21.92a14.1,14.1,0,0,0-1.07,3.17,2.63,2.63,0,0,0,.57,2.28c.6.73,1.21,1.45,1.87,2.23a2.87,2.87,0,0,1-1.16.75A24.92,24.92,0,0,1,235.2,66a11.41,11.41,0,0,1-3.18-.5c-2.35-.75-3.56-2.51-3.29-5.3a22.11,22.11,0,0,1,2.15-7,53.93,53.93,0,0,1,6.51-10.37,50.64,50.64,0,0,0,3.83-5.36,16.41,16.41,0,0,0,1.7-4.16,7.29,7.29,0,0,0,.14-1.8,1.6,1.6,0,0,0-1.52-1.66,1.68,1.68,0,0,0-.7.13,21.54,21.54,0,0,0-6.71,3.79,27.64,27.64,0,0,0-7.59,10.62,114,114,0,0,0-5.91,18.28c-.12.54-.25,1-.82,1.18A35.34,35.34,0,0,1,212.13,66a6.52,6.52,0,0,1-4.1-.8,3.46,3.46,0,0,1-1.83-4,75.5,75.5,0,0,1,2.89-9.77c2.71-7.75,5.47-15.48,8.17-23.23A25.39,25.39,0,0,0,219,21.72c0-.39.28-.47.6-.55a55,55,0,0,1,8.64-1.5c.34,0,.69,0,1,0,1.78.06,2.3.45,2.69,2.16a15.79,15.79,0,0,1-.08,6.67C231.86,28.74,231.81,29,231.69,29.57Z" fill="#ff8f1c"/><path d="M194,30.69a9.43,9.43,0,0,1,11.3-1.76c2.06,1.2,2.75,3.23,2.91,5.46a22.24,22.24,0,0,1-2,10.81,47.07,47.07,0,0,1-10.08,14.72A21.63,21.63,0,0,1,185.49,66a21,21,0,0,1-10.23-.23,11,11,0,0,1-8.2-8.9,23.25,23.25,0,0,1,0-8.72,35.12,35.12,0,0,1,5.51-14.46,35.51,35.51,0,0,1,11-10.5,27.85,27.85,0,0,1,9.88-3.92,14.39,14.39,0,0,1,6.9.37A11.19,11.19,0,0,1,207,25.41c-.36.3-.66.15-.94.11-6.59-.94-12.36.66-17.11,5.48a19.32,19.32,0,0,0-3.34,4.67A33.34,33.34,0,0,0,182,45.94a11.2,11.2,0,0,0,.38,6,5.78,5.78,0,0,0,3.07,3.33,3.53,3.53,0,0,0,2.76.1,12.2,12.2,0,0,0,6.12-5.12A17.71,17.71,0,0,0,197,41.72a24.47,24.47,0,0,0-.27-7.59C196.37,32.59,195.76,31.19,194,30.69Z" fill="#ff8f1c"/><path d="M133.56,37.74a22.87,22.87,0,0,0-.42-7,7.57,7.57,0,0,0-1-2.37,3.85,3.85,0,0,0-4.09-1.83,13.22,13.22,0,0,0-2.41.42,3.91,3.91,0,0,0-2.77,3.65A6.74,6.74,0,0,0,125.82,37c.41.31.83.61,1.27.88,1.52.87,3.06,1.71,4.58,2.57,3.85,2.19,6.16,5.46,5.86,10a13.31,13.31,0,0,1-3.45,7.78,23.8,23.8,0,0,1-14.66,8,23.16,23.16,0,0,1-10.24-.5,15,15,0,0,1-4-1.73,8.07,8.07,0,0,1-3.91-5.53,10.91,10.91,0,0,1,3.59-10.55c.5,0,.49.42.59.67,1.74,4.52,5.14,6.93,9.79,7.86a9.57,9.57,0,0,0,5.81-.58,5.92,5.92,0,0,0,2.12-1.44,3,3,0,0,0-.15-4.19,10,10,0,0,0-2.61-1.65c-3-1.52-6.09-3-9-4.73a9.27,9.27,0,0,1-3.17-2.8,7.72,7.72,0,0,1-1-6.42,18.58,18.58,0,0,1,7.37-10.74,27.13,27.13,0,0,1,18.76-5.17,11.76,11.76,0,0,1,9.15,5.13,6.12,6.12,0,0,1-.06,7.67,14,14,0,0,1-3.51,3.4A21.88,21.88,0,0,1,133.56,37.74Z" fill="#ff8f1c"/><path d="M159.56,62.7a11.72,11.72,0,0,1-7,3.65,20.12,20.12,0,0,1-6.05.11,6,6,0,0,1-5.56-5.79,21.22,21.22,0,0,1,.75-7.52A91.33,91.33,0,0,1,147,38.63c1.8-4.14,3.8-8.18,5.47-12.37a11.51,11.51,0,0,0,.92-3.08c0-.34.13-.57.48-.67,3.9-1.07,7.77-2.28,11.89-2.1a5.55,5.55,0,0,1,2.11.55,2.15,2.15,0,0,1,1.35,2.27,8.23,8.23,0,0,1-.37,1.76,99.68,99.68,0,0,1-3.71,9.89A145.63,145.63,0,0,0,159,51.33a20.44,20.44,0,0,0-.48,9.2A4.43,4.43,0,0,0,159.56,62.7Z" fill="#ff8f1c"/><path d="M173.85,7.47a9.12,9.12,0,0,1-4.78,7.62,12.41,12.41,0,0,1-8.35,1.43,4.55,4.55,0,0,1-4-4.55c-.17-3.76,1.68-6.42,4.76-8.27a11,11,0,0,1,7.84-1.35,5.16,5.16,0,0,1,4.07,2.84A5,5,0,0,1,173.85,7.47Z" fill="#ff8f1c"/><g style="isolation:isolate"><g style="isolation:isolate"><path d="M217.55,86.6V110H214.4V86.6h-6.2v-3h15.55v3Z" fill="#ff8f1c"/><path d="M238,110,230.4,98.85h-1.55V110H225.6V83.6h5.25c5,0,9.05,2.25,9.05,7.55a7.26,7.26,0,0,1-6.1,7.35l8,11.5Zm-8-23.45h-1.1V96.1h1.25c3.25,0,6.8-.65,6.8-4.8S233.1,86.55,230,86.55Z" fill="#ff8f1c"/><path d="M243.8,110V83.6h13.8v3H247.05V94h10.1v3h-10.1v10H257.6v3Z" fill="#ff8f1c"/><path d="M264,90.4V110h-3.2V82.35l18.95,20.7V83.65h3.2V111.1Z" fill="#ff8f1c"/><path d="M291.75,110H286.7V83.6h5.15c7.9,0,14.35,4.3,14.35,13.05C306.2,105.65,299.8,110,291.75,110Zm-.85-23.4h-1V107h1c6.5,0,12.1-2.55,12.1-10.2S297.4,86.6,290.9,86.6Z" fill="#ff8f1c"/></g></g></svg>