<svg xmlns="http://www.w3.org/2000/svg" width="317.08" height="145.93" viewBox="0 0 317.08 145.93"><g style="isolation:isolate"><g style="isolation:isolate"><path d="M246.24,145.93a6.48,6.48,0,0,1-6.56-5.88l2.6-.6a3.88,3.88,0,0,0,3.92,4,3.63,3.63,0,0,0,3.76-3.72c0-2.88-1.76-3.6-3.52-4.4l-1.4-.64c-2.32-1.08-4.44-2.4-4.44-5.35,0-3.4,2.76-5.44,5.88-5.44a5.85,5.85,0,0,1,5.44,3.16l-2,1.24a3.75,3.75,0,0,0-3.56-1.92,3,3,0,0,0-3.16,3c0,1.67,1.56,2.55,2.8,3l1.48.6c2.92,1.2,5.08,2.76,5.08,6.56A6.14,6.14,0,0,1,246.24,145.93Z" fill="#fff"/><path d="M260.44,126.78v18.71h-2.52V126.78h-5v-2.4H265.4v2.4Z" fill="#fff"/><path d="M276.12,145.93a10.67,10.67,0,0,1-10.64-11,10.65,10.65,0,1,1,21.28,0A10.67,10.67,0,0,1,276.12,145.93Zm0-19.51c-4.8,0-8.08,3.88-8.08,8.51a8.09,8.09,0,1,0,16.16,0C284.2,130.3,281,126.42,276.12,126.42Z" fill="#fff"/><path d="M298.72,145.49l-6-8.92h-1.24v8.92h-2.6V124.38H293c4,0,7.24,1.8,7.24,6a5.81,5.81,0,0,1-4.88,5.87l6.44,9.2Zm-6.4-18.75h-.88v7.63h1c2.6,0,5.44-.52,5.44-3.83S294.84,126.74,292.32,126.74Z" fill="#fff"/><path d="M310.48,136.25v9.24h-2.6v-9.24l-6.56-11.87h2.92l5,9.11,4.88-9.11h3Z" fill="#fff"/></g></g><path d="M68.44,58.47A25,25,0,0,0,63.59,53a18.57,18.57,0,0,0-9.93-4.59,37.74,37.74,0,0,0-5.31-.4A1.16,1.16,0,0,0,47,49a.49.49,0,0,0,0,.12q-1.8,8-3.66,16l-1.05,4.59a1.47,1.47,0,0,0,0,1.11,54,54,0,0,1,8.23-.9,33.38,33.38,0,0,1,8.46.7,5.42,5.42,0,0,1,4.54,5.5,21.47,21.47,0,0,1-2.26,9.6c-.44.22-.64-.08-.87-.24a15.88,15.88,0,0,0-8.86-2.83c-3.5-.09-7,0-10.51,0-1.52,0-1.49-.1-2,1.47-1.4,4.45-2.78,8.9-4.27,13.32A28.32,28.32,0,0,1,28,108.89a21.64,21.64,0,0,1-17.5,6.2,10.15,10.15,0,0,1-8.14-5A16.45,16.45,0,0,1,0,102.35c-.06-.76.18-1.13,1-1.16,3.51-.16,6.46-1.69,9.4-3.53a19.7,19.7,0,0,0,7.92-9.54c2.22-5.33,4.17-10.77,6.19-16.19,2.52-6.73,5.05-13.46,7.31-20.3a3,3,0,0,0,.3-1.33,3.25,3.25,0,0,0-1.9.42A21.05,21.05,0,0,0,19,60.77a11.59,11.59,0,0,0-1.31,5c-.08,1.62-.28,3.23-.25,4.86,0,1,0,1.06-1,1-4-.2-7.14-1.93-8.69-5.63-3-7.12-2-14.89,4.37-20.52,3.74-3.28,8.19-5.2,12.84-6.77a70.35,70.35,0,0,1,14.14-2.78,102.31,102.31,0,0,1,15.64-.84A45.68,45.68,0,0,1,66,36.59a14.65,14.65,0,0,1,7,3.88,8.65,8.65,0,0,1,1.93,9.7A20.63,20.63,0,0,1,68.44,58.47Z" fill="#fff"/><path d="M91.63,102.14,90,103.73a59.85,59.85,0,0,1-6.16,5.2,15.84,15.84,0,0,1-8.74,3.15,28.69,28.69,0,0,1-5.16.14c-3.79-.43-6.36-2.83-7.13-7a24.53,24.53,0,0,1,.78-11.13,88.56,88.56,0,0,1,4.6-12.22c2.39-5.37,5.09-10.6,7.28-16.06a18.55,18.55,0,0,0,1.39-4.49,1.05,1.05,0,0,1,.93-1,102,102,0,0,1,12.38-2.38,8.65,8.65,0,0,1,2.59,0A3.63,3.63,0,0,1,96,61.74a9.81,9.81,0,0,1-1.1,4.69c-1.46,3.07-2.9,6.14-4.41,9.18Q85.76,85.06,81,94.48a11.49,11.49,0,0,0-1.22,3.74c-.25,2.08,1,3.28,3.08,3A9.37,9.37,0,0,0,87,99.47a31.14,31.14,0,0,0,9.58-11.06,67.22,67.22,0,0,0,3.36-8.47c2.2-5.77,4.43-11.53,6.94-17.18a3.33,3.33,0,0,1,1.86-1.84,29,29,0,0,1,8-2.3,12.47,12.47,0,0,1,5.26.45,2.39,2.39,0,0,1,1.84,2.15,13,13,0,0,1-.49,5.41,93.54,93.54,0,0,1-3.54,10.05c-2.58,6.55-5.81,12.78-8.85,19.1a17.1,17.1,0,0,0-1.41,6.65,5.69,5.69,0,0,0,.43,2.08,18.26,18.26,0,0,0,1.63,3.43c.53.91.51,1-.39,1.54a14.68,14.68,0,0,1-2.17,1.09,42.07,42.07,0,0,1-13.2,2.69,7.9,7.9,0,0,1-2.11-.23c-2-.45-2.86-1.42-2.79-3.53a36,36,0,0,1,.69-6A1.87,1.87,0,0,0,91.63,102.14Z" fill="#fff"/><path d="M273,69.89c1.07-1,1.86-1.8,2.68-2.54a43.45,43.45,0,0,1,11.65-7.93,14.57,14.57,0,0,1,4.38-1.21c3.86-.4,6.63,1.48,8.86,4.34a12.9,12.9,0,0,1,2.84,7.7,12.26,12.26,0,0,1-.55,4c-2.85,9.07-7.83,17.18-11.63,25.82a16.87,16.87,0,0,0-1.25,3.73,3.07,3.07,0,0,0,.66,2.7c.71.86,1.43,1.7,2.21,2.63a3.33,3.33,0,0,1-1.37.88,29.31,29.31,0,0,1-14.34,2.75,13.28,13.28,0,0,1-3.75-.58c-2.77-.88-4.2-3-3.87-6.25a26,26,0,0,1,2.53-8.26,63.51,63.51,0,0,1,7.67-12.22,57,57,0,0,0,4.51-6.31,19.09,19.09,0,0,0,2-4.91,8.41,8.41,0,0,0,.18-2.12,1.88,1.88,0,0,0-1.8-1.95,2,2,0,0,0-.83.15,26,26,0,0,0-7.9,4.46A32.55,32.55,0,0,0,267,87.28a132.61,132.61,0,0,0-7,21.54c-.15.64-.3,1.14-1,1.39a41.19,41.19,0,0,1-9,2.6,7.65,7.65,0,0,1-4.84-.94,4.05,4.05,0,0,1-2.15-4.74,88.5,88.5,0,0,1,3.4-11.52c3.19-9.13,6.45-18.24,9.63-27.38a29.53,29.53,0,0,0,2.07-7.6c0-.46.34-.55.71-.64A62.67,62.67,0,0,1,269,58.22c.41,0,.81,0,1.22,0,2.1.07,2.7.53,3.16,2.55a18.55,18.55,0,0,1-.09,7.85Z" fill="#fff"/><path d="M228.63,71.2A11.11,11.11,0,0,1,242,69.12c2.42,1.42,3.24,3.81,3.43,6.44A26.19,26.19,0,0,1,243,88.29a55.36,55.36,0,0,1-11.89,17.36c-3.54,3.44-7.58,6.13-12.51,7.16a24.7,24.7,0,0,1-12.05-.28,13,13,0,0,1-9.66-10.48,27.55,27.55,0,0,1,.05-10.28,41.32,41.32,0,0,1,6.49-17,42.13,42.13,0,0,1,13-12.37,32.92,32.92,0,0,1,11.64-4.62,17,17,0,0,1,8.13.45A13.14,13.14,0,0,1,244,65c-.42.36-.77.18-1.1.13-7.77-1.11-14.57.78-20.17,6.46a23,23,0,0,0-3.94,5.5,39.56,39.56,0,0,0-4.35,12.11,13.32,13.32,0,0,0,.45,7,6.88,6.88,0,0,0,3.61,3.93,4.19,4.19,0,0,0,3.26.12,14.45,14.45,0,0,0,7.22-6,21,21,0,0,0,3.21-10,29.14,29.14,0,0,0-.33-8.94C231.41,73.43,230.68,71.79,228.63,71.2Z" fill="#fff"/><path d="M157.4,79.51a27.22,27.22,0,0,0-.5-8.25,8.93,8.93,0,0,0-1.16-2.8,4.5,4.5,0,0,0-4.81-2.15,15.21,15.21,0,0,0-2.84.49,4.63,4.63,0,0,0-3.28,4.31,8,8,0,0,0,3.46,7.5,17.29,17.29,0,0,0,1.5,1c1.79,1,3.6,2,5.39,3,4.54,2.58,7.26,6.43,6.91,11.72a15.68,15.68,0,0,1-4.07,9.17A28,28,0,0,1,140.73,113a27.3,27.3,0,0,1-12.06-.59,17.73,17.73,0,0,1-4.73-2,9.46,9.46,0,0,1-4.6-6.51,12.85,12.85,0,0,1,4.23-12.44c.58,0,.57.5.69.79,2,5.32,6.06,8.17,11.54,9.26a11.16,11.16,0,0,0,6.84-.68,7,7,0,0,0,2.5-1.7,3.5,3.5,0,0,0-.17-4.94,11.77,11.77,0,0,0-3.08-1.94c-3.59-1.8-7.17-3.58-10.65-5.58a10.76,10.76,0,0,1-3.74-3.29,9.06,9.06,0,0,1-1.21-7.57A21.81,21.81,0,0,1,135,63.1a31.93,31.93,0,0,1,22.1-6.1,13.85,13.85,0,0,1,10.78,6,7.22,7.22,0,0,1-.07,9,16.74,16.74,0,0,1-4.14,4A26.2,26.2,0,0,1,157.4,79.51Z" fill="#fff"/><path d="M188,108.92a13.89,13.89,0,0,1-8.3,4.3,23.93,23.93,0,0,1-7.12.13c-3.91-.6-6.12-2.87-6.56-6.82a25.29,25.29,0,0,1,.89-8.87,108.35,108.35,0,0,1,6.23-17.11c2.12-4.87,4.48-9.64,6.45-14.58a13.45,13.45,0,0,0,1.08-3.63c0-.4.16-.67.57-.78,4.59-1.27,9.15-2.69,14-2.48a6.28,6.28,0,0,1,2.48.64,2.54,2.54,0,0,1,1.6,2.68,9.77,9.77,0,0,1-.43,2.07,118.54,118.54,0,0,1-4.38,11.66c-2.62,6.38-5.37,12.72-7.21,19.38a24.08,24.08,0,0,0-.56,10.84A5.09,5.09,0,0,0,188,108.92Z" fill="#fff"/><path d="M204.88,43.84a10.77,10.77,0,0,1-5.65,9,14.62,14.62,0,0,1-9.84,1.7,5.38,5.38,0,0,1-4.67-5.38c-.2-4.43,2-7.56,5.61-9.73a13,13,0,0,1,9.24-1.6,6.11,6.11,0,0,1,4.79,3.34A6,6,0,0,1,204.88,43.84Z" fill="#fff"/><path d="M61.84,26.47h6.9V3.39H74.3V1h-19V3.42h6.4Z" fill="#fff"/><path d="M83.73,26.31h6.91V3.23H96.2V.87h-19V3.25h6.4Z" fill="#fff"/><path d="M40.81,0A13.91,13.91,0,1,0,54.62,14v-.09A13.87,13.87,0,0,0,40.81,0Zm-.3,24.81c-4.1,0-7.41-4.88-7.41-10.9S36.41,3,40.51,3s7.41,4.88,7.41,10.9-3.32,10.9-7.41,10.9Z" fill="#fff"/><path d="M112.65.64h-5.39L96.81,26.14h2.76l3.08-7.3,10.56,0,3,7.44h7.38ZM103.44,16l4.13-10,4.3,10Z" fill="#fff"/><path d="M14.78,1.13V12.78H7.45V1H.32V26.88H7.64v-12h7.14V26.69h7.33V1.13Z" fill="#fff"/></svg>