<svg xmlns="http://www.w3.org/2000/svg" width="274.9" height="108.51" viewBox="0 0 274.9 108.51"><path d="M75.48,60.37a21.61,21.61,0,0,0-4.12-4.63,15.84,15.84,0,0,0-8.43-3.9,32.23,32.23,0,0,0-4.5-.34,1,1,0,0,0-1.14.79s0,.07,0,.1q-1.53,6.8-3.1,13.59c-.3,1.29-.6,2.59-.89,3.89a1.27,1.27,0,0,0,0,.94,45.55,45.55,0,0,1,7-.75,27.92,27.92,0,0,1,7.18.58,4.61,4.61,0,0,1,3.85,4.67,18.14,18.14,0,0,1-1.91,8.15c-.38.19-.55-.07-.74-.21a13.48,13.48,0,0,0-7.52-2.4c-3-.07-6,0-8.92,0-1.29,0-1.27-.09-1.69,1.25-1.18,3.78-2.36,7.56-3.62,11.31a24,24,0,0,1-5.68,9.72,18.33,18.33,0,0,1-14.86,5.26,8.62,8.62,0,0,1-6.9-4.21,13.9,13.9,0,0,1-2-6.59c-.05-.65.15-1,.83-1,3-.14,5.48-1.43,8-3A16.78,16.78,0,0,0,33,85.53c1.88-4.53,3.53-9.15,5.24-13.74,2.14-5.72,4.29-11.43,6.2-17.23a2.6,2.6,0,0,0,.26-1.13,2.75,2.75,0,0,0-1.61.36,17.83,17.83,0,0,0-9.5,8.53,9.8,9.8,0,0,0-1.11,4.2c-.07,1.38-.24,2.75-.22,4.13,0,.85,0,.9-.84.86C28,71.35,25.31,69.88,24,66.73c-2.52-6-1.74-12.63,3.71-17.41a31.21,31.21,0,0,1,10.9-5.74,59.14,59.14,0,0,1,12-2.36,86.55,86.55,0,0,1,13.27-.71,38.71,38.71,0,0,1,9.57,1.29,12.41,12.41,0,0,1,5.9,3.29A7.35,7.35,0,0,1,81,53.32,17.46,17.46,0,0,1,75.48,60.37Z" fill="#ff8f1c"/><path d="M95.15,97.43l-1.4,1.35a51.34,51.34,0,0,1-5.23,4.42,13.45,13.45,0,0,1-7.41,2.67,24.64,24.64,0,0,1-4.38.11c-3.21-.36-5.4-2.4-6-5.93a20.82,20.82,0,0,1,.66-9.44,74.8,74.8,0,0,1,3.9-10.37c2-4.56,4.32-9,6.18-13.63A16,16,0,0,0,82.6,62.8a.89.89,0,0,1,.79-.86,87.38,87.38,0,0,1,10.51-2,7.31,7.31,0,0,1,2.19,0,3.08,3.08,0,0,1,2.78,3.2,8.36,8.36,0,0,1-.94,4c-1.23,2.6-2.45,5.21-3.74,7.78q-4,8-8.1,16a9.59,9.59,0,0,0-1,3.17,2.12,2.12,0,0,0,1.53,2.58,2.08,2.08,0,0,0,1.08,0,7.9,7.9,0,0,0,3.53-1.51,26.43,26.43,0,0,0,8.13-9.38,57.8,57.8,0,0,0,2.85-7.19c1.87-4.9,3.76-9.78,5.89-14.58a2.82,2.82,0,0,1,1.58-1.56,24.78,24.78,0,0,1,6.8-2,10.57,10.57,0,0,1,4.47.39,2,2,0,0,1,1.56,1.82,11.18,11.18,0,0,1-.42,4.6,80.5,80.5,0,0,1-3,8.52c-2.18,5.56-4.93,10.84-7.51,16.21a14.61,14.61,0,0,0-1.2,5.65,5.08,5.08,0,0,0,.37,1.76,15.81,15.81,0,0,0,1.38,2.91c.45.78.44.85-.33,1.31a12.69,12.69,0,0,1-1.84.93,35.8,35.8,0,0,1-11.2,2.27,6.34,6.34,0,0,1-1.79-.19c-1.74-.38-2.43-1.2-2.36-3a30.41,30.41,0,0,1,.58-5.12A1.66,1.66,0,0,0,95.15,97.43Z" fill="#ff8f1c"/><path d="M249.1,70.06c.9-.86,1.57-1.52,2.26-2.15a37.1,37.1,0,0,1,9.89-6.74,12.32,12.32,0,0,1,3.72-1c3.27-.34,5.62,1.26,7.52,3.69a10.87,10.87,0,0,1,2.4,6.53,10,10,0,0,1-.47,3.38c-2.41,7.7-6.64,14.58-9.86,21.91a14.8,14.8,0,0,0-1.07,3.17,2.64,2.64,0,0,0,.57,2.29c.6.73,1.21,1.44,1.87,2.22a2.68,2.68,0,0,1-1.16.75,24.79,24.79,0,0,1-12.17,2.34,11.4,11.4,0,0,1-3.18-.49c-2.35-.75-3.56-2.52-3.28-5.31a22,22,0,0,1,2.14-7,53.7,53.7,0,0,1,6.51-10.38,49.12,49.12,0,0,0,3.83-5.35,16.26,16.26,0,0,0,1.7-4.17,7.77,7.77,0,0,0,.15-1.8,1.59,1.59,0,0,0-1.53-1.65,1.53,1.53,0,0,0-.7.13,21.83,21.83,0,0,0-6.71,3.78A27.55,27.55,0,0,0,244,84.82,111.68,111.68,0,0,0,238,103.1c-.13.53-.25,1-.83,1.17a34.79,34.79,0,0,1-7.68,2.21,6.52,6.52,0,0,1-4.1-.8,3.45,3.45,0,0,1-1.83-4,73.56,73.56,0,0,1,2.9-9.77c2.7-7.76,5.47-15.49,8.16-23.24a24.88,24.88,0,0,0,1.76-6.45c0-.39.29-.47.6-.54a53,53,0,0,1,8.64-1.5,7.22,7.22,0,0,1,1,0c1.78.05,2.29.44,2.68,2.16a15.91,15.91,0,0,1-.07,6.66Z" fill="#ff8f1c"/><path d="M211.41,71.18a9.43,9.43,0,0,1,11.3-1.77c2.06,1.21,2.75,3.24,2.91,5.46a22.22,22.22,0,0,1-2,10.81,47,47,0,0,1-10.08,14.73,21.65,21.65,0,0,1-10.62,6.07,21,21,0,0,1-10.23-.23,11,11,0,0,1-8.2-8.89,23.3,23.3,0,0,1,0-8.73A35,35,0,0,1,190,74.17a35.62,35.62,0,0,1,11.05-10.5,27.85,27.85,0,0,1,9.88-3.92,14.52,14.52,0,0,1,6.9.38,11.14,11.14,0,0,1,6.59,5.76c-.36.31-.65.15-.93.11-6.6-.94-12.37.66-17.12,5.48A20,20,0,0,0,203,76.15a33.56,33.56,0,0,0-3.69,10.28,11.26,11.26,0,0,0,.38,6,5.83,5.83,0,0,0,3.07,3.34,3.57,3.57,0,0,0,2.76.1,12.28,12.28,0,0,0,6.13-5.13,17.89,17.89,0,0,0,2.72-8.52,24.41,24.41,0,0,0-.28-7.58C213.77,73.07,213.16,71.67,211.41,71.18Z" fill="#ff8f1c"/><path d="M151,78.23a22.87,22.87,0,0,0-.42-7,7.63,7.63,0,0,0-1-2.38A3.84,3.84,0,0,0,145.48,67a13.8,13.8,0,0,0-2.41.42,3.93,3.93,0,0,0-2.78,3.66,6.73,6.73,0,0,0,2.93,6.36,12.61,12.61,0,0,0,1.28.88c1.51.87,3.05,1.71,4.57,2.58,3.85,2.19,6.16,5.46,5.86,9.94a13.31,13.31,0,0,1-3.45,7.78,23.81,23.81,0,0,1-14.66,8,23.47,23.47,0,0,1-10.24-.5,15.19,15.19,0,0,1-4-1.74,8.07,8.07,0,0,1-3.91-5.52,11,11,0,0,1,3.59-10.56c.5,0,.49.42.59.67,1.74,4.52,5.15,6.94,9.79,7.86a9.5,9.5,0,0,0,5.81-.58,5.92,5.92,0,0,0,2.12-1.44,3,3,0,0,0-.15-4.19A10,10,0,0,0,137.8,89c-3-1.52-6.09-3-9-4.73a9.24,9.24,0,0,1-3.17-2.79,7.75,7.75,0,0,1-1-6.43,18.56,18.56,0,0,1,7.37-10.73,27.13,27.13,0,0,1,18.76-5.18,11.75,11.75,0,0,1,9.15,5.13,6.12,6.12,0,0,1-.06,7.67,14,14,0,0,1-3.51,3.4A21.92,21.92,0,0,1,151,78.23Z" fill="#ff8f1c"/><path d="M177,103.18a11.72,11.72,0,0,1-7,3.65,20.39,20.39,0,0,1-6,.12,6,6,0,0,1-5.57-5.79,21.25,21.25,0,0,1,.75-7.53,91.69,91.69,0,0,1,5.29-14.52c1.8-4.13,3.8-8.18,5.47-12.37a11.4,11.4,0,0,0,.92-3.08c0-.33.13-.57.48-.66,3.9-1.08,7.77-2.28,11.89-2.1a5.36,5.36,0,0,1,2.11.54,2.15,2.15,0,0,1,1.35,2.27,8.09,8.09,0,0,1-.36,1.76,102.31,102.31,0,0,1-3.72,9.89,146.35,146.35,0,0,0-6.12,16.45,20.3,20.3,0,0,0-.47,9.2A4.35,4.35,0,0,0,177,103.18Z" fill="#ff8f1c"/><path d="M191.26,48a9.14,9.14,0,0,1-4.79,7.62A12.41,12.41,0,0,1,178.12,57a4.56,4.56,0,0,1-4-4.56c-.17-3.76,1.68-6.42,4.76-8.26a11.06,11.06,0,0,1,7.85-1.36,5.19,5.19,0,0,1,4.06,2.84A5.13,5.13,0,0,1,191.26,48Z" fill="#ff8f1c"/><g style="isolation:isolate"><g style="isolation:isolate"><path d="M0,27.5V1.1H3.2V27.5Z" fill="#ff8f1c"/><path d="M39.65,27.5,36.7,20.9H25.15l-2.9,6.6H18.8L31,0l12,27.5ZM31,7.2,26.5,18h8.9Z" fill="#ff8f1c"/><path d="M67.5,27.5,64.6,10l-7.75,18.1L49.1,10l-3,17.5H42.8L48.05,0l8.8,20.8L65.6,0l5.2,27.5Z" fill="#ff8f1c"/></g></g></svg>