<?xml version="1.0" encoding="utf-8"?>
<!-- Generator: Adobe Illustrator 25.3.1, SVG Export Plug-In . SVG Version: 6.00 Build 0)  -->
<svg version="1.1" id="Layer_1" xmlns="http://www.w3.org/2000/svg" xmlns:xlink="http://www.w3.org/1999/xlink" x="0px" y="0px"
	 viewBox="0 0 50 50" style="enable-background:new 0 0 50 50;" xml:space="preserve">
<style type="text/css">
	.st0{fill:#FFFFFF;}
</style>
<path class="st0" d="M46,14.5c-0.5-1.9-2-3.3-3.8-3.8c-3.4-0.9-17-0.9-17-0.9s-13.6,0-17,0.9c-1.9,0.5-3.3,2-3.8,3.9
	c-1,3.4-1,10.5-1,10.5s0,7.1,0.9,10.5c0.5,1.9,2,3.3,3.8,3.8c3.4,0.9,17,0.9,17,0.9s13.6,0,17-0.9c1.9-0.5,3.4-1.9,3.9-3.8
	c0.9-3.4,0.9-10.5,0.9-10.5S46.9,17.9,46,14.5z M20.8,31.5v-13L32.1,25L20.8,31.5z"/>
</svg>
