<svg xmlns="http://www.w3.org/2000/svg" width="127.71" height="203.89" viewBox="0 0 127.71 203.89"><path d="M127.71,104.27A48.49,48.49,0,0,0,123,83.2a53.32,53.32,0,0,1-2.62-40.47c.92-2.7,2.37-5.36.52-7.94a5,5,0,0,0-4-2.07H92.05l2-9.63a5.78,5.78,0,0,1,2.42-3.63L117,5.5A3,3,0,1,0,113.64.57h0L93.13,14.45a11.69,11.69,0,0,0-4.92,7.36L86,32.68H55.42l15-14.95a4.63,4.63,0,0,0,0-6.56L70.3,11a41.9,41.9,0,0,0-58,1.28h0a41.73,41.73,0,0,0-1.27,57.89,4.68,4.68,0,0,0,3.31,1.49h.1a4.74,4.74,0,0,0,3.29-1.38l19.5-19.47a53.74,53.74,0,0,1-4.19,32.86,49.05,49.05,0,0,0-2.82,7.71A3,3,0,0,0,36,93a43.19,43.19,0,0,1,2.47-6.77,59.36,59.36,0,0,0,3.29-42c-.4-1.38-1.37-4.13-1.82-5.51,1.16-.28,43.56.3,44.81,0L80.12,61.25A45.18,45.18,0,0,1,70.49,65,33.44,33.44,0,0,1,55.56,65a5,5,0,0,0-5.91,3.81c0,.13,0,.27-.07.4a67.27,67.27,0,0,1-5.7,19.58,36.58,36.58,0,0,0-3.44,15.54,37.64,37.64,0,0,0,75.28,0,36.59,36.59,0,0,0-3.59-15.93c-.73-1.52-1.41-3.09-2-4.66a3,3,0,1,0-5.56,2.17c.69,1.71,1.38,3.44,2.2,5.07a30.55,30.55,0,0,1,3,13.35,31.67,31.67,0,0,1-63.34,0,30.85,30.85,0,0,1,2.86-13A73.14,73.14,0,0,0,55.33,71a39.44,39.44,0,0,0,16.51-.19,38.62,38.62,0,0,0,6.75-2.29L70.2,109.32a3,3,0,0,0,2.32,3.52h0a2.46,2.46,0,0,0,.6.07,3,3,0,0,0,2.93-2.39l9.27-45.08a31.67,31.67,0,0,1,8.48-2.37,34.42,34.42,0,0,1,5.83-.29,71.84,71.84,0,0,0,1,9.12,3,3,0,1,0,5.88-1h0a65.94,65.94,0,0,1-.94-9.2,4.94,4.94,0,0,0-4.71-4.81,42.17,42.17,0,0,0-7.86.29,37.21,37.21,0,0,0-6.26,1.38l4.07-19.85h24.55l-.73,2.11a59.3,59.3,0,0,0,2.89,45,42.62,42.62,0,0,1,4.17,18.5,43.7,43.7,0,0,1-73.91,31.12A42.92,42.92,0,0,1,34.5,105.91a3,3,0,1,0-6,.23,48.87,48.87,0,0,0,15.13,33.55,49.55,49.55,0,0,0,25.46,13v32.55a1.4,1.4,0,0,1-.78,1.25L51,195.22A4.58,4.58,0,0,0,53,203.89h50.11a4.58,4.58,0,0,0,2.06-8.67l-17.38-8.73a1.37,1.37,0,0,1-.77-1.25V152.71a49.43,49.43,0,0,0,40.63-48.42ZM14.52,18.72,33.21,37.37l.19.57-26.74-3A35.82,35.82,0,0,1,14.52,18.72Zm0,46.39A35.67,35.67,0,0,1,6,40.88l29.48,3.31ZM37,32.71,18.74,14.51A35.92,35.92,0,0,1,35,6.67l2.93,26.05H37Zm10,0H44L40.94,6a35.84,35.84,0,0,1,24.28,8.5ZM97.26,197.92H58.91L71,191.82a7.31,7.31,0,0,0,4.06-6.58V153.39c1,.07,2,.09,3,.09s2,0,3-.09v31.85a7.31,7.31,0,0,0,4.06,6.58Z" fill="#ff8f1c"/></svg>