<svg xmlns="http://www.w3.org/2000/svg" width="50" height="50" viewBox="0 0 50 50"><path d="M46.27,11.81a18.55,18.55,0,0,1-5,1.38,8.69,8.69,0,0,0,3.84-4.82,17.62,17.62,0,0,1-5.53,2.11,8.72,8.72,0,0,0-15.08,6,8.62,8.62,0,0,0,.2,2,24.69,24.69,0,0,1-18-9.12A8.73,8.73,0,0,0,9.37,21a8.56,8.56,0,0,1-3.94-1.07V20a8.75,8.75,0,0,0,7,8.56,8.45,8.45,0,0,1-2.29.29,7.51,7.51,0,0,1-1.65-.15,8.8,8.8,0,0,0,8.15,6.08A17.52,17.52,0,0,1,5.82,38.49a16,16,0,0,1-2.09-.12,24.55,24.55,0,0,0,13.38,3.91c16,0,24.82-13.29,24.82-24.81,0-.39,0-.76,0-1.13A17.44,17.44,0,0,0,46.27,11.81Z" fill="#ff8f1c"/></svg>