<svg xmlns="http://www.w3.org/2000/svg" width="50" height="50" viewBox="0 0 50 50"><path d="M45.18,20.5h0v-.11h0L45.12,20l0-.27v-.08h0a15.33,15.33,0,0,0-4-7.76A20.08,20.08,0,0,0,33.23,6.7,23.88,23.88,0,0,0,25,5.25,23.12,23.12,0,0,0,14.14,7.88c-6.23,3.31-9.91,9.4-9.36,15.51a15.92,15.92,0,0,0,3.58,8.7A19.35,19.35,0,0,0,16,37.65a29.41,29.41,0,0,0,5.64,1.52l.23,0c.54.11.68.26.72.31a.73.73,0,0,1,0,.44c0,.11-.06.21-.08.32A6.39,6.39,0,0,0,22.21,43a1.9,1.9,0,0,0,1.92,1.76h0a7,7,0,0,0,3.17-1.23l.11-.06c2-1.16,3.84-2.47,5.24-3.48,3.06-2.21,6.53-4.72,9.14-8A15.71,15.71,0,0,0,45.18,20.5ZM17.35,26.68h-3.5a1,1,0,0,1-.95-1V18.38a1,1,0,1,1,1.91,0v6.39h2.54a1,1,0,1,1,0,1.91Zm3.65-1a1,1,0,1,1-1.91,0V18.35a1,1,0,0,1,1.91,0Zm8.66,0a1,1,0,0,1-.67.91.93.93,0,0,1-.29.05,1,1,0,0,1-.78-.4l-3.44-4.75V25.7a1,1,0,0,1-1.92,0V18.56A1,1,0,0,1,24.29,18l3.45,4.75v-4.4a1,1,0,0,1,1.92,0Zm7,.81H31.89a1,1,0,0,1-.95-1V18.2a1,1,0,0,1,.95-.95h4.59a1,1,0,1,1,0,1.91H32.85v1.76H35.8a1,1,0,1,1,0,1.91H32.85v1.76h3.78a1,1,0,0,1,0,1.92Z" fill="#ff8f1c"/></svg>