<?xml version="1.0" encoding="utf-8"?>
<!-- Generator: Adobe Illustrator 25.3.1, SVG Export Plug-In . SVG Version: 6.00 Build 0)  -->
<svg version="1.1" id="Layer_1" xmlns="http://www.w3.org/2000/svg" xmlns:xlink="http://www.w3.org/1999/xlink" x="0px" y="0px"
	 viewBox="0 0 50 50" style="enable-background:new 0 0 50 50;" xml:space="preserve">
<style type="text/css">
	.st0{fill:#FFFFFF;}
</style>
<path class="st0" d="M45.2,20.5L45.2,20.5v-0.1l0,0L45.1,20v-0.3v-0.1l0,0c-0.6-2.9-1.9-5.6-4-7.8c-2.2-2.3-4.9-4.1-7.9-5.2
	c-2.6-1-5.4-1.5-8.2-1.4c-3.8,0-7.5,0.9-10.9,2.6c-6.2,3.3-9.9,9.4-9.4,15.5c0.3,3.2,1.5,6.2,3.6,8.7c2,2.5,4.7,4.4,7.6,5.6
	c1.8,0.7,3.7,1.2,5.6,1.5h0.2c0.5,0.1,0.7,0.3,0.7,0.3c0,0.1,0,0.3,0,0.4c0,0.1-0.1,0.2-0.1,0.3c-0.3,0.9-0.4,1.8-0.3,2.8
	c0.1,1,0.9,1.8,1.9,1.8l0,0c1.1-0.1,2.2-0.6,3.2-1.2l0.1-0.1c2-1.2,3.8-2.5,5.2-3.5c3.1-2.2,6.5-4.7,9.1-8
	C44.4,28.8,45.6,24.6,45.2,20.5z M17.4,26.7h-3.5c-0.5,0-1-0.5-0.9-1v-7.3c-0.2-0.5,0.1-1.1,0.7-1.3s1.1,0.1,1.3,0.7
	c0.1,0.2,0.1,0.4,0,0.6v6.4h2.5c0.5-0.2,1.1,0.1,1.3,0.7s-0.1,1.1-0.7,1.3C17.8,26.7,17.5,26.7,17.4,26.7z M21,25.7
	c0.2,0.5-0.1,1.1-0.7,1.3s-1.1-0.1-1.3-0.7c-0.1-0.2-0.1-0.4,0-0.6v-7.3c0.2-0.5,0.7-0.8,1.3-0.7c0.3,0.1,0.6,0.3,0.7,0.7V25.7z
	 M29.7,25.7c0,0.4-0.3,0.8-0.7,0.9c-0.1,0-0.2,0-0.3,0c-0.3,0-0.6-0.2-0.8-0.4l-3.4-4.8v4.2c-0.2,0.5-0.7,0.8-1.2,0.7
	c-0.3-0.1-0.6-0.4-0.7-0.7v-7.1c0.1-0.5,0.6-0.9,1.1-0.9c0.2,0,0.5,0.1,0.6,0.3l3.5,4.8v-4.4c0.2-0.5,0.7-0.8,1.2-0.7
	c0.3,0.1,0.6,0.4,0.7,0.7L29.7,25.7z M36.7,26.5h-4.8c-0.5,0-1-0.5-1-1v-7.3c0-0.5,0.4-0.9,1-1h4.6c0.5-0.2,1.1,0.1,1.3,0.7
	s-0.1,1.1-0.7,1.3c-0.2,0.1-0.4,0.1-0.6,0h-3.6v1.8h3c0.5-0.2,1.1,0.1,1.3,0.7s-0.1,1.1-0.7,1.3c-0.2,0.1-0.4,0.1-0.6,0h-3v1.8h3.8
	c0.5,0.2,0.8,0.7,0.7,1.2C37.2,26.2,37,26.4,36.7,26.5L36.7,26.5z"/>
</svg>
