<svg xmlns="http://www.w3.org/2000/svg" xmlns:xlink="http://www.w3.org/1999/xlink" width="1295.53" height="276.63" viewBox="0 0 1295.53 276.63"><defs><clipPath id="a"><rect width="1295.53" height="276.63" fill="none"/></clipPath></defs><g clip-path="url(#a)"><path d="M1295.84,461.43H.8V-1.09H1295.85V461.43Zm0-1757.56H.8v-223.55h1295v223.55Z" fill="#fff"/><path d="M109.19,131.75a4.59,4.59,0,0,1-3.38-1.42L80,104.77a12.93,12.93,0,0,1-1.19-1.15c-.51-.54-1.33-1.52-2.43-2.94a40.89,40.89,0,0,1-3-4.39A29.21,29.21,0,0,1,71,90.72a21.67,21.67,0,0,1-1.07-6.53,20.35,20.35,0,0,1,22-22.07,18.25,18.25,0,0,1,5.95,1,23.58,23.58,0,0,1,5.49,2.71c1.59,1.08,3,2.09,4.12,3,.6.49,1.19,1,1.76,1.54.57-.53,1.17-1,1.78-1.54,1.15-.94,2.52-2,4.11-3a23.58,23.58,0,0,1,5.49-2.71,18.56,18.56,0,0,1,6-1,20.38,20.38,0,0,1,22,22.07c0,6.82-3.4,13.77-10.1,20.65l-25.84,25.53A4.63,4.63,0,0,1,109.19,131.75Z" fill="#ff0b0b"/><g style="isolation:isolate"><g style="isolation:isolate"><path d="M211.07,240.16V210.05h1.83v28.4h7.58v1.71Z" fill="#383838"/><path d="M224.81,217.81a1.66,1.66,0,1,1,1.6-1.66A1.65,1.65,0,0,1,224.81,217.81Zm-.91,22.35V221.74h1.71v18.42Z" fill="#383838"/><path d="M243.4,240.16l-8.84-9.47-1,1.15v8.32h-1.71V208.39h1.71v21l7.36-7.64h2.28l-7.47,7.81,10,10.61Z" fill="#383838"/><path d="M247,231.09c0,4.8,3.08,7.82,7.19,7.82,2.74,0,4.9-1.54,6.27-4.17l1.48.86a8.66,8.66,0,0,1-8,5c-5.3,0-8.73-4.45-8.73-9.64s3.48-9.58,8.73-9.58,8.61,4.28,8.73,9.75Zm7-8.1a7.2,7.2,0,0,0-7,6.45h13.8C260.22,225.79,257.59,223,254.06,223Z" fill="#383838"/><path d="M280.34,240.16V236.8a8.37,8.37,0,0,1-6.9,3.76c-5.47,0-8.9-4.33-8.9-9.75s3.43-9.47,8.84-9.47a8.18,8.18,0,0,1,7,3.77V208.39h1.71v31.77ZM273.27,223c-4.11,0-7,3.83-7,7.82,0,4.22,2.74,8.15,7.07,8.15,4.57,0,7.07-3.93,7.07-8.32S277.6,223,273.27,223Z" fill="#383838"/><path d="M310.44,240.56a8.31,8.31,0,0,1-7-3.82v3.42h-1.71V208.39h1.71v16.55a8.51,8.51,0,0,1,7-3.6c5.36,0,8.79,4.11,8.79,9.47S315.85,240.56,310.44,240.56Zm.11-17.57c-4.56,0-7.13,3.48-7.13,7.87s2.63,8.1,7.07,8.1,7-3.93,7-8.15C317.51,226.82,314.66,223,310.55,223Z" fill="#383838"/><path d="M325.83,250.94h-1.77l4.22-10.38-8.56-18.82h1.83l7.7,16.71L336,221.74h1.77Z" fill="#383838"/><path d="M373.78,240.16V224.77H356.55v15.39h-1.82V210.05h1.82v12.89h17.23V210.05h1.82v30.11Z" fill="#383838"/><path d="M394.81,240.56A15.46,15.46,0,1,1,410,225.11,15.41,15.41,0,0,1,394.81,240.56Zm0-29.14a13.61,13.61,0,0,0-13.29,13.69c0,7.41,6,13.74,13.29,13.74s13.28-6.33,13.28-13.74S402.05,211.42,394.81,211.42Z" fill="#383838"/><path d="M420.51,211.82v28.34h-1.82V211.82H411.1v-1.77h17v1.77Z" fill="#383838"/><path d="M439.21,211.82v28.34h-1.82V211.82H429.8v-1.77h17v1.77Z" fill="#383838"/><path d="M466.47,240.16l-3.94-9.92H449.7l-3.88,9.92h-1.94l12.32-31.08,12.15,31.08Zm-10.33-26.57-5.76,14.88h11.47Z" fill="#383838"/><path d="M499.41,240.16V236.8a8.21,8.21,0,0,1-6.9,3.76c-5.47,0-8.89-4.33-8.89-9.75s3.42-9.47,8.83-9.47a8,8,0,0,1,7,3.82v-3.42h1.71v18.42ZM492.34,223c-4.11,0-7,3.83-7,7.82,0,4.22,2.74,8.1,7.07,8.1,4.57,0,7.08-3.88,7.08-8.27S496.68,223,492.34,223Z" fill="#383838"/><path d="M517.82,240.16V228.93c0-3.2-.39-6-4.27-6-4.51,0-5.31,4.39-5.31,8.1v9.12h-1.71V221.74h1.71v2.8a6.25,6.25,0,0,1,5.48-3.2c4,0,5.82,2.22,5.82,7v11.8Z" fill="#383838"/><path d="M539.09,240.16V236.8a8.38,8.38,0,0,1-6.9,3.76c-5.48,0-8.9-4.33-8.9-9.75s3.42-9.47,8.84-9.47a8.18,8.18,0,0,1,7,3.77V208.39h1.71v31.77ZM532,223c-4.11,0-7,3.83-7,7.82,0,4.22,2.74,8.15,7.07,8.15,4.56,0,7.07-3.93,7.07-8.32S536.35,223,532,223Z" fill="#383838"/><path d="M559.32,240.16l10.89-12.32c2.17-2.51,5.36-6,5.36-9.46a6.9,6.9,0,1,0-13.8.17h-1.88a8.69,8.69,0,0,1,8.78-8.9,8.48,8.48,0,0,1,8.78,8.84c0,4-3,7.3-5.53,10.15l-8.5,9.81h14.09v1.71Z" fill="#383838"/><path d="M582.29,244.67l-.57-.57a6.57,6.57,0,0,0,3-4,1.61,1.61,0,0,1-1.2.34,1.78,1.78,0,0,1-1.77-1.77,1.91,1.91,0,0,1,1.94-1.88,2.35,2.35,0,0,1,2.28,2.56C585.94,241,584.63,243.19,582.29,244.67Z" fill="#383838"/><path d="M598.77,240.56c-6.27,0-10.15-7.36-10.15-15.62s3.94-15.29,10.15-15.29,10,7,10,15.29S605.1,240.56,598.77,240.56Zm0-29.14c-5.19,0-8.21,7.13-8.21,13.52,0,7.12,3,13.91,8.21,13.91s8-6.79,8-13.91C606.81,218.55,604,211.42,598.77,211.42Z" fill="#383838"/><path d="M611.08,240.16,622,227.84c2.17-2.51,5.36-6,5.36-9.46a6.9,6.9,0,1,0-13.8.17h-1.88a8.69,8.69,0,0,1,8.78-8.9,8.49,8.49,0,0,1,8.79,8.84c0,4-3,7.3-5.54,10.15l-8.49,9.81h14.08v1.71Z" fill="#383838"/><path d="M642,240.16V211.82h-5.42l.91-1.77h6.33v30.11Z" fill="#383838"/><path d="M677.72,240.56a9.64,9.64,0,1,1,9.64-9.64A9.66,9.66,0,0,1,677.72,240.56Zm-.05-17.62a8,8,0,1,0,8,8A8,8,0,0,0,677.67,222.94Z" fill="#383838"/><path d="M693,223.39v16.77h-1.77V223.39h-2.05v-1.65h2.05v-6.61H693v6.61h3.19v1.65Z" fill="#383838"/><path d="M710,240.16V229c0-3.42-.4-6-4.28-6-4.5,0-5.3,4.34-5.3,8v9.12H698.7V208.39h1.71v16.09a6.11,6.11,0,0,1,5.47-3.14c4.56,0,5.82,2.91,5.82,7.7v11.12Z" fill="#383838"/><path d="M717.23,231.09c0,4.8,3.08,7.82,7.18,7.82a7,7,0,0,0,6.27-4.17l1.49.86a8.67,8.67,0,0,1-8,5c-5.3,0-8.72-4.45-8.72-9.64s3.48-9.58,8.72-9.58,8.61,4.28,8.73,9.75Zm7-8.1a7.19,7.19,0,0,0-7,6.45H731C730.4,225.79,727.78,223,724.24,223Z" fill="#383838"/><path d="M743.22,223.28a4.61,4.61,0,0,0-1.31-.29c-3.88,0-3.71,5-3.71,7.76v9.41h-1.71V221.74h1.71v2.62a4.07,4.07,0,0,1,4-3,6.24,6.24,0,0,1,1.93.34Z" fill="#383838"/><path d="M751.09,240.56a6.2,6.2,0,0,1-6.11-4.85l1.6-.62c.8,2.33,2.17,3.87,4.51,3.87a4.21,4.21,0,0,0,4-4.22c0-5-8.73-3.13-8.73-8.72a4.66,4.66,0,0,1,4.85-4.68,5.19,5.19,0,0,1,4.56,2.85l-1.48.86A3.49,3.49,0,0,0,751.2,223a3.05,3.05,0,0,0-3,2.86c0,4.44,8.67,2.28,8.67,9A5.61,5.61,0,0,1,751.09,240.56Z" fill="#383838"/></g><g style="isolation:isolate"><path d="M211.07,240.16V210.05h1.83v28.4h7.58v1.71Z" fill="none" stroke="#2a2a2a" stroke-miterlimit="10" stroke-width="0.82"/><path d="M224.81,217.81a1.66,1.66,0,1,1,1.6-1.66A1.65,1.65,0,0,1,224.81,217.81Zm-.91,22.35V221.74h1.71v18.42Z" fill="none" stroke="#2a2a2a" stroke-miterlimit="10" stroke-width="0.82"/><path d="M243.4,240.16l-8.84-9.47-1,1.15v8.32h-1.71V208.39h1.71v21l7.36-7.64h2.28l-7.47,7.81,10,10.61Z" fill="none" stroke="#2a2a2a" stroke-miterlimit="10" stroke-width="0.82"/><path d="M247,231.09c0,4.8,3.08,7.82,7.19,7.82,2.74,0,4.9-1.54,6.27-4.17l1.48.86a8.66,8.66,0,0,1-8,5c-5.3,0-8.73-4.45-8.73-9.64s3.48-9.58,8.73-9.58,8.61,4.28,8.73,9.75Zm7-8.1a7.2,7.2,0,0,0-7,6.45h13.8C260.22,225.79,257.59,223,254.06,223Z" fill="none" stroke="#2a2a2a" stroke-miterlimit="10" stroke-width="0.82"/><path d="M280.34,240.16V236.8a8.37,8.37,0,0,1-6.9,3.76c-5.47,0-8.9-4.33-8.9-9.75s3.43-9.47,8.84-9.47a8.18,8.18,0,0,1,7,3.77V208.39h1.71v31.77ZM273.27,223c-4.11,0-7,3.83-7,7.82,0,4.22,2.74,8.15,7.07,8.15,4.57,0,7.07-3.93,7.07-8.32S277.6,223,273.27,223Z" fill="none" stroke="#2a2a2a" stroke-miterlimit="10" stroke-width="0.82"/><path d="M310.44,240.56a8.31,8.31,0,0,1-7-3.82v3.42h-1.71V208.39h1.71v16.55a8.51,8.51,0,0,1,7-3.6c5.36,0,8.79,4.11,8.79,9.47S315.85,240.56,310.44,240.56Zm.11-17.57c-4.56,0-7.13,3.48-7.13,7.87s2.63,8.1,7.07,8.1,7-3.93,7-8.15C317.51,226.82,314.66,223,310.55,223Z" fill="none" stroke="#2a2a2a" stroke-miterlimit="10" stroke-width="0.82"/><path d="M325.83,250.94h-1.77l4.22-10.38-8.56-18.82h1.83l7.7,16.71L336,221.74h1.77Z" fill="none" stroke="#2a2a2a" stroke-miterlimit="10" stroke-width="0.82"/><path d="M373.78,240.16V224.77H356.55v15.39h-1.82V210.05h1.82v12.89h17.23V210.05h1.82v30.11Z" fill="none" stroke="#2a2a2a" stroke-miterlimit="10" stroke-width="0.82"/><path d="M394.81,240.56A15.46,15.46,0,1,1,410,225.11,15.41,15.41,0,0,1,394.81,240.56Zm0-29.14a13.61,13.61,0,0,0-13.29,13.69c0,7.41,6,13.74,13.29,13.74s13.28-6.33,13.28-13.74S402.05,211.42,394.81,211.42Z" fill="none" stroke="#2a2a2a" stroke-miterlimit="10" stroke-width="0.82"/><path d="M420.51,211.82v28.34h-1.82V211.82H411.1v-1.77h17v1.77Z" fill="none" stroke="#2a2a2a" stroke-miterlimit="10" stroke-width="0.82"/><path d="M439.21,211.82v28.34h-1.82V211.82H429.8v-1.77h17v1.77Z" fill="none" stroke="#2a2a2a" stroke-miterlimit="10" stroke-width="0.82"/><path d="M466.47,240.16l-3.94-9.92H449.7l-3.88,9.92h-1.94l12.32-31.08,12.15,31.08Zm-10.33-26.57-5.76,14.88h11.47Z" fill="none" stroke="#2a2a2a" stroke-miterlimit="10" stroke-width="0.82"/><path d="M499.41,240.16V236.8a8.21,8.21,0,0,1-6.9,3.76c-5.47,0-8.89-4.33-8.89-9.75s3.42-9.47,8.83-9.47a8,8,0,0,1,7,3.82v-3.42h1.71v18.42ZM492.34,223c-4.11,0-7,3.83-7,7.82,0,4.22,2.74,8.1,7.07,8.1,4.57,0,7.08-3.88,7.08-8.27S496.68,223,492.34,223Z" fill="none" stroke="#2a2a2a" stroke-miterlimit="10" stroke-width="0.82"/><path d="M517.82,240.16V228.93c0-3.2-.39-6-4.27-6-4.51,0-5.31,4.39-5.31,8.1v9.12h-1.71V221.74h1.71v2.8a6.25,6.25,0,0,1,5.48-3.2c4,0,5.82,2.22,5.82,7v11.8Z" fill="none" stroke="#2a2a2a" stroke-miterlimit="10" stroke-width="0.82"/><path d="M539.09,240.16V236.8a8.38,8.38,0,0,1-6.9,3.76c-5.48,0-8.9-4.33-8.9-9.75s3.42-9.47,8.84-9.47a8.18,8.18,0,0,1,7,3.77V208.39h1.71v31.77ZM532,223c-4.11,0-7,3.83-7,7.82,0,4.22,2.74,8.15,7.07,8.15,4.56,0,7.07-3.93,7.07-8.32S536.35,223,532,223Z" fill="none" stroke="#2a2a2a" stroke-miterlimit="10" stroke-width="0.82"/><path d="M559.32,240.16l10.89-12.32c2.17-2.51,5.36-6,5.36-9.46a6.9,6.9,0,1,0-13.8.17h-1.88a8.69,8.69,0,0,1,8.78-8.9,8.48,8.48,0,0,1,8.78,8.84c0,4-3,7.3-5.53,10.15l-8.5,9.81h14.09v1.71Z" fill="none" stroke="#2a2a2a" stroke-miterlimit="10" stroke-width="0.82"/><path d="M582.29,244.67l-.57-.57a6.57,6.57,0,0,0,3-4,1.61,1.61,0,0,1-1.2.34,1.78,1.78,0,0,1-1.77-1.77,1.91,1.91,0,0,1,1.94-1.88,2.35,2.35,0,0,1,2.28,2.56C585.94,241,584.63,243.19,582.29,244.67Z" fill="none" stroke="#2a2a2a" stroke-miterlimit="10" stroke-width="0.82"/><path d="M598.77,240.56c-6.27,0-10.15-7.36-10.15-15.62s3.94-15.29,10.15-15.29,10,7,10,15.29S605.1,240.56,598.77,240.56Zm0-29.14c-5.19,0-8.21,7.13-8.21,13.52,0,7.12,3,13.91,8.21,13.91s8-6.79,8-13.91C606.81,218.55,604,211.42,598.77,211.42Z" fill="none" stroke="#2a2a2a" stroke-miterlimit="10" stroke-width="0.82"/><path d="M611.08,240.16,622,227.84c2.17-2.51,5.36-6,5.36-9.46a6.9,6.9,0,1,0-13.8.17h-1.88a8.69,8.69,0,0,1,8.78-8.9,8.49,8.49,0,0,1,8.79,8.84c0,4-3,7.3-5.54,10.15l-8.49,9.81h14.08v1.71Z" fill="none" stroke="#2a2a2a" stroke-miterlimit="10" stroke-width="0.82"/><path d="M642,240.16V211.82h-5.42l.91-1.77h6.33v30.11Z" fill="none" stroke="#2a2a2a" stroke-miterlimit="10" stroke-width="0.82"/><path d="M677.72,240.56a9.64,9.64,0,1,1,9.64-9.64A9.66,9.66,0,0,1,677.72,240.56Zm-.05-17.62a8,8,0,1,0,8,8A8,8,0,0,0,677.67,222.94Z" fill="none" stroke="#2a2a2a" stroke-miterlimit="10" stroke-width="0.82"/><path d="M693,223.39v16.77h-1.77V223.39h-2.05v-1.65h2.05v-6.61H693v6.61h3.19v1.65Z" fill="none" stroke="#2a2a2a" stroke-miterlimit="10" stroke-width="0.82"/><path d="M710,240.16V229c0-3.42-.4-6-4.28-6-4.5,0-5.3,4.34-5.3,8v9.12H698.7V208.39h1.71v16.09a6.11,6.11,0,0,1,5.47-3.14c4.56,0,5.82,2.91,5.82,7.7v11.12Z" fill="none" stroke="#2a2a2a" stroke-miterlimit="10" stroke-width="0.82"/><path d="M717.23,231.09c0,4.8,3.08,7.82,7.18,7.82a7,7,0,0,0,6.27-4.17l1.49.86a8.67,8.67,0,0,1-8,5c-5.3,0-8.72-4.45-8.72-9.64s3.48-9.58,8.72-9.58,8.61,4.28,8.73,9.75Zm7-8.1a7.19,7.19,0,0,0-7,6.45H731C730.4,225.79,727.78,223,724.24,223Z" fill="none" stroke="#2a2a2a" stroke-miterlimit="10" stroke-width="0.82"/><path d="M743.22,223.28a4.61,4.61,0,0,0-1.31-.29c-3.88,0-3.71,5-3.71,7.76v9.41h-1.71V221.74h1.71v2.62a4.07,4.07,0,0,1,4-3,6.24,6.24,0,0,1,1.93.34Z" fill="none" stroke="#2a2a2a" stroke-miterlimit="10" stroke-width="0.82"/><path d="M751.09,240.56a6.2,6.2,0,0,1-6.11-4.85l1.6-.62c.8,2.33,2.17,3.87,4.51,3.87a4.21,4.21,0,0,0,4-4.22c0-5-8.73-3.13-8.73-8.72a4.66,4.66,0,0,1,4.85-4.68,5.19,5.19,0,0,1,4.56,2.85l-1.48.86A3.49,3.49,0,0,0,751.2,223a3.05,3.05,0,0,0-3,2.86c0,4.44,8.67,2.28,8.67,9A5.61,5.61,0,0,1,751.09,240.56Z" fill="none" stroke="#2a2a2a" stroke-miterlimit="10" stroke-width="0.82"/></g></g><path d="M259.36,131.19a2.8,2.8,0,0,1-.58-.08L246,127.57a33.34,33.34,0,0,1-14.75,3.4,33.79,33.79,0,1,1,33.79-33.79h0a33.42,33.42,0,0,1-6.15,19.37l2.57,12a2.19,2.19,0,0,1-1.69,2.59,2.3,2.3,0,0,1-.45.05ZM231.29,67.77a29.42,29.42,0,1,0-.07,58.84h.07a29,29,0,0,0,13.51-3.3,2.25,2.25,0,0,1,1.59-.17l10.09,2.8-2-9.41a2.17,2.17,0,0,1,.39-1.76,29.39,29.39,0,0,0-23.56-47Z" fill="#2a2a2a"/><path d="M1221.58,142.29a1.85,1.85,0,0,1-1.37-.62l-28.72-30.9-28.72,30.91a1.89,1.89,0,0,1-2.23.43,2.39,2.39,0,0,1-1.26-2.13V64.23a3.33,3.33,0,0,1,3.07-3.54h59.37a3.33,3.33,0,0,1,3.07,3.54V140c0,.92-1.07,1.75-1.81,2.13A4.72,4.72,0,0,1,1221.58,142.29Z" fill="#2a2a2a"/><path d="M400.43,67.86a2.15,2.15,0,0,0,.07-.67,1.18,1.18,0,0,0,0-.27,2.13,2.13,0,0,0-.41-.77s0-.06,0-.09a.7.7,0,0,1-.14-.08,2.28,2.28,0,0,0-1.07-.65h-.06a1.92,1.92,0,0,0-.41,0l-82.92.51A2.18,2.18,0,0,0,313.31,68a2.12,2.12,0,0,0,.63,1.53L341.2,97.25l3,36.13a2.19,2.19,0,0,0,1.55,1.9,1.93,1.93,0,0,0,.63.1,2.15,2.15,0,0,0,1.71-.83l52.07-65.72c.06-.08,0-.18.09-.26A1.78,1.78,0,0,0,400.43,67.86Zm-11,1.82-40,20.95-5.66,3L320.65,70.1ZM345.59,97.53l22.49-11.76,22.24-11.62L348,127.49Z" fill="#2a2a2a"/><path d="M171.19,224.23A29.28,29.28,0,1,1,141.92,195a29.27,29.27,0,0,1,29.27,29.27Z" fill="#fcee21"/><path d="M152.26,224.23A29.27,29.27,0,1,1,123,195a29.26,29.26,0,0,1,29.27,29.27Z"/><path d="M141.47,213.43h0a23.68,23.68,0,0,0-2.77,27.69h0A23.65,23.65,0,0,0,111.51,247h0a23.66,23.66,0,0,0-14-24h0A23.67,23.67,0,0,0,116,202.24h0a23.68,23.68,0,0,0,25.48,11.19Z" fill="#fff"/><path d="M129.11,224.64a29.28,29.28,0,1,1-29.28-29.27h0a29.27,29.27,0,0,1,29.27,29.27Z" fill="#838bc5"/><path d="M99.84,207.07l4.36,13.41h14.11l-11.4,8.3,4.36,13.42-11.4-8.3-11.41,8.3,4.31-13.4-11.4-8.29H95.48Z" fill="#fff"/></g></svg>