<svg xmlns="http://www.w3.org/2000/svg" width="30" height="30" viewBox="0 0 30 30"><path d="M22.16,7.43A1.55,1.55,0,0,0,21,6.92H17.45l.26-3.62,3-1.1a.71.71,0,0,0,.47-.67.73.73,0,0,0,0-.25.71.71,0,0,0-.9-.44h0L16.76,2.1a.74.74,0,0,0-.47.63L16,6.92H9a1.49,1.49,0,0,0-1.5,1.71l2.42,19a1.78,1.78,0,0,0,1.74,1.52h6.71a1.77,1.77,0,0,0,1.74-1.52l2.43-19A1.51,1.51,0,0,0,22.16,7.43ZM18.65,27.49a.33.33,0,0,1-.3.26H11.64a.33.33,0,0,1-.3-.26l-2.43-19L9,8.37h6.93l-.25,3.51-.09,1.45-.05.64-.14,2.11a.71.71,0,0,0,.66.76h.06a.74.74,0,0,0,.73-.67L17,13.56v-.19l.1-1.45.24-3.55H21l.07.08Z" fill="#ff8f1c"/></svg>