<svg xmlns="http://www.w3.org/2000/svg" width="30" height="30" viewBox="0 0 30 30"><path d="M15,14.4a4.64,4.64,0,1,0-4.64-4.63A4.63,4.63,0,0,0,15,14.4Zm0-7.61a3,3,0,1,1-3,3,3,3,0,0,1,3-3Z" fill="#ff8f1c"/><path d="M10,18.1c1.26,1.7.75,1,4.37,6.2a.83.83,0,0,0,1.16.21,1.34,1.34,0,0,0,.2-.21c3.63-5.19,3.13-4.53,4.37-6.2a21.05,21.05,0,0,0,3.25-5.5,8.54,8.54,0,0,0-1.25-8.28h0a8.91,8.91,0,0,0-12.5-1.6A8.66,8.66,0,0,0,8,4.32,8.54,8.54,0,0,0,6.7,12.6,21.05,21.05,0,0,0,10,18.1ZM9.26,5.33a7.28,7.28,0,0,1,11.49,0h0a7,7,0,0,1,1,6.73,19.9,19.9,0,0,1-3,5c-.92,1.24-.64.87-3.72,5.27-3.07-4.4-2.79-4-3.71-5.27a19.9,19.9,0,0,1-3-5,6.94,6.94,0,0,1,1-6.73Z" fill="#ff8f1c"/><path d="M10.64,21.69a.83.83,0,0,0-1.14-.26L7.14,22.92a.83.83,0,0,0-.26,1.14.81.81,0,0,0,.26.26L14.56,29a.84.84,0,0,0,.89,0l7.42-4.69a.83.83,0,0,0,.26-1.14.81.81,0,0,0-.26-.26l-2.35-1.49a.84.84,0,0,0-1.15.26.83.83,0,0,0,.26,1.14l1.25.79L15,27.33,9.13,23.62l1.25-.79a.83.83,0,0,0,.26-1.14Z" fill="#ff8f1c"/></svg>