<svg xmlns="http://www.w3.org/2000/svg" width="30" height="30" viewBox="0 0 30 30"><path d="M22.2,2.15a1.85,1.85,0,0,0-1.38-.61H6.28a1.87,1.87,0,0,0-1.39.61,1.94,1.94,0,0,0-.43,1.46l2.93,23a2.16,2.16,0,0,0,2.1,1.85H17.6a2.15,2.15,0,0,0,2.1-1.85l2.94-23A1.87,1.87,0,0,0,22.2,2.15ZM18,26.39a.42.42,0,0,1-.36.32H9.49a.43.43,0,0,1-.36-.32L6.2,3.39l.08-.1H20.82l.08.1Z" fill="#ff8f1c"/><path d="M22,8.17l-.72-.08-.16,1.47.71.09a2.51,2.51,0,0,1,2.21,2.77l-.65,5.76a2.5,2.5,0,0,1-2.77,2.21l-.72-.08-.17,1.48.71.08a4,4,0,0,0,4.42-3.52l.65-5.77A4,4,0,0,0,22,8.17Z" fill="#ff8f1c"/><rect x="13.53" y="1.89" width="1.12" height="26.22" fill="#ff8f1c"/></svg>