<svg xmlns="http://www.w3.org/2000/svg" width="347.86" height="438.43" viewBox="0 0 347.86 438.43"><circle cx="173.93" cy="218.71" r="173.89" fill="#fff" opacity="0.2" style="isolation:isolate"/><path d="M271,72.71a7.53,7.53,0,0,1-6.88,4.45l-30.72.12-33,.16a7.58,7.58,0,0,1-7.6-7.56h0a7.56,7.56,0,0,1,1.64-4.74l3.7-4.7c.8-.87.07-1-.28-1v0C122.27,46,63,88.05,38.7,111c5.41-6.29,9.61-11.46,14.44-16.22,19.86-19.55,38.53-41,62.6-55.6a189.75,189.75,0,0,1,76.75-26.09A185.28,185.28,0,0,1,218.92,12c7.34.22,15.3,2.47,20.62-4.15l3.82-4.9A7.59,7.59,0,0,1,254,1.61h0a7.66,7.66,0,0,1,2.71,4.25l6.68,28.05,8.08,33.9A7.59,7.59,0,0,1,271,72.71Z" fill="#fff"/><path d="M270.24,74a7.55,7.55,0,0,1-6.65,4l-30.72.12-33,.16a7.58,7.58,0,0,1-7.61-7.56h0a7.56,7.56,0,0,1,1.64-4.74l3.7-4.7c.8-.88.08-1-.28-1v0C121.74,46.73,62.47,88.82,38.16,111.75l2.61-3c3.19-3.09,6.42-6.14,9.72-9.11a260,260,0,0,1,89.16-52.48c30.82-10.62,60.83-15.69,91.3-1.25C244,52.05,259.28,62.94,270.24,74Z" fill="#d6d6d6"/><path d="M78.67,365.72a7.55,7.55,0,0,1,6.89-4.45l30.72-.12,33-.16a7.58,7.58,0,0,1,7.61,7.56h0a7.56,7.56,0,0,1-1.64,4.74l-3.7,4.7c-.8.88-.08,1,.28,1v0c75.56,13.41,134.83-28.68,159.14-51.61-5.42,6.29-9.62,11.47-14.44,16.22-19.86,19.55-38.53,41-62.6,55.61a189.73,189.73,0,0,1-76.76,26.08,185.16,185.16,0,0,1-26.43,1.11c-7.33-.21-15.3-2.47-20.61,4.15l-3.82,4.9A7.59,7.59,0,0,1,93,432.58l-6.69-28.06-8.07-33.9A7.58,7.58,0,0,1,78.67,365.72Z" fill="#fff"/><path d="M79.45,364.48a7.54,7.54,0,0,1,6.65-4l30.72-.12,33-.16a7.58,7.58,0,0,1,7.61,7.56h0a7.56,7.56,0,0,1-1.64,4.74l-3.7,4.7c-.8.88-.08,1,.28,1v0C228,391.7,287.22,349.61,311.53,326.68l-2.61,3c-3.19,3.09-6.42,6.14-9.72,9.11A259.94,259.94,0,0,1,210,391.31c-30.82,10.62-60.83,15.69-91.3,1.25C105.67,386.38,90.41,375.49,79.45,364.48Z" fill="#d6d6d6"/></svg>