<svg xmlns="http://www.w3.org/2000/svg" width="1366" height="904.79" viewBox="0 0 1366 904.79"><rect x="683" width="683" height="904.79" fill="#da291c"/><rect width="683" height="904.79" fill="#ff8f1c"/><g opacity="0.07"><path d="M390.44,432.51c-4.74-7.8-10.86-13.5-17-19.18-9.93-9.11-21.75-14-34.9-16.13a133.61,133.61,0,0,0-18.64-1.4c-2.83-.05-4.15.92-4.77,3.69-4.21,18.76-8.54,37.49-12.83,56.23q-1.85,8.07-3.7,16.13c-.27,1.18-.81,2.36-.09,3.9a185.92,185.92,0,0,1,28.92-3.14c10-.19,19.95.08,29.74,2.43,10.1,2.42,15.46,8.89,15.92,19.32.54,12.08-3.25,23.13-7.91,33.75-1.57.76-2.25-.3-3.07-.87a55.66,55.66,0,0,0-31.13-9.92c-12.3-.3-24.61-.05-36.92,0-5.34,0-5.24-.37-7,5.18-4.92,15.63-9.78,31.28-15,46.8-5.06,15-12,29-23.52,40.27-17.08,16.78-37.93,23.55-61.49,21.77-12.21-.92-22-6.89-28.59-17.44-5.25-8.34-7.69-17.54-8.4-27.29-.19-2.68.64-4,3.45-4.1,12.34-.56,22.68-5.92,33-12.39,13.2-8.24,22-19.48,27.85-33.5,7.79-18.75,14.63-37.87,21.73-56.88,8.84-23.67,17.75-47.32,25.68-71.31.49-1.47,1.24-2.87,1.07-4.69-2.51-.53-4.63.67-6.69,1.48-17.52,6.83-30.52,18.78-39.3,35.3A40.67,40.67,0,0,0,212.22,458c-.28,5.69-1,11.36-.89,17.07.06,3.53-.07,3.75-3.5,3.58-14-.68-25.08-6.76-30.53-19.78-10.45-25-7.19-52.3,15.37-72.07,13.13-11.51,28.78-18.27,45.09-23.79,16.14-5.46,32.9-7.71,49.7-9.76a361.67,361.67,0,0,1,54.94-3c13.38.42,26.69,1.64,39.63,5.35,9.18,2.64,17.74,6.44,24.43,13.63,9.29,10,11.77,21.38,6.79,34.07C408.64,415.07,400.52,424.2,390.44,432.51Z" fill="#fff"/><path d="M471.88,585.93c-2,2-3.93,3.76-5.8,5.59a209.36,209.36,0,0,1-21.63,18.27,55.84,55.84,0,0,1-30.71,11.07c-6,.37-12,1.16-18.1.47-13.32-1.51-22.36-9.93-25.05-24.55-2.45-13.27-.84-26.24,2.73-39.09,4.11-14.79,9.91-28.94,16.14-42.94,8.4-18.86,17.88-37.24,25.58-56.41,2.06-5.12,4.16-10.26,4.88-15.78a3.69,3.69,0,0,1,3.26-3.55c14.38-3.44,28.79-6.71,43.51-8.36a30.31,30.31,0,0,1,9.07.1c7.37,1.37,11.19,5.77,11.5,13.25.25,5.84-1.4,11.28-3.87,16.48-5.11,10.77-10.17,21.57-15.5,32.23-11.08,22.15-22.31,44.22-33.51,66.3a39.68,39.68,0,0,0-4.27,13.14c-.89,7.31,3.44,11.53,10.82,10.63,5.48-.67,10.19-3.19,14.6-6.25,14.52-10.06,25.29-23.42,33.65-38.84,5.12-9.44,8-19.78,11.81-29.75,7.73-20.28,15.57-40.51,24.39-60.35a11.72,11.72,0,0,1,6.52-6.48A101.86,101.86,0,0,1,560,433a44.19,44.19,0,0,1,18.5,1.58c3.9,1.17,5.86,3.58,6.46,7.57,1,6.5-.06,12.85-1.72,19-3.25,12.06-7.87,23.64-12.46,35.28-9.05,23-20.41,44.88-31.08,67.11-3.5,7.3-4.56,15.34-5,23.38a20.3,20.3,0,0,0,1.51,7.29,65.09,65.09,0,0,0,5.72,12c1.87,3.22,1.81,3.55-1.36,5.42a52.88,52.88,0,0,1-7.63,3.84c-14.9,5.86-30.46,8.55-46.38,9.43a27.29,27.29,0,0,1-7.42-.8c-7.17-1.58-10.05-5-9.77-12.4a127,127,0,0,1,2.42-21.2C472.15,589.21,472.69,587.86,471.88,585.93Z" fill="#fff"/><path d="M1109.18,472.61c3.74-3.56,6.51-6.3,9.39-8.9,12.36-11.17,25.54-21.15,40.93-27.89a51.79,51.79,0,0,1,15.4-4.25c13.54-1.39,23.27,5.22,31.13,15.28a45.23,45.23,0,0,1,10,27,41.63,41.63,0,0,1-1.93,14c-10,31.9-27.51,60.36-40.84,90.72a60,60,0,0,0-4.41,13.12,10.88,10.88,0,0,0,2.33,9.47c2.49,3,5,6,7.76,9.22-1.23,1.71-3.14,2.26-4.8,3.1-15.88,8-32.86,10.2-50.39,9.68a48,48,0,0,1-13.15-2.05c-9.75-3.1-14.76-10.41-13.6-22,1-10.21,4.61-19.75,8.88-29,7.13-15.47,16.54-29.53,26.94-43,5.56-7.18,11.29-14.25,15.85-22.16a66.44,66.44,0,0,0,7.05-17.24,29.48,29.48,0,0,0,.62-7.43c0-4.33-3.82-8.25-9.21-6.31a89.63,89.63,0,0,0-27.77,15.66c-14.24,12-24.23,27-31.41,44a468.35,468.35,0,0,0-24.47,75.67c-.52,2.22-1,4-3.43,4.88-10.37,3.79-20.69,7.77-31.76,9.13a26.69,26.69,0,0,1-17-3.32c-6.57-3.76-9.08-9.22-7.58-16.66,2.79-13.83,7.33-27.16,12-40.45,11.21-32.08,22.65-64.09,33.81-96.19,3-8.71,6.64-17.32,7.29-26.7.11-1.61,1.17-1.94,2.48-2.25,11.78-2.86,23.64-5.3,35.76-6.2a40.77,40.77,0,0,1,4.28,0c7.37.23,9.5,1.84,11.11,8.95,2.09,9.2,1.53,18.4-.3,27.58C1109.87,469.17,1109.66,470.21,1109.18,472.61Z" fill="#fff"/><path d="M953.17,477.23c12.55-13.28,33-15.41,46.8-7.31,8.51,5,11.38,13.4,12,22.63,1.13,15.61-2.07,30.6-8.41,44.73-10.21,22.79-23.73,43.49-41.75,61-12.46,12.1-26.65,21.53-44,25.16-14.13,3-28.34,3-42.32-1-18.72-5.37-29.9-17.84-33.94-36.81-2.56-12-1.83-24.12.17-36.11,3.58-21.46,10.28-41.79,22.8-59.88,12.23-17.67,27.17-32.3,45.73-43.45,12.84-7.71,26.13-13.82,40.92-16.23,9.57-1.56,19.2-1.49,28.56,1.57,12.5,4.07,21.28,12.37,27.27,23.86-1.47,1.26-2.71.63-3.87.46-27.29-3.9-51.18,2.72-70.85,22.68a81.45,81.45,0,0,0-13.83,19.32c-7.13,13.44-12.81,27.46-15.27,42.55-1.36,8.32-1.57,16.69,1.58,24.78A23.88,23.88,0,0,0,917.53,579a14.62,14.62,0,0,0,11.44.42c11-4,19.08-11.57,25.36-21.21,7-10.72,10.3-22.68,11.27-35.27.8-10.49,1.3-21-1.14-31.4C963,485.08,960.4,479.3,953.17,477.23Z" fill="#fff"/><path d="M702.93,506.43c.63-10.32.53-19.73-1.75-29a31.34,31.34,0,0,0-4-9.83c-4-6.11-9.64-8.74-16.92-7.58-3.33.53-6.74.6-10,1.72-7,2.45-10.94,7.7-11.5,15.15-.82,11.07,3.14,19.86,12.13,26.36a61,61,0,0,0,5.29,3.62c6.29,3.61,12.64,7.09,18.94,10.68,16,9.07,25.51,22.6,24.26,41.16-.83,12.32-6.34,22.93-14.29,32.22-16,18.7-36.69,29-60.67,33.08A96.33,96.33,0,0,1,602,622a62.24,62.24,0,0,1-16.62-7.18c-8.56-5.39-14.37-12.77-16.17-22.86-3.1-17.37,2-31.94,14.87-43.72,2.06.18,2,1.74,2.42,2.78,7.21,18.71,21.3,28.72,40.53,32.55a39.4,39.4,0,0,0,24.05-2.41,24.36,24.36,0,0,0,8.78-6,12.27,12.27,0,0,0-.61-17.34c-3.11-3-7-4.9-10.82-6.82-12.59-6.3-25.2-12.58-37.41-19.59-5.19-3-9.78-6.59-13.13-11.56-5.51-8.18-6.6-17.17-4.26-26.6,4.61-18.61,15.17-33.26,30.52-44.44C647.31,432,673.42,425,701.81,427.37c15.58,1.31,28.78,7.94,37.89,21.24,7.37,10.75,7.26,21.07-.24,31.76a59.09,59.09,0,0,1-14.54,14.07A91.88,91.88,0,0,1,702.93,506.43Z" fill="#fff"/><path d="M810.57,609.74a48.61,48.61,0,0,1-29.13,15.11c-8.26,1.21-16.6,1.76-25,.47-13.73-2.11-21.51-10.08-23-24-1.17-10.64.57-20.94,3.1-31.17,5.15-20.81,13.39-40.5,21.91-60.1,7.45-17.12,15.74-33.86,22.65-51.22,1.65-4.14,3.34-8.26,3.78-12.74.14-1.39.56-2.37,2-2.76C803,438.92,819,433.93,836,434.65a22.41,22.41,0,0,1,8.73,2.27c3.93,1.86,5.94,4.86,5.62,9.38a35,35,0,0,1-1.53,7.3c-4.12,14-9.81,27.45-15.36,40.94-9.23,22.42-18.88,44.68-25.35,68.1a84.26,84.26,0,0,0-2,38.08A18.09,18.09,0,0,0,810.57,609.74Z" fill="#fff"/><path d="M869.73,381.09c-1.19,13.88-7.58,24.71-19.82,31.55a51.35,51.35,0,0,1-34.58,5.94c-9.86-1.71-16-8.77-16.42-18.87-.71-15.57,7-26.58,19.72-34.2a45.68,45.68,0,0,1,32.47-5.62c7.3,1.35,13.45,4.64,16.83,11.76A20.72,20.72,0,0,1,869.73,381.09Z" fill="#fff"/></g></svg>