<svg xmlns="http://www.w3.org/2000/svg" xmlns:xlink="http://www.w3.org/1999/xlink" width="292.15" height="113.18" viewBox="0 0 292.15 113.18"><defs><clipPath id="a"><circle cx="-218" cy="191.99" r="167.5" fill="none"/></clipPath></defs><g clip-path="url(#a)"><path d="M-270.88,325,15.71,171.71l-37.92-70.93-270.48,148Z" fill="#e0052a"/></g><g style="isolation:isolate"><g style="isolation:isolate"><path d="M12.35,27.65,4.8,16.5H3.25V27.65H0V1.25H5.25c5,0,9.05,2.25,9.05,7.55a7.26,7.26,0,0,1-6.1,7.35l8.05,11.5ZM4.35,4.2H3.25v9.55H4.5c3.25,0,6.8-.65,6.8-4.8S7.5,4.2,4.35,4.2Z" fill="#fff"/><path d="M18.2,27.65V1.25H32v3H21.45v7.4h10.1v3H21.45v10H32v3Z" fill="#fff"/><path d="M53.65,27.65l-2.95-6.6H39.15l-2.9,6.6H32.8L45,.15l12,27.5ZM45,7.35,40.5,18.1h8.9Z" fill="#fff"/><path d="M65.65,28.2a8.1,8.1,0,0,1-8.2-7.35l3.25-.75a4.85,4.85,0,0,0,4.9,5,4.53,4.53,0,0,0,4.7-4.65c0-3.6-2.2-4.5-4.4-5.5l-1.75-.8c-2.9-1.35-5.55-3-5.55-6.7C58.6,3.25,62.05.7,66,.7a7.31,7.31,0,0,1,6.8,4L70.2,6.2a4.69,4.69,0,0,0-4.45-2.4,3.78,3.78,0,0,0-4,3.7c0,2.1,2,3.2,3.5,3.8l1.85.75c3.65,1.5,6.35,3.45,6.35,8.2A7.67,7.67,0,0,1,65.65,28.2Z" fill="#fff"/><path d="M88.05,28.2c-7.4,0-13.3-5.9-13.3-13.75a13.31,13.31,0,1,1,26.6,0C101.35,22.3,95.45,28.2,88.05,28.2Zm0-24.4c-6,0-10.1,4.85-10.1,10.65a10.37,10.37,0,0,0,10.1,10.7c5.55,0,10.1-4.65,10.1-10.7C98.15,8.65,94.1,3.8,88.05,3.8Z" fill="#fff"/><path d="M106.9,8.05v19.6h-3.2V0l19,20.7V1.3h3.2V28.75Z" fill="#fff"/><path d="M150.75,4.25v23.4H147.6V4.25h-6.2v-3H157v3Z" fill="#fff"/><path d="M170.35,28.2c-7.4,0-13.3-5.9-13.3-13.75a13.31,13.31,0,1,1,26.6,0C183.65,22.3,177.75,28.2,170.35,28.2Zm0-24.4c-6,0-10.1,4.85-10.1,10.65a10.37,10.37,0,0,0,10.1,10.7c5.55,0,10.1-4.65,10.1-10.7C180.45,8.65,176.4,3.8,170.35,3.8Z" fill="#fff"/><path d="M205.1,27.65h-5V1.25h5.15c7.9,0,14.35,4.3,14.35,13.05C219.55,23.3,213.15,27.65,205.1,27.65Zm-.85-23.4h-1v20.4h1c6.5,0,12.1-2.55,12.1-10.2S210.75,4.25,204.25,4.25Z" fill="#fff"/><path d="M234.65,27.65,227.1,16.5h-1.55V27.65H222.3V1.25h5.25c5,0,9,2.25,9,7.55a7.26,7.26,0,0,1-6.1,7.35l8.05,11.5Zm-8-23.45h-1.1v9.55h1.25c3.25,0,6.8-.65,6.8-4.8S229.8,4.2,226.65,4.2Z" fill="#fff"/><path d="M240.45,27.65V1.25h3.2v26.4Z" fill="#fff"/><path d="M250.8,8.05v19.6h-3.2V0l19,20.7V1.3h3.2V28.75Z" fill="#fff"/><path d="M288.1,27.65l-9.6-12.2L277,17v10.7h-3.25V1.25H277V13l10.85-11.7H292L280.6,13.15l11.55,14.5Z" fill="#fff"/></g></g><path d="M73.93,65a21.61,21.61,0,0,0-4.12-4.63,15.84,15.84,0,0,0-8.43-3.9,32.23,32.23,0,0,0-4.5-.34,1,1,0,0,0-1.14.79s0,.07,0,.1c-1,4.54-2.06,9.06-3.1,13.59-.3,1.3-.6,2.6-.89,3.89a1.3,1.3,0,0,0,0,.95,44.35,44.35,0,0,1,7-.76,28.38,28.38,0,0,1,7.18.59A4.6,4.6,0,0,1,69.73,80a18.19,18.19,0,0,1-1.91,8.16c-.38.18-.55-.08-.74-.21a13.41,13.41,0,0,0-7.52-2.4c-3-.08-6,0-8.92,0-1.29,0-1.27-.09-1.69,1.25-1.18,3.78-2.36,7.56-3.62,11.31a24,24,0,0,1-5.68,9.72,18.29,18.29,0,0,1-14.86,5.26,8.62,8.62,0,0,1-6.9-4.21,13.87,13.87,0,0,1-2-6.59c0-.65.15-1,.83-1,3-.14,5.48-1.43,8-3a16.85,16.85,0,0,0,6.73-8.1c1.88-4.53,3.53-9.14,5.24-13.74,2.14-5.71,4.29-11.43,6.2-17.22a2.64,2.64,0,0,0,.26-1.14,2.83,2.83,0,0,0-1.61.36A17.87,17.87,0,0,0,32,67a9.81,9.81,0,0,0-1.11,4.21c-.07,1.37-.24,2.74-.22,4.12,0,.85,0,.9-.84.86-3.38-.16-6.06-1.63-7.38-4.77-2.52-6-1.74-12.64,3.71-17.41a31.23,31.23,0,0,1,10.9-5.75,59.83,59.83,0,0,1,12-2.36,87.83,87.83,0,0,1,13.27-.71,38.71,38.71,0,0,1,9.57,1.29,12.41,12.41,0,0,1,5.9,3.29A7.35,7.35,0,0,1,79.43,58,17.46,17.46,0,0,1,73.93,65Z" fill="#fff"/><path d="M93.6,102.1l-1.4,1.35A50.09,50.09,0,0,1,87,107.87a13.45,13.45,0,0,1-7.41,2.67,24.65,24.65,0,0,1-4.38.12c-3.21-.37-5.4-2.4-6.05-5.93a20.85,20.85,0,0,1,.66-9.45,75.28,75.28,0,0,1,3.9-10.37c2-4.56,4.32-9,6.18-13.63a15.74,15.74,0,0,0,1.18-3.81.9.9,0,0,1,.79-.86,89.38,89.38,0,0,1,10.51-2,7.31,7.31,0,0,1,2.19,0,3.08,3.08,0,0,1,2.78,3.2,8.36,8.36,0,0,1-.94,4c-1.23,2.6-2.45,5.21-3.74,7.78q-4,8-8.1,16a9.59,9.59,0,0,0-1,3.17A2.11,2.11,0,0,0,85,101.35a2.08,2.08,0,0,0,1.08,0,7.79,7.79,0,0,0,3.53-1.51,26.34,26.34,0,0,0,8.13-9.38,57.8,57.8,0,0,0,2.85-7.19c1.87-4.9,3.76-9.78,5.89-14.57a2.83,2.83,0,0,1,1.58-1.57,24.76,24.76,0,0,1,6.8-2,10.73,10.73,0,0,1,4.47.38,2,2,0,0,1,1.56,1.83,11.15,11.15,0,0,1-.42,4.59,80.5,80.5,0,0,1-3,8.52c-2.18,5.56-4.93,10.84-7.51,16.21a14.68,14.68,0,0,0-1.2,5.65,5.08,5.08,0,0,0,.37,1.76,15.51,15.51,0,0,0,1.38,2.91c.45.78.44.86-.33,1.31a12.69,12.69,0,0,1-1.84.93,35.8,35.8,0,0,1-11.2,2.27,6.34,6.34,0,0,1-1.79-.19c-1.74-.38-2.43-1.2-2.36-3a30.41,30.41,0,0,1,.58-5.12A1.66,1.66,0,0,0,93.6,102.1Z" fill="#fff"/><path d="M247.55,74.73c.9-.86,1.57-1.52,2.26-2.15a37.07,37.07,0,0,1,9.89-6.73,12.33,12.33,0,0,1,3.72-1c3.27-.34,5.62,1.26,7.52,3.69a10.89,10.89,0,0,1,2.4,6.53,9.91,9.91,0,0,1-.47,3.38c-2.41,7.7-6.64,14.58-9.86,21.91a14.8,14.8,0,0,0-1.07,3.17,2.64,2.64,0,0,0,.57,2.29c.6.73,1.21,1.44,1.87,2.23a2.75,2.75,0,0,1-1.16.74,24.68,24.68,0,0,1-12.17,2.34,11.4,11.4,0,0,1-3.18-.49c-2.35-.75-3.56-2.52-3.28-5.31a22.12,22.12,0,0,1,2.14-7,53.7,53.7,0,0,1,6.51-10.38,48.17,48.17,0,0,0,3.83-5.35,16.11,16.11,0,0,0,1.7-4.17,7.73,7.73,0,0,0,.15-1.8A1.59,1.59,0,0,0,257.39,75a1.53,1.53,0,0,0-.7.13A21.83,21.83,0,0,0,250,78.86a27.62,27.62,0,0,0-7.58,10.63,111.68,111.68,0,0,0-5.91,18.28c-.13.53-.25,1-.83,1.18a35.31,35.31,0,0,1-7.68,2.2,6.39,6.39,0,0,1-4.1-.8,3.45,3.45,0,0,1-1.83-4,73.56,73.56,0,0,1,2.9-9.77c2.7-7.75,5.47-15.48,8.16-23.24a24.88,24.88,0,0,0,1.76-6.45c0-.39.29-.46.6-.54a53,53,0,0,1,8.64-1.5,9,9,0,0,1,1,0c1.78.05,2.29.44,2.68,2.16a15.91,15.91,0,0,1-.07,6.66Z" fill="#fff"/><path d="M209.86,75.85a9.43,9.43,0,0,1,11.3-1.77c2.06,1.21,2.75,3.24,2.91,5.47a22.2,22.2,0,0,1-2,10.8A47,47,0,0,1,212,105.08a21.59,21.59,0,0,1-10.62,6.08,21.09,21.09,0,0,1-10.23-.24,11,11,0,0,1-8.2-8.89,23.25,23.25,0,0,1,.05-8.72,35,35,0,0,1,5.5-14.47,35.73,35.73,0,0,1,11-10.5,27.85,27.85,0,0,1,9.88-3.92,14.52,14.52,0,0,1,6.9.38,11.17,11.17,0,0,1,6.59,5.76c-.36.31-.65.16-.93.12-6.6-.94-12.37.65-17.12,5.47a20,20,0,0,0-3.34,4.67A33.66,33.66,0,0,0,197.8,91.1a11.26,11.26,0,0,0,.38,6,5.8,5.8,0,0,0,3.07,3.34,3.57,3.57,0,0,0,2.76.1,12.28,12.28,0,0,0,6.13-5.13,17.89,17.89,0,0,0,2.72-8.52,24.42,24.42,0,0,0-.28-7.58C212.22,77.74,211.61,76.35,209.86,75.85Z" fill="#fff"/><path d="M149.41,82.9a22.87,22.87,0,0,0-.42-7,7.57,7.57,0,0,0-1-2.37,3.82,3.82,0,0,0-4.08-1.83,13.06,13.06,0,0,0-2.41.41,3.93,3.93,0,0,0-2.78,3.66,6.75,6.75,0,0,0,2.93,6.37A14.38,14.38,0,0,0,143,83c1.51.87,3.05,1.72,4.57,2.58,3.85,2.19,6.16,5.46,5.86,9.94a13.34,13.34,0,0,1-3.45,7.79,23.85,23.85,0,0,1-14.66,8,23.47,23.47,0,0,1-10.24-.5,15.19,15.19,0,0,1-4-1.74,8,8,0,0,1-3.91-5.52A11,11,0,0,1,120.7,93c.5,0,.49.42.59.67,1.74,4.52,5.15,6.94,9.79,7.86a9.43,9.43,0,0,0,5.81-.58A5.92,5.92,0,0,0,139,99.5a3,3,0,0,0-.15-4.19,10,10,0,0,0-2.61-1.64c-3-1.53-6.09-3-9-4.74A9.24,9.24,0,0,1,124,86.14a7.75,7.75,0,0,1-1-6.43A18.56,18.56,0,0,1,130.38,69a27.13,27.13,0,0,1,18.76-5.18,11.73,11.73,0,0,1,9.15,5.14,6.12,6.12,0,0,1-.06,7.67,14.36,14.36,0,0,1-3.51,3.4A22.23,22.23,0,0,1,149.41,82.9Z" fill="#fff"/><path d="M175.42,107.85a11.79,11.79,0,0,1-7,3.66,20.39,20.39,0,0,1-6,.11,6,6,0,0,1-5.57-5.79,21.3,21.3,0,0,1,.75-7.53,91.22,91.22,0,0,1,5.29-14.51c1.8-4.14,3.8-8.18,5.47-12.38a11.3,11.3,0,0,0,.92-3.08c0-.33.13-.57.48-.66,3.9-1.07,7.77-2.28,11.89-2.1a5.53,5.53,0,0,1,2.11.54A2.15,2.15,0,0,1,185,68.38a8.09,8.09,0,0,1-.36,1.76A101.33,101.33,0,0,1,181,80a146.35,146.35,0,0,0-6.12,16.45,20.31,20.31,0,0,0-.47,9.2A4.31,4.31,0,0,0,175.42,107.85Z" fill="#fff"/><path d="M189.71,52.63a9.16,9.16,0,0,1-4.79,7.62,12.41,12.41,0,0,1-8.35,1.43,4.56,4.56,0,0,1-4-4.56c-.17-3.76,1.68-6.42,4.76-8.26a11.11,11.11,0,0,1,7.85-1.36,4.9,4.9,0,0,1,4.5,5.13Z" fill="#fff"/></svg>