<svg xmlns="http://www.w3.org/2000/svg" xmlns:xlink="http://www.w3.org/1999/xlink" width="136" height="136" viewBox="0 0 136 136">
  <defs>
    <clipPath id="clip-path">
      <path id="Path_2345" data-name="Path 2345" d="M330,212h15.342v25.65H330Zm0,0" transform="translate(-330 -212)"/>
    </clipPath>
    <clipPath id="clip-path-2">
      <path id="Path_2347" data-name="Path 2347" d="M0,162H22.245v5.328H0Zm0,0" transform="translate(0 -162)"/>
    </clipPath>
    <clipPath id="clip-path-3">
      <path id="Path_2349" data-name="Path 2349" d="M582,162h22.391v5.328H582Zm0,0" transform="translate(-582 -162)"/>
    </clipPath>
  </defs>
  <g id="tesco" transform="translate(-0.399)">
    <rect id="Your_image_here" data-name="Your image here" width="136" height="136" transform="translate(0.399)" fill="#fff"/>
    <g id="surface1" transform="translate(12.4 36.62)">
      <path id="Path_2340" data-name="Path 2340" d="M442.831,252.877V251.1a63.857,63.857,0,0,1,7.161.022v17.055l1.617.039v1.821c-2.26.118-4.508.089-6.777.013v-2.242c-.109.091-.181.144-.246.2a9.314,9.314,0,0,1-4.638,2.375,10.443,10.443,0,0,1-2.873.08,8.44,8.44,0,0,1-2.57-.647,5.924,5.924,0,0,1-3.43-3.844,8.114,8.114,0,0,1-.387-2.4c-.017-2.415,0-4.83-.02-7.245-.006-1.006-.052-2.011-.081-3.016,0-.05-.013-.1-.022-.17a11.915,11.915,0,0,0-1.928-.266v-1.792c2.413-.081,4.8-.118,7.213.018v.329q0,6.486,0,12.972a3.525,3.525,0,0,0,.989,2.473,3.287,3.287,0,0,0,2.866.988,4.869,4.869,0,0,0,3.2-1.676,7.69,7.69,0,0,0,1.9-4.643,65.016,65.016,0,0,0-.032-8.193.228.228,0,0,0-.23-.258c-.481-.055-.959-.125-1.438-.189-.08-.01-.159-.018-.27-.031" transform="translate(-362.877 -212.504)" fill="#049071"/>
      <path id="Path_2341" data-name="Path 2341" d="M203.739,258.146a19.1,19.1,0,0,0-.227-3.031,8.348,8.348,0,0,0-.825-2.585,4.284,4.284,0,0,0-2.712-2.25,6.421,6.421,0,0,0-2.638-.132,4.338,4.338,0,0,0-3.185,2.211,11,11,0,0,0-1.18,5.279,19.146,19.146,0,0,0,.263,3.351,7.609,7.609,0,0,0,.832,2.559,4.154,4.154,0,0,0,2.075,1.949,5.791,5.791,0,0,0,3.581.283,4.342,4.342,0,0,0,2.645-1.77,6.217,6.217,0,0,0,.882-1.931,15.948,15.948,0,0,0,.489-3.934m-5.415,9.829a11.671,11.671,0,0,1-9.116-4.073,9.582,9.582,0,0,1,3.379-14.564,14.076,14.076,0,0,1,8.432-1.092,11.238,11.238,0,0,1,6.275,3.663,9.673,9.673,0,0,1,1.263,10.316,9,9,0,0,1-1.172,1.842,11.677,11.677,0,0,1-8.821,3.908h-.24" transform="translate(-158.445 -209.962)" fill="#049071"/>
      <path id="Path_2342" data-name="Path 2342" d="M604.436,247.693l.259-.747h1.992c-.018,1.726.045,3.437-.049,5.171a4.926,4.926,0,0,1-1.327.006,1.008,1.008,0,0,1-.523-.346,14.7,14.7,0,0,0-1.68-1.615,6.833,6.833,0,0,0-3.66-1.48,5.993,5.993,0,0,0-2.587.226,2.887,2.887,0,0,0-1.41.973,1.658,1.658,0,0,0,.334,2.443,4.776,4.776,0,0,0,1.754.792c1.3.325,2.607.628,3.914.925a18.693,18.693,0,0,1,4,1.266,6.114,6.114,0,0,1,1.992,1.423,4.291,4.291,0,0,1,1.063,2.552,5.893,5.893,0,0,1-.683,3.464,6.345,6.345,0,0,1-2.35,2.361,10.9,10.9,0,0,1-5.5,1.486,15.656,15.656,0,0,1-5.609-1.217c-.373-.136-.817-.4-1.212-.209-.411.194-.459.7-.592,1.086a10.968,10.968,0,0,1-1.891.094c-.047-2.113-.019-4.207-.026-6.31a.912.912,0,0,1,.167-.033c.426,0,.852.016,1.277.016a.356.356,0,0,1,.328.171,14.122,14.122,0,0,0,2.2,2.51,6.562,6.562,0,0,0,1.758,1.077,7.545,7.545,0,0,0,3.791.693,4.718,4.718,0,0,0,3.029-1.308,2.291,2.291,0,0,0,.708-1.242,2.058,2.058,0,0,0-.584-1.876,3.629,3.629,0,0,0-1.143-.731,17.25,17.25,0,0,0-3-.933c-1.324-.321-2.655-.62-3.97-.976a8.9,8.9,0,0,1-2.845-1.3,4.19,4.19,0,0,1-1.846-2.977,4.885,4.885,0,0,1,1.366-4.139,7.489,7.489,0,0,1,4-2.12,12.819,12.819,0,0,1,3.61-.258,10.881,10.881,0,0,1,3.678.9,2.628,2.628,0,0,0,1.268.19" transform="translate(-499.88 -208.747)" fill="#049071"/>
      <path id="Path_2343" data-name="Path 2343" d="M49.091,218.26v-1.885c.1-.008.183-.021.268-.02.968,0,1.937.013,2.907.013,1.77,0,3.539-.016,5.308-.01.55,0,1.1.053,1.648.085a1.387,1.387,0,0,1,.206.042v1.768c-.186,0-.346,0-.506,0a6.085,6.085,0,0,0-1.591.179.359.359,0,0,0-.3.3,6.081,6.081,0,0,0-.175,1.393q.011,8.567.013,17.135a4.471,4.471,0,0,0,.074.829c.2,1.03,1.642.973,2.455.961a10.6,10.6,0,0,0,5.779-1.391,6.728,6.728,0,0,0,2.445-3.954c.022-.069.041-.138.06-.2a6.239,6.239,0,0,1,1.731.046c-.135,2.372-.27,4.742-.408,7.147-.348.024-.682.065-1.016.067-1.476.008-2.951,0-4.427,0l-14.118,0H49.1c-.034-.632-.037-1.249-.028-1.891.11-.009.2-.019.294-.023.418-.016.838,0,1.251-.052.65-.08.88-.23.974-1.042a3.84,3.84,0,0,0,.01-.44q0-8.722,0-17.444a6.91,6.91,0,0,0-.052-.855.675.675,0,0,0-.562-.628,9.11,9.11,0,0,0-1.043-.132c-.276-.021-.554,0-.851,0" transform="translate(-41.54 -183.164)" fill="#049071"/>
      <g id="Group_2331" data-name="Group 2331" transform="translate(50.627 32.523)" clip-path="url(#clip-path)">
        <path id="Path_2344" data-name="Path 2344" d="M333.211,220.046h-3.14v-1.873c.174-.011.319-.027.464-.031a8.923,8.923,0,0,0,1.985-.232,3.11,3.11,0,0,0,2.12-1.675,11.412,11.412,0,0,0,.876-2.6c.092-.4.18-.8.272-1.2.014-.063.04-.123.065-.2a18.091,18.091,0,0,1,2.611-.035v5.929c1.747.04,3.454-.047,5.15.082v1.834h-5.126c-.008.152-.019.274-.019.4q-.006,5.626-.008,11.253c0,.763,0,1.526.032,2.289a1.535,1.535,0,0,0,.968,1.475,1.935,1.935,0,0,0,2.1-.3,3.314,3.314,0,0,0,1-1.651c.083-.265.147-.538.219-.806.021-.077.043-.152.068-.242h2.444c-.038.249-.07.491-.114.732a4.9,4.9,0,0,1-2.864,3.96,8.311,8.311,0,0,1-6.914-.239,3.963,3.963,0,0,1-2-2.785,8.566,8.566,0,0,1-.177-1.88q0-5.935,0-11.869c0-.1-.009-.2-.015-.339" transform="translate(-330.06 -212.146)" fill="#049071"/>
      </g>
      <g id="Group_2332" data-name="Group 2332" transform="translate(0 24.852)" clip-path="url(#clip-path-2)">
        <path id="Path_2346" data-name="Path 2346" d="M8.519,162.957H22.148c.117,0,.138.08-.016.14a18.214,18.214,0,0,0-3.734,2.782,6.893,6.893,0,0,1-5.3,2.259H.069c-.088,0-.088-.078-.025-.114a19.841,19.841,0,0,0,3.569-2.876,7.085,7.085,0,0,1,4.906-2.192" transform="translate(0.001 -162.81)" fill="#00529e"/>
      </g>
      <g id="Group_2333" data-name="Group 2333" transform="translate(89.288 24.852)" clip-path="url(#clip-path-3)">
        <path id="Path_2348" data-name="Path 2348" d="M591.488,162.957h13.629c.117,0,.138.08-.016.14a18.225,18.225,0,0,0-3.734,2.782,6.9,6.9,0,0,1-5.3,2.259H583.038c-.088,0-.088-.078-.025-.114a19.841,19.841,0,0,0,3.569-2.876,7.088,7.088,0,0,1,4.906-2.192" transform="translate(-582.82 -162.81)" fill="#00529e"/>
      </g>
      <path id="Path_2350" data-name="Path 2350" d="M154.262,162.957h13.629c.117,0,.138.08-.016.14a18.214,18.214,0,0,0-3.734,2.782,6.893,6.893,0,0,1-5.3,2.259H145.811c-.088,0-.088-.078-.025-.114a19.853,19.853,0,0,0,3.57-2.876,7.082,7.082,0,0,1,4.906-2.192" transform="translate(-123.383 -137.958)" fill="#00529e"/>
      <path id="Path_2351" data-name="Path 2351" d="M300,162.957h13.629c.117,0,.138.08-.016.14a18.2,18.2,0,0,0-3.734,2.782,6.894,6.894,0,0,1-5.3,2.259H291.554c-.088,0-.088-.078-.025-.114a19.865,19.865,0,0,0,3.569-2.876A7.082,7.082,0,0,1,300,162.957" transform="translate(-246.766 -137.958)" fill="#00529e"/>
      <path id="Path_2352" data-name="Path 2352" d="M445.746,162.957h13.629c.117,0,.138.08-.016.14a18.215,18.215,0,0,0-3.734,2.782,6.9,6.9,0,0,1-5.3,2.259H437.3c-.088,0-.088-.078-.025-.114a19.842,19.842,0,0,0,3.569-2.876,7.087,7.087,0,0,1,4.906-2.192" transform="translate(-370.149 -137.958)" fill="#00529e"/>
      <path id="Path_2353" data-name="Path 2353" d="M438.188.332c-8.574,0-14.254,4.173-14.254,10.52,0,5.826,5.2,9.709,12.992,9.709a30.311,30.311,0,0,0,7.424-.957V14.7a8.474,8.474,0,0,1-6.458,2.764c-4.6,0-7.758-2.9-7.758-7.071,0-4.116,3.267-7.1,7.833-7.1a8.336,8.336,0,0,1,6.086,2.477V.855a29.938,29.938,0,0,0-5.865-.523" transform="translate(-358.896 -0.282)" fill="#e1261c"/>
      <path id="Path_2354" data-name="Path 2354" d="M19.1,7.155c3.181.028,6.987.61,8.593,1.869V4.371H5.078V9.023c1.606-1.258,4.97-1.755,8.64-1.783v12.7c0,1.846-.163,2.386-.939,3.352h7.26c-.815-.966-.938-1.506-.938-3.352" transform="translate(-4.299 -3.702)" fill="#e1261c"/>
      <path id="Path_2355" data-name="Path 2355" d="M178.125,11.722a19.374,19.374,0,0,1-4.888.547h-1.884V7.24h2.558c2.277,0,6.236.484,7.724,1.742V4.371H165.18c.759.965.911,1.506.911,3.352V19.941c0,1.846-.152,2.414-.873,3.352h17.541V18.681c-2.406,1.73-6.988,1.743-8.848,1.715h-2.558V15.111h1.875a20.764,20.764,0,0,1,4.9.544" transform="translate(-139.839 -3.702)" fill="#e1261c"/>
      <path id="Path_2356" data-name="Path 2356" d="M309.157,1.311a31.194,31.194,0,0,0-8.644-1.3c-4.752,0-9.388,1.426-9.388,6.2,0,8.271,14.286,3.9,14.286,8.961,0,1.649-2.526,2.325-4.571,2.325a16.282,16.282,0,0,1-9.438-2.5v4.149a30.609,30.609,0,0,0,9.2,1.191c4.933,0,9.545-1.285,9.545-6.175,0-8.636-14.286-4.761-14.286-8.992,0-1.7,2.292-2.305,4.293-2.305,3.367,0,7.006,1.019,9,2.889" transform="translate(-246.462 -0.008)" fill="#e1261c"/>
      <path id="Path_2357" data-name="Path 2357" d="M570.621,10.427c0-3.992,2.506-7.228,6.437-7.228,3.871,0,6.439,3.236,6.439,7.228s-2.567,7.227-6.439,7.227c-3.932,0-6.437-3.235-6.437-7.227m18.553-.123c0-5.969-4.657-9.968-11.609-9.968-7.39,0-12.62,4.288-12.62,10.345,0,5.941,4.689,9.883,11.675,9.883,7.424,0,12.554-4.174,12.554-10.26" transform="translate(-478.274 -0.286)" fill="#e1261c"/>
    </g>
  </g>
</svg>
