<svg id="_711" data-name="711" xmlns="http://www.w3.org/2000/svg" width="135.879" height="135.879" viewBox="0 0 135.879 135.879">
  <rect id="Your_image_here" data-name="Your image here" width="135.879" height="135.879" fill="#fff"/>
  <g id="Group_17" data-name="Group 17" transform="translate(22.117 20.302)">
    <g id="Group_16" data-name="Group 16" transform="translate(0 0)">
      <g id="Group_15" data-name="Group 15">
        <g id="Group_14" data-name="Group 14">
          <g id="Group_13" data-name="Group 13">
            <g id="Group_12" data-name="Group 12">
              <rect id="Rectangle_20" data-name="Rectangle 20" width="91.927" height="95.413" fill="#006546"/>
              <path id="Path_22" data-name="Path 22" d="M96.425,120.261v3.579H74.374v-3.583H57.688c-1.633,0-2.958-1.7-2.958-3.8l-6.977-70.61a3.722,3.722,0,0,1,3.633-3.805h67.42a3.723,3.723,0,0,1,3.635,3.805l-6.9,70.61c0,2.1-1.326,3.8-2.958,3.8Z" transform="translate(-39.032 -34.239)" fill="#fff"/>
              <path id="Path_23" data-name="Path 23" d="M73.94,64.1h45.145c-4.445,1.666-17.977,10.826-21.357,16.984H73.992Z" transform="translate(-52.951 -45.967)" fill="#f60"/>
              <path id="Path_24" data-name="Path 24" d="M127.782,167.983c-.643,6.15-.667,13.641-.667,21.506H107.548a214.14,214.14,0,0,1,.964-21.506Z" transform="translate(-70.814 -101.181)" fill="#fe000c"/>
              <path id="Path_25" data-name="Path 25" d="M70.87,137.882h7.151v2.831h-3.13V143.1h3.13v2.384h-3.13v2.384h3.13V150.6H70.87Z" transform="translate(-51.319 -85.181)" fill="#006546"/>
              <path id="Path_26" data-name="Path 26" d="M106.382,137.882h7.151v2.831H110.4V143.1h3.129v2.384H110.4v2.384h3.129V150.6h-7.151Z" transform="translate(-70.194 -85.181)" fill="#006546"/>
              <path id="Path_27" data-name="Path 27" d="M145.5,137.882h7.151v2.831h-3.13V143.1h3.13v2.384h-3.13v2.384h3.13V150.6H145.5Z" transform="translate(-90.985 -85.181)" fill="#006546"/>
              <path id="Path_28" data-name="Path 28" d="M93.019,147.864h3.129V150.6H89V137.882h4.022Z" transform="translate(-60.954 -85.181)" fill="#006546"/>
              <path id="Path_29" data-name="Path 29" d="M123.205,137.882,125.2,150.6h5.171l2.421-12.714H129.8l-1.566,8.591-1.517-8.591Z" transform="translate(-79.136 -85.181)" fill="#006546"/>
              <rect id="Rectangle_21" data-name="Rectangle 21" width="3.873" height="12.714" transform="translate(63.353 52.7)" fill="#006546"/>
              <path id="Path_30" data-name="Path 30" d="M172.634,141.244c.2-1.391,2.186-1.019,2.186-.224v9.163h3.873V139.405c0-2.284-3.226-3.2-6.035-1.192" transform="translate(-105.408 -84.768)" fill="#006546"/>
              <path id="Path_31" data-name="Path 31" d="M133.863,95.864c.4-4.867,7.052-12.813,13.508-14.9V62.193c-17.755,7.946-29.3,19.965-31.8,33.623Z" transform="translate(-75.078 -44.952)" fill="#fe000c"/>
              <path id="Path_32" data-name="Path 32" d="M160.637,174.558a2.563,2.563,0,1,1,.753-1.82,2.473,2.473,0,0,1-.753,1.82m-3.382-3.376a2.214,2.214,0,1,0,1.564-.648,2.125,2.125,0,0,0-1.564.648m1.518.139a2.179,2.179,0,0,1,.77.1.7.7,0,0,1,.439.715.616.616,0,0,1-.274.556,1.03,1.03,0,0,1-.405.135.669.669,0,0,1,.475.277.768.768,0,0,1,.155.437v.206c0,.065,0,.134.006.209a.423.423,0,0,0,.025.147l.018.036h-.464a.16.16,0,0,0-.006-.028.226.226,0,0,0-.008-.032l-.008-.09v-.223a.69.69,0,0,0-.268-.645,1.21,1.21,0,0,0-.556-.09h-.394v1.108h-.493v-2.818Zm.542.455a1.34,1.34,0,0,0-.608-.1h-.428v1.007h.453a1.423,1.423,0,0,0,.478-.06.429.429,0,0,0,.294-.436.423.423,0,0,0-.189-.407" transform="translate(-96.704 -102.349)" fill="#006546"/>
            </g>
          </g>
        </g>
      </g>
    </g>
  </g>
</svg>
