<svg xmlns="http://www.w3.org/2000/svg" width="44.85" height="72.05" viewBox="0 0 44.85 72.05"><path d="M26.75,70.06A5.81,5.81,0,0,0,28.09,67,9.22,9.22,0,0,0,32,62.68c.34-1.17-.06-12.22-5.06-7.89-3.77,3.27-7,1.61-8.34.6L9.53,47.52a5.79,5.79,0,0,0-8.13.59A5.76,5.76,0,0,0,2,56.23l5.81,5,.25.21,10.58,9.17a5.67,5.67,0,0,0,3,1.33,5.82,5.82,0,0,0,.73.07h.08A5.78,5.78,0,0,0,26.75,70.06Z" fill="#e8e8e8"/><path d="M22.47,72.05A6.21,6.21,0,0,0,23.2,72a5.63,5.63,0,0,0,3-1.33l7.57-6.57,9.07-7.85a5.72,5.72,0,0,0,2-4.36,5.65,5.65,0,0,0-1.4-3.76,5.78,5.78,0,0,0-8.12-.59L22.43,58.7h0L20,60.77l0,0-.65.57a.24.24,0,0,0-.09.06c-1.8,1.39-6.46,4.16-11.21,0l10.58,9.17a5.59,5.59,0,0,0,2.43,1.22,6,6,0,0,0,1.33.18Z" fill="#fff"/><path d="M26.75,47a5.75,5.75,0,0,0,1.34-3.05A9.24,9.24,0,0,0,32,39.61c.34-1.17-.06-12.22-5.06-7.88-3.77,3.26-7,1.61-8.34.59L9.53,24.46A5.79,5.79,0,0,0,1.4,25,5.76,5.76,0,0,0,2,33.16L7.8,38.21c.09.06.16.13.25.2l10.58,9.17a5.68,5.68,0,0,0,3,1.34c.24,0,.48,0,.73.06h.08A5.75,5.75,0,0,0,26.75,47Z" fill="#e8e8e8"/><path d="M22.47,49a6.15,6.15,0,0,0,.73-.06,5.64,5.64,0,0,0,3-1.34L33.8,41l9.07-7.85a5.72,5.72,0,0,0,2-4.36,5.64,5.64,0,0,0-1.4-3.76,5.77,5.77,0,0,0-8.12-.59L22.43,35.63h0L20,37.71l0,0-.65.57-.09.06c-1.8,1.39-6.46,4.16-11.21,0l10.58,9.17a5.59,5.59,0,0,0,2.43,1.22,6,6,0,0,0,1.33.18Z" fill="#fff"/><path d="M26.75,23.93a5.78,5.78,0,0,0,1.34-3.05A9.24,9.24,0,0,0,32,16.55c.34-1.17-.06-12.22-5.06-7.89-3.77,3.27-7,1.61-8.34.6L9.53,1.4A5.78,5.78,0,0,0,1.4,2,5.64,5.64,0,0,0,0,5.75a5.76,5.76,0,0,0,2,4.36l5.81,5,.25.2,10.58,9.17a5.61,5.61,0,0,0,3,1.34c.24,0,.49.05.73.06h.08A5.78,5.78,0,0,0,26.75,23.93Z" fill="#e8e8e8"/><path d="M22.47,25.92l.73-.06a5.72,5.72,0,0,0,3-1.34L33.8,18l9.07-7.85a5.69,5.69,0,0,0,2-4.36A5.65,5.65,0,0,0,43.45,2a5.79,5.79,0,0,0-8.12-.59L22.43,12.57h0L20,14.64l0,0-.65.57a.47.47,0,0,0-.09.06c-1.8,1.39-6.46,4.16-11.21,0l10.58,9.17a5.59,5.59,0,0,0,2.43,1.22,6,6,0,0,0,1.33.18Z" fill="#fff"/></svg>