<svg xmlns="http://www.w3.org/2000/svg" xmlns:xlink="http://www.w3.org/1999/xlink" width="902.6" height="902.6" viewBox="0 0 902.6 902.6"><defs><clipPath id="a"><circle cx="-507.48" cy="442.1" r="451.3" fill="none"/></clipPath><clipPath id="b"><circle cx="451.3" cy="451.3" r="451.3" fill="none"/></clipPath><clipPath id="c"><circle cx="1406.68" cy="381.94" r="451.3" fill="none"/></clipPath></defs><g clip-path="url(#a)"><path d="M199.28,927.39V314.75L-1709.06,927.39Z" fill="#cb271b"/></g><circle cx="451.3" cy="451.3" r="451.3" fill="#ff8f1c"/><g clip-path="url(#b)"><path d="M1158.06,936.59V324L-750.28,936.59Z" fill="#cb271b"/><path d="M-73.8,387.54C-62.21,376.87,723.66.81,723.66.81l40.46,61.44Z" fill="#ff7320"/></g><path d="M647,326.5H605V309.45a11.36,11.36,0,0,0-11.35-11.36h-17V266.82a11.36,11.36,0,0,0-11.36-11.35H337.94a11.35,11.35,0,0,0-11.35,11.35v31.27H309.48a11.36,11.36,0,0,0-11.35,11.36V326.5H256.2a29.19,29.19,0,0,0-29.12,29.13V547.48a29.21,29.21,0,0,0,29.12,29.13h70.35v59.68a11.35,11.35,0,0,0,11.35,11.35H565.26a11.36,11.36,0,0,0,11.36-11.35V576.58H647a29.19,29.19,0,0,0,29.11-29.12V355.6A29.19,29.19,0,0,0,647,326.5ZM553.88,534V624.9H349.25V534Zm-233-207.46v-5.67h5.68v5.67Zm28.43,0V278.18H553.89V326.5Zm227.35,0v-5.67h5.68v5.67Zm0,207.46h17a11.36,11.36,0,0,0,0-22.71H309.48a11.36,11.36,0,0,0,0,22.71h17.06v19.89H256.2a6.41,6.41,0,0,1-6.41-6.39V355.6a6.42,6.42,0,0,1,6.4-6.39H647a6.43,6.43,0,0,1,6.41,6.39V547.48a6.42,6.42,0,0,1-6.4,6.4H576.62Z" fill="#fff"/><path d="M372.18,548.73H531a11.37,11.37,0,0,1,11.36,11.36h0A11.37,11.37,0,0,1,531,571.46H372.18a11.37,11.37,0,0,1-11.37-11.37h0A11.37,11.37,0,0,1,372.18,548.73Z" fill="#fff"/><path d="M372.18,585.69H531a11.37,11.37,0,0,1,11.36,11.36h0A11.37,11.37,0,0,1,531,608.42H372.18a11.37,11.37,0,0,1-11.37-11.37h0A11.37,11.37,0,0,1,372.18,585.69Z" fill="#fff"/><g clip-path="url(#c)"><path d="M2113.43,867.22V254.59L205.09,867.22Z" fill="#cb271b"/></g></svg>