<svg xmlns="http://www.w3.org/2000/svg" width="61.14" height="21.83" viewBox="0 0 61.14 21.83"><path d="M20.58,10.54a13,13,0,0,1,.11-1.76l0-8.26-5.78,0,0,13.28L8.61,2.89A6.74,6.74,0,0,0,3.36.16,3,3,0,0,0,0,2.84,2.63,2.63,0,0,0,0,3.4l0,18.27,5.68,0,0-15.2L13,18.85a5.65,5.65,0,0,0,4.81,3,2.84,2.84,0,0,0,3-2.73v-.26l0-5.83a8.13,8.13,0,0,1-.12-2.46" fill="#fff"/><path d="M51.94.05s-7.67-.61-9.13,6.59L42.72,17.2H33.41s-6.6.43-6.41-6.41c.1-3.6,1.53-5.19,3.58-5.83a11,11,0,0,1,3.28-.38h4.29V0H35c-4.13-.22-13.2.28-14.29,8.74V13c.62,3.26,3.45,8.62,15.33,8.66H48.61V7.43s0-3.17,3.66-3.17,3.35,2.87,3.35,2.87.56,3.54-5.55,2.81v4.45s11,2,11-7.39c0,0,.86-6.95-9.18-6.95" fill="#fff"/><path d="M20.58,10.54A8.46,8.46,0,0,0,20.7,13V8.78a14.85,14.85,0,0,0-.11,1.76" fill="#fff"/><path d="M30,11A5.79,5.79,0,1,0,35.83,5.2h0A5.79,5.79,0,0,0,30,11h0m3.31-4.44,0,.1a.35.35,0,0,0,.24.15,2.2,2.2,0,0,0,.44,0l.2-.1.34,0,.1.29,0,.24s0,0-.24,0-.25-.14-.4-.14,0,.29-.33.1a1.1,1.1,0,0,1-.35-.3l-.1-.19Zm-.1,8.57-.39-.2-.14-.14-.15-.1-.2.05,0-.24,0-.25,0-.15.15,0,.24.24.1.2.25.24s0-.1.19,0l.2.15-.05.19s.05.1-.15,0m.44-.88a.78.78,0,0,1-.39-.1c-.14-.1.1,0-.14-.1l-.25-.1-.39-.14.1-.15.25-.05a1.37,1.37,0,0,1,.38.15,1.13,1.13,0,0,0,.44.1l.15.24Zm.15-1.36-.3.2-.29.1-.34.05-.39,0-.19.15-.29.19-.1.34,0,.35,0,.43-.19-.1a1.55,1.55,0,0,0-.14-.29,1.14,1.14,0,0,1-.15-.34v-.34l-.24-.34-.2-.39-.14-.1-.25-.15-.1-.24-.05-.2.05-.24.1-.25v-.1a1.67,1.67,0,0,1,0-.39.58.58,0,0,1,.15-.34l.2-.29.24-.05.15-.2.1-.14-.15-.2-.29-.29-.1-.1-.1-.2-.1-.25V8.94l.2-.39L31.16,8l.29-.24.05-.24.39-.25.54,0,.2-.15.24-.2.05-.14L33,7l-.15.29-.24.2,0,.19.2.2.2.24.05.2L33,8.6l-.29.24.14-.38-.1-.1a2.3,2.3,0,0,1-.39.05c-.19,0-.24.24-.24.24v.19l.15.25,0,.19,0,.24-.2.15-.2.05-.14.29v.83l.19.1.05.14s0,.1-.2.2-.15.14-.15.14l0,.15.25,0,.14.05.1.1.15.1.1.2v.19l.1.2h.14a1.35,1.35,0,0,1,.49,0c.29,0,0,0,.19,0s.15,0,.15,0l.34.24c.15.09.05.14.05.14m1.85,3.22a1.92,1.92,0,0,0-.34-.3l-.2-.05-.2,0-.1-.15-.1-.24.19.05h.34s.15-.2.34,0a1.33,1.33,0,0,1,.24.39v.25s.05.29-.19.05m1.61-.39H36.9l-.29.1-.2,0-.2-.2.15-.2h.24l.2,0h.14s0,.05.1,0l.35-.14.1.1-.05.1s.05.14-.15.14m2-2.73-.14.15v.2l-.2.24-.14-.05,0-.2-.06-.24-.18-.1h.15l.05-.14L39,12.7h.2l.14.15Zm.49-1.06-.15.19,0,.2a.28.28,0,0,1-.2,0,.52.52,0,0,0-.24.05h-.34l.19-.15.2-.1-.14-.2,0-.14.29-.05.15.05.29-.2v-.24l.14-.05.15.2ZM36.1,5.78l.22-.15.34,0,.39.15.2.1h.44l.1.14.44.24.19.1.24.2.3.2.24.24.2.49.2.14.38.15.25.19.05.2.29.39.19.44v.29a1.74,1.74,0,0,0,.05.39,1.47,1.47,0,0,1,0,.29l0,.2h-.2l-.2-.15,0-.29-.29-.2-.24-.19h-.15l-.1.24.19.2L40,10v.39l-.2.2v.29l-.14.2L39.34,11l-.34.19-.2,0-.2-.48-.05-.25-.24-.1-.14,0-.1.2-.3,0-.14,0v-.15L38,9.78l.39-.15.19-.14,0-.39-.29,0-.29,0L37.39,9,37,8.75l-.15-.14-.19.14-.25-.05s0,.05-.14,0l-.15-.1-.39-.38L35.63,8l-.24.2s-.25.29-.4.29h-.14l0,.34-.2.25v.34H35l.2,0,.2-.1.14-.19.15.1.1.14.1.1.24.14.25.1.29.25-.05.34-.34.2.1.29s0-.25.19,0l.15.2.19.19h.24l.25.1.29.15.19.1.2,0s.05-.1.2-.05a1.21,1.21,0,0,1,.3.2l.24.24-.2.59-.14.29-.25.24-.34.05-.24.1,0,.25.15.34-.1.24-.2.29s-.05.1-.29.1a4.07,4.07,0,0,0-.49.05l-.19.3-.2.29-.05.39-.29,0-.29-.15s.05,0,0-.29l-.1-.29-.29-.15-.1-.14-.15-.2-.14-.3.1-.58.2-.34.1-.15v-.34l0-.14-.15-.1-.24,0-.2.29h-.24l-.15,0a1,1,0,0,0-.29-.05h-.15l-.49-.24a.32.32,0,0,0-.1-.39,3.59,3.59,0,0,1-.39-.39l0-.29,0-.25.1-.24.2-.44.29-.39.3-.2-.3-.29L33.26,9l.15-.2h.34l.2.14.1-.19v-.2l-.34-.19-.2-.3.2-.24.38-.1s.1-.05.3,0l.2.1.29.14.24-.14.05-.29.1-.25L35.56,7l.24-.15.4-.14.24-.2-.1-.14-.2-.15h-.49l0-.15.15-.24L36,5.69v.15Z" fill="#fff"/><path d="M38.83,13.07h0s0,0,0,0" fill="#fff"/></svg>