<svg xmlns="http://www.w3.org/2000/svg" width="732.61" height="193.45" viewBox="0 0 732.61 193.45"><g opacity="0.07"><path d="M165.24,56.6c-3.25-5.36-7.46-9.28-11.71-13.18-6.82-6.27-14.94-9.62-24-11.08a90,90,0,0,0-12.81-1c-1.94,0-2.85.63-3.28,2.53-2.89,12.9-5.87,25.77-8.81,38.65L102.1,83.63a3.68,3.68,0,0,0-.06,2.69,127.53,127.53,0,0,1,19.87-2.16c6.88-.13,13.72.06,20.45,1.67C149.3,87.5,153,91.94,153.3,99.11c.36,8.3-2.23,15.9-5.44,23.2-1.08.52-1.55-.21-2.11-.6a38.25,38.25,0,0,0-21.39-6.82c-8.46-.21-16.92,0-25.38,0-3.67,0-3.6-.25-4.8,3.56-3.37,10.74-6.72,21.5-10.32,32.16C80.39,161,75.58,170.59,67.7,178.33c-11.74,11.53-26.07,16.19-42.26,15a24.55,24.55,0,0,1-19.65-12A39.8,39.8,0,0,1,0,162.55c-.13-1.84.44-2.73,2.37-2.82,8.48-.39,15.59-4.07,22.7-8.51a47.7,47.7,0,0,0,19.13-23c5.36-12.88,10.06-26,14.94-39.09,6.07-16.26,12.2-32.52,17.65-49a7.47,7.47,0,0,0,.73-3.22c-1.72-.36-3.18.46-4.6,1a50.65,50.65,0,0,0-27,24.26,27.92,27.92,0,0,0-3.17,12c-.19,3.91-.68,7.8-.61,11.74,0,2.42,0,2.57-2.4,2.46-9.61-.47-17.24-4.65-21-13.6-7.19-17.18-4.95-35.94,10.56-49.53,9-7.91,19.78-12.55,31-16.35s22.61-5.3,34.15-6.71a249.57,249.57,0,0,1,37.76-2c9.19.29,18.34,1.12,27.23,3.68,6.31,1.81,12.2,4.42,16.8,9.36,6.38,6.86,8.08,14.7,4.66,23.42C177.75,44.62,172.17,50.89,165.24,56.6Z" transform="translate(0 -0.03)" fill="#f19c28"/><path d="M221.21,162c-1.39,1.34-2.7,2.58-4,3.84a144.79,144.79,0,0,1-14.87,12.56,38.4,38.4,0,0,1-21.1,7.6c-4.15.26-8.23.8-12.45.33-9.15-1-15.36-6.83-17.21-16.87-1.68-9.13-.58-18,1.88-26.87a211.41,211.41,0,0,1,11.1-29.51c5.77-13,12.28-25.59,17.58-38.77a45.25,45.25,0,0,0,3.35-10.84,2.54,2.54,0,0,1,2.24-2.45,248.74,248.74,0,0,1,29.9-5.74,20.65,20.65,0,0,1,6.23.07c5.06,1,7.69,4,7.9,9.11a23.85,23.85,0,0,1-2.66,11.32c-3.52,7.4-7,14.83-10.65,22.15-7.62,15.23-15.34,30.39-23,45.57a27.43,27.43,0,0,0-2.93,9c-.61,5,2.36,7.93,7.43,7.3a22.46,22.46,0,0,0,10-4.29c10-6.92,17.38-16.1,23.13-26.69,3.52-6.49,5.51-13.6,8.12-20.45C246.53,94.5,251.92,80.6,258,67a8,8,0,0,1,4.48-4.45A69.71,69.71,0,0,1,281.8,57,30.52,30.52,0,0,1,294.51,58a5.79,5.79,0,0,1,4.44,5.2,31.76,31.76,0,0,1-1.18,13.07,231.91,231.91,0,0,1-8.56,24.25c-6.23,15.82-14,30.84-21.37,46.12-2.4,5-3.13,10.54-3.4,16.06a14,14,0,0,0,1,5A45.07,45.07,0,0,0,269.4,176c1.29,2.21,1.25,2.44-.93,3.73a37.79,37.79,0,0,1-5.24,2.64,101.7,101.7,0,0,1-31.88,6.47,18.68,18.68,0,0,1-5.1-.54c-4.92-1.09-6.9-3.42-6.71-8.52a87,87,0,0,1,1.66-14.58A4.58,4.58,0,0,0,221.21,162Z" transform="translate(0 -0.03)" fill="#f19c28"/><path d="M659.2,84.16c2.57-2.45,4.47-4.33,6.45-6.12,8.5-7.67,17.56-14.53,28.13-19.16A35.43,35.43,0,0,1,704.36,56c9.31-1,16,3.58,21.4,10.5a31,31,0,0,1,6.84,18.59,29,29,0,0,1-1.33,9.61c-6.87,21.92-18.9,41.48-28.07,62.34a41.45,41.45,0,0,0-3,9,7.49,7.49,0,0,0,1.6,6.51c1.71,2.07,3.45,4.11,5.33,6.33-.85,1.18-2.16,1.56-3.3,2.13-10.91,5.5-22.59,7-34.63,6.66a33,33,0,0,1-9-1.41c-6.7-2.13-10.14-7.15-9.35-15.09.7-7,3.18-13.57,6.11-19.94,4.9-10.63,11.37-20.29,18.51-29.52,3.83-4.94,7.76-9.79,10.9-15.23a46.06,46.06,0,0,0,4.85-11.85,20.85,20.85,0,0,0,.42-5.11,4.53,4.53,0,0,0-4.35-4.7,4.48,4.48,0,0,0-2,.37,61.55,61.55,0,0,0-19.08,10.76c-9.79,8.22-16.66,18.56-21.59,30.23a322,322,0,0,0-16.82,52c-.35,1.53-.71,2.75-2.35,3.35-7.14,2.6-14.22,5.34-21.83,6.28a18.41,18.41,0,0,1-11.67-2.28c-4.51-2.59-6.24-6.34-5.21-11.45,1.91-9.51,5-18.67,8.23-27.8,7.7-22.05,15.56-44.05,23.23-66.11,2.08-6,4.56-11.9,5-18.35.08-1.1.8-1.33,1.7-1.55A154.14,154.14,0,0,1,649.44,56a26.22,26.22,0,0,1,2.94,0c5.06.15,6.53,1.26,7.64,6.14a44.89,44.89,0,0,1-.21,19C659.67,81.79,659.53,82.51,659.2,84.16Z" transform="translate(0 -0.03)" fill="#f19c28"/><path d="M552,87.34c8.63-9.14,22.69-10.59,32.17-5,5.84,3.44,7.82,9.21,8.28,15.55a63.39,63.39,0,0,1-5.78,30.75c-7,15.66-16.31,29.88-28.69,41.9-8.57,8.31-18.32,14.8-30.21,17.29a59.68,59.68,0,0,1-29.09-.67c-12.87-3.7-20.55-12.26-23.33-25.3-1.76-8.28-1.25-16.58.12-24.81,2.46-14.75,7.07-28.72,15.67-41.16A101.58,101.58,0,0,1,522.55,66c8.83-5.3,18-9.5,28.12-11.15a41.05,41.05,0,0,1,19.63,1.07c8.59,2.8,14.62,8.5,18.74,16.4-1,.87-1.86.44-2.66.32-18.75-2.68-35.17,1.87-48.69,15.58a56.28,56.28,0,0,0-9.51,13.29c-4.9,9.23-8.8,18.86-10.49,29.24-.94,5.72-1.08,11.47,1.08,17a16.44,16.44,0,0,0,8.72,9.48,10.07,10.07,0,0,0,7.86.29c7.6-2.74,13.11-8,17.43-14.58,4.8-7.36,7.07-15.59,7.74-24.24.55-7.2.9-14.45-.78-21.58C558.71,92.73,557,88.75,552,87.34Z" transform="translate(0 -0.03)" fill="#f19c28"/><path d="M380,107.41c.44-7.1.37-13.57-1.2-19.92A21.28,21.28,0,0,0,376,80.73c-2.76-4.2-6.62-6-11.63-5.21-2.29.37-4.62.41-6.85,1.19a11.18,11.18,0,0,0-7.9,10.41c-.57,7.6,2.15,13.64,8.33,18.11,1.17.89,2.39,1.72,3.64,2.49,4.32,2.48,8.69,4.87,13,7.34,11,6.23,17.53,15.53,16.67,28.29-.57,8.46-4.35,15.76-9.82,22.14-11,12.85-25.21,20-41.69,22.73a66.22,66.22,0,0,1-29.13-1.42,43,43,0,0,1-11.42-4.93c-5.88-3.71-9.87-8.78-11.11-15.72-2.13-11.93,1.39-22,10.22-30,1.41.12,1.39,1.2,1.66,1.91,5,12.86,14.64,19.74,27.86,22.37a27.08,27.08,0,0,0,16.52-1.66,16.88,16.88,0,0,0,6-4.1,8.45,8.45,0,0,0-.42-11.92,28.13,28.13,0,0,0-7.44-4.68c-8.65-4.34-17.31-8.65-25.71-13.47a26.1,26.1,0,0,1-9-8c-3.79-5.62-4.54-11.8-2.93-18.27,3.17-12.79,10.42-22.86,21-30.54,15.91-11.59,33.85-16.38,53.36-14.73,10.71.9,19.78,5.45,26,14.6,5.06,7.39,5,14.48-.16,21.82a40.44,40.44,0,0,1-10,9.67A63.13,63.13,0,0,1,380,107.41Z" transform="translate(0 -0.03)" fill="#f19c28"/><path d="M454,178.4a33.39,33.39,0,0,1-20,10.39,57.93,57.93,0,0,1-17.19.32c-9.44-1.45-14.79-6.93-15.84-16.47-.8-7.31.4-14.4,2.13-21.42,3.54-14.3,9.2-27.84,15.06-41.3,5.12-11.77,10.82-23.28,15.57-35.2a32.27,32.27,0,0,0,2.6-8.76c.1-1,.39-1.63,1.38-1.9,11.09-3.05,22.1-6.48,33.82-6a15.24,15.24,0,0,1,6,1.55,6.13,6.13,0,0,1,3.86,6.45,23.23,23.23,0,0,1-1.05,5c-2.83,9.64-6.74,18.87-10.56,28.14-6.34,15.4-13,30.7-17.42,46.8A58,58,0,0,0,451,172.21,12.42,12.42,0,0,0,454,178.4Z" transform="translate(0 -0.03)" fill="#f19c28"/><path d="M494.64,21.27c-.82,9.53-5.21,17-13.62,21.67A35.31,35.31,0,0,1,457.25,47c-6.78-1.18-11-6-11.29-13-.48-10.69,4.79-18.26,13.56-23.5A31.4,31.4,0,0,1,481.83,6.7c5,.92,9.25,3.19,11.57,8.08A14.2,14.2,0,0,1,494.64,21.27Z" transform="translate(0 -0.03)" fill="#f19c28"/></g></svg>