<?xml version="1.0" encoding="utf-8"?>
<!-- Generator: Adobe Illustrator 25.3.1, SVG Export Plug-In . SVG Version: 6.00 Build 0)  -->
<svg version="1.1" id="Layer_1" xmlns="http://www.w3.org/2000/svg" xmlns:xlink="http://www.w3.org/1999/xlink" x="0px" y="0px"
	 viewBox="0 0 50 50" style="enable-background:new 0 0 50 50;" xml:space="preserve">
<style type="text/css">
	.st0{fill:#FFFFFF;}
</style>
<path class="st0" d="M44.2,17.6c0-1.6-0.3-3.1-0.9-4.6c-1-2.6-3-4.6-5.6-5.6c-1.5-0.6-3-0.9-4.6-0.9c-2-0.1-2.7-0.1-7.9-0.1
	s-5.8,0-7.8,0.1c-1.6,0-3.1,0.3-4.6,0.9c-1.3,0.5-2.4,1.2-3.4,2.2c-1,1-1.7,2.1-2.2,3.4c-0.6,1.5-0.9,3-0.9,4.6
	c-0.1,2-0.1,2.7-0.1,7.9s0,5.8,0.1,7.8c0,1.6,0.3,3.1,0.9,4.6c1,2.6,3,4.6,5.6,5.6c1.5,0.6,3,0.8,4.6,0.9c2,0.1,2.7,0.1,7.8,0.1
	s5.8,0,7.8-0.1c1.6,0,3.1-0.3,4.6-0.9c2.6-1,4.6-3,5.6-5.6c0.6-1.5,0.9-3,0.9-4.6c0.1-2,0.1-2.7,0.1-7.8S44.3,19.6,44.2,17.6z
	 M40.8,33.1c0,1.2-0.2,2.4-0.7,3.5c-0.6,1.7-1.9,3-3.6,3.6c-1.1,0.4-2.3,0.6-3.5,0.7C31,41,30.4,41,25.3,41s-5.7,0-7.7-0.1
	c-1.2,0-2.4-0.2-3.5-0.7c-0.8-0.3-1.6-0.8-2.2-1.4c-0.6-0.6-1.1-1.4-1.4-2.2c-0.4-1.1-0.6-2.3-0.6-3.5c-0.1-2-0.1-2.6-0.1-7.7
	s0-5.7,0.1-7.7c0-1.2,0.2-2.4,0.6-3.5c0.6-1.7,2-3,3.6-3.6c1.1-0.4,2.3-0.6,3.5-0.7c2-0.1,2.6-0.1,7.7-0.1s5.7,0,7.7,0.1
	c1.2,0,2.4,0.2,3.5,0.7c0.8,0.3,1.6,0.8,2.2,1.4c0.6,0.6,1.1,1.4,1.4,2.2c0.4,1.1,0.6,2.3,0.7,3.5c0.1,2,0.1,2.6,0.1,7.7
	S40.9,31.1,40.8,33.1z"/>
<path class="st0" d="M25.3,15.6c-5.4,0-9.8,4.4-9.8,9.8s4.4,9.8,9.8,9.8s9.8-4.4,9.8-9.8l0,0C35.1,20,30.7,15.6,25.3,15.6z
	 M25.3,31.8c-3.5,0-6.3-2.8-6.3-6.3s2.8-6.3,6.3-6.3s6.3,2.8,6.3,6.3l0,0C31.7,28.9,28.8,31.8,25.3,31.8z"/>
<path class="st0" d="M37.8,15.2c0,1.3-1,2.3-2.2,2.3c-1.3,0-2.3-1-2.3-2.2s1-2.3,2.2-2.3c0,0,0,0,0,0C36.7,13,37.7,14,37.8,15.2z"/>
</svg>
