<svg xmlns="http://www.w3.org/2000/svg" width="258.38" height="247.52" viewBox="0 0 258.38 247.52"><path d="M252.78,112.18a18.53,18.53,0,0,0-10.28-31.6L180,71.48A8.14,8.14,0,0,1,173.8,67l-28-56.67a18.53,18.53,0,0,0-33.22,0L84.58,67a8.15,8.15,0,0,1-6.16,4.48l-62.56,9.1A18.52,18.52,0,0,0,5.59,112.18l45.26,44.14a8.19,8.19,0,0,1,2.36,7.24l-10.7,62.3a18.52,18.52,0,0,0,26.88,19.52l56-29.42a8.19,8.19,0,0,1,7.61,0l56,29.42a18.51,18.51,0,0,0,26.88-19.52l-10.7-62.3a8.21,8.21,0,0,1,2.35-7.24ZM195,165.29l10.7,62.3a8.19,8.19,0,0,1-11.87,8.63L137.86,206.8a18.55,18.55,0,0,0-17.26,0L64.67,236.22a8.19,8.19,0,0,1-11.06-3.43,8.29,8.29,0,0,1-.82-5.2l10.7-62.3a18.48,18.48,0,0,0-5.35-16.39L12.81,104.77a8.19,8.19,0,0,1,4.56-14l62.56-9.09A18.51,18.51,0,0,0,93.85,71.6l28-56.69a8.18,8.18,0,0,1,14.71,0l28,56.69a18.49,18.49,0,0,0,13.95,10.14L241,90.84a8.18,8.18,0,0,1,4.53,14l-45.26,44.14a18.53,18.53,0,0,0-5.37,16.35Z" fill="#ff8f1c"/></svg>