<svg xmlns="http://www.w3.org/2000/svg" width="50" height="50" viewBox="0 0 50 50"><path d="M44.24,17.56A13.84,13.84,0,0,0,43.36,13a9.71,9.71,0,0,0-5.57-5.57,13.93,13.93,0,0,0-4.62-.89c-2-.09-2.68-.12-7.85-.12s-5.81,0-7.84.12a13.85,13.85,0,0,0-4.62.88,9.37,9.37,0,0,0-3.38,2.2,9.53,9.53,0,0,0-2.19,3.37,13.91,13.91,0,0,0-.88,4.62c-.1,2-.12,2.68-.12,7.85s0,5.81.11,7.84a14.22,14.22,0,0,0,.88,4.62,9.79,9.79,0,0,0,5.57,5.57,14,14,0,0,0,4.62.88c2,.09,2.68.11,7.84.11s5.82,0,7.85-.11a13.84,13.84,0,0,0,4.61-.88,9.73,9.73,0,0,0,5.57-5.57,13.93,13.93,0,0,0,.89-4.62c.09-2,.11-2.67.11-7.84S44.33,19.59,44.24,17.56ZM40.82,33.1a10.53,10.53,0,0,1-.66,3.53,6.31,6.31,0,0,1-3.61,3.62A10.46,10.46,0,0,1,33,40.9c-2,.09-2.61.11-7.69.11s-5.69,0-7.69-.11a10.4,10.4,0,0,1-3.53-.65,5.92,5.92,0,0,1-2.19-1.42,6,6,0,0,1-1.42-2.19,10.46,10.46,0,0,1-.65-3.53c-.09-2-.11-2.61-.11-7.69s0-5.68.11-7.68a10.48,10.48,0,0,1,.65-3.54,6.33,6.33,0,0,1,3.62-3.6,10.65,10.65,0,0,1,3.53-.66c2-.09,2.61-.11,7.69-.11s5.68,0,7.68.11a10.67,10.67,0,0,1,3.54.66A5.84,5.84,0,0,1,38.74,12a5.92,5.92,0,0,1,1.42,2.18,10.67,10.67,0,0,1,.66,3.54c.08,2,.11,2.6.11,7.68S40.9,31.1,40.82,33.1Z" fill="#ff8f1c"/><path d="M25.32,15.63a9.78,9.78,0,1,0,9.78,9.78A9.78,9.78,0,0,0,25.32,15.63Zm0,16.12a6.34,6.34,0,1,1,6.34-6.34A6.34,6.34,0,0,1,25.32,31.75Z" fill="#ff8f1c"/><path d="M37.77,15.24A2.29,2.29,0,1,1,35.48,13,2.29,2.29,0,0,1,37.77,15.24Z" fill="#ff8f1c"/></svg>