<?xml version="1.0" encoding="utf-8"?>
<!-- Generator: Adobe Illustrator 25.3.1, SVG Export Plug-In . SVG Version: 6.00 Build 0)  -->
<svg version="1.1" id="Layer_1" xmlns="http://www.w3.org/2000/svg" xmlns:xlink="http://www.w3.org/1999/xlink" x="0px" y="0px"
	 viewBox="0 0 50 50" style="enable-background:new 0 0 50 50;" xml:space="preserve">
<style type="text/css">
	.st0{fill:#FFFFFF;}
</style>
<path class="st0" d="M46.3,11.8c-1.6,0.7-3.3,1.2-5,1.4c1.8-1.1,3.2-2.8,3.8-4.8c-1.7,1-3.6,1.7-5.5,2.1c-3.3-3.5-8.8-3.7-12.3-0.4
	c-1.8,1.7-2.8,4-2.8,6.4c0,0.7,0.1,1.3,0.2,2c-7-0.3-13.6-3.7-18-9.1c-2.3,4-1.1,9.1,2.7,11.6c-1.4,0-2.7-0.4-3.9-1.1V20
	c0,4.2,2.9,7.7,7,8.6c-0.7,0.2-1.5,0.3-2.3,0.3c-0.6,0-1.1,0-1.6-0.1c1.2,3.5,4.4,6,8.1,6.1c-3.1,2.4-6.9,3.7-10.8,3.7
	c-0.7,0-1.4,0-2.1-0.1c4,2.6,8.6,3.9,13.4,3.9c16,0,24.8-13.3,24.8-24.8c0-0.4,0-0.8,0-1.1C43.6,15.1,45.1,13.6,46.3,11.8z"/>
</svg>
