<svg xmlns="http://www.w3.org/2000/svg" xmlns:xlink="http://www.w3.org/1999/xlink" width="135" height="135" viewBox="0 0 135 135">
  <defs>
    <linearGradient id="linear-gradient" x1="-0.001" y1="0.009" x2="0.99" gradientUnits="objectBoundingBox">
      <stop offset="0" stop-color="#ffb900"/>
      <stop offset="0.338" stop-color="#f38000"/>
      <stop offset="0.567" stop-color="#f83c72"/>
      <stop offset="0.78" stop-color="#fc1cbe"/>
      <stop offset="0.93" stop-color="#fe08ed"/>
      <stop offset="1" stop-color="#f0f"/>
    </linearGradient>
    <linearGradient id="linear-gradient-2" x1="-0.439" y1="0.875" x2="1.574" y2="0.051" gradientUnits="objectBoundingBox">
      <stop offset="0" stop-color="#ee0a3f"/>
      <stop offset="1" stop-color="#ee0a3f" stop-opacity="0"/>
    </linearGradient>
    <linearGradient id="linear-gradient-3" x1="0.242" y1="0.336" x2="1.225" y2="0.921" gradientUnits="objectBoundingBox">
      <stop offset="0" stop-color="#ed6600"/>
      <stop offset="1" stop-color="#f98200"/>
    </linearGradient>
  </defs>
  <g id="lazada" transform="translate(-709 -1171)">
    <rect id="Your_image_here" data-name="Your image here" width="135" height="135" transform="translate(709 1171)" fill="#fff"/>
    <g id="layer1" transform="translate(1525.106 1323.962)">
      <g id="g975" transform="translate(-805.606 -100.398)">
        <g id="layer1-5" transform="translate(0 0)">
          <g id="layer1-2" transform="translate(0 0)">
            <g id="g1006" transform="translate(46.592 3.298)">
              <g id="g35" transform="translate(0 0.881)">
                <path id="path33" d="M128.747,9.43h2.582V21.855h4.451v2.453h-7.023L128.747,9.43" transform="translate(-128.747 -9.43)" fill="#000083"/>
              </g>
              <g id="g41" transform="translate(7.73 4.608)">
                <path id="path39" d="M161.853,22.844a4.376,4.376,0,0,1,3.506,1.685V23.065h2.409v10.95h-2.409V32.552a4.376,4.376,0,0,1-3.506,1.685,5.457,5.457,0,0,1-5.283-5.7,5.452,5.452,0,0,1,5.283-5.694m.438,2.193a3.26,3.26,0,0,0-3.242,3.5,3.251,3.251,0,1,0,6.483,0,3.257,3.257,0,0,0-3.241-3.5" transform="translate(-156.569 -22.844)" fill="#000083"/>
              </g>
              <g id="g47" transform="translate(20.804 4.83)">
                <path id="path45" d="M203.62,32.691l5.742-6.861h-5.656V23.642h8.768v1.929L206.754,32.4h5.85v2.188H203.62v-1.9" transform="translate(-203.62 -23.642)" fill="#000083"/>
              </g>
              <g id="g53" transform="translate(30.635 4.608)">
                <path id="path51" d="M244.283,22.844a4.376,4.376,0,0,1,3.506,1.685V23.065H250.2v10.95h-2.409V32.552a4.376,4.376,0,0,1-3.506,1.685,5.453,5.453,0,0,1-5.278-5.7,5.448,5.448,0,0,1,5.278-5.694m.437,2.193a3.26,3.26,0,0,0-3.241,3.5,3.251,3.251,0,1,0,6.482,0,3.257,3.257,0,0,0-3.241-3.5" transform="translate(-239.005 -22.844)" fill="#000083"/>
              </g>
              <g id="g59" transform="translate(43.428 0)">
                <path id="path57" d="M290.328,10.868a4.36,4.36,0,0,1,3.5,1.685V6.26h2.409V22.04h-2.409V20.576a4.36,4.36,0,0,1-3.5,1.685,5.457,5.457,0,0,1-5.283-5.7,5.452,5.452,0,0,1,5.283-5.694m.437,2.193a3.26,3.26,0,0,0-3.241,3.5,3.251,3.251,0,1,0,6.482,0,3.257,3.257,0,0,0-3.241-3.5" transform="translate(-285.045 -6.26)" fill="#000083"/>
              </g>
              <g id="g65" transform="translate(56.209 4.608)">
                <path id="path63" d="M336.34,22.844a4.36,4.36,0,0,1,3.5,1.685V23.065h2.4v10.95H339.83V32.552a4.36,4.36,0,0,1-3.5,1.685,5.457,5.457,0,0,1-5.283-5.7,5.46,5.46,0,0,1,5.294-5.694m.438,2.193a3.26,3.26,0,0,0-3.242,3.5,3.251,3.251,0,1,0,6.483,0,3.257,3.257,0,0,0-3.241-3.5" transform="translate(-331.046 -22.843)" fill="#000083"/>
              </g>
            </g>
            <g id="g942" transform="translate(0 0)">
              <g id="g71" transform="translate(0.008)">
                <path id="path69" d="M18.476,29.872a1.492,1.492,0,0,1-.746-.194C15.784,28.552,1.37,19.515.825,19.239A1.3,1.3,0,0,1,.08,18.195V5.518A1.372,1.372,0,0,1,.7,4.34l.1-.06C2.2,3.415,6.865.567,7.6.157A1.119,1.119,0,0,1,8.163,0a1.163,1.163,0,0,1,.529.134s6.532,4.258,7.531,4.638a5.153,5.153,0,0,0,2.237.47,5.011,5.011,0,0,0,2.505-.611c.977-.515,7.218-4.474,7.285-4.474a.984.984,0,0,1,.522-.142,1.1,1.1,0,0,1,.559.157c.85.47,6.637,4.012,6.883,4.168A1.342,1.342,0,0,1,36.864,5.5V18.18a1.29,1.29,0,0,1-.746,1.044c-.544.3-14.914,9.336-16.9,10.44a1.491,1.491,0,0,1-.746.209" transform="translate(-0.079)" fill="url(#linear-gradient)"/>
              </g>
              <g id="g79" transform="translate(18.33 4.899)">
                <path id="path77" d="M66.02,42.605h.075a1.492,1.492,0,0,0,.746-.194c1.946-1.126,16.353-10.164,16.9-10.44a1.29,1.29,0,0,0,.746-1.044V18.251a1.356,1.356,0,0,0-.142-.619L66.02,27.691V42.605" transform="translate(-66.02 -17.632)" fill="url(#linear-gradient-2)"/>
              </g>
              <g id="g970" transform="translate(18.266 29.693) rotate(180)">
                <path id="path968" d="M0,0H.074A1.476,1.476,0,0,1,.811.192C2.737,1.306,16.99,10.247,17.529,10.52a1.276,1.276,0,0,1,.738,1.033V24.095a1.342,1.342,0,0,1-.14.612L0,14.755V0" transform="translate(0)" fill="url(#linear-gradient-3)"/>
              </g>
            </g>
          </g>
        </g>
      </g>
    </g>
  </g>
</svg>
