<?xml version="1.0" encoding="utf-8"?>
<!-- Generator: Adobe Illustrator 25.3.1, SVG Export Plug-In . SVG Version: 6.00 Build 0)  -->
<svg version="1.1" id="Layer_1" xmlns="http://www.w3.org/2000/svg" xmlns:xlink="http://www.w3.org/1999/xlink" x="0px" y="0px"
	 viewBox="0 0 1544 674" style="enable-background:new 0 0 1544 674;" xml:space="preserve">
<style type="text/css">
	.st0{fill:#D60812;}
	.st1{fill:#FF7800;}
	.st2{fill:url(#SVGID_1_);}
	.st3{fill:url(#SVGID_2_);}
	.st4{fill:url(#SVGID_3_);}
	.st5{fill:url(#SVGID_4_);}
	.st6{fill:url(#SVGID_5_);}
	.st7{fill:url(#SVGID_6_);}
	.st8{fill:url(#SVGID_7_);}
</style>
<g>
	<g id="Layer_2_1_">
		<g id="Layer_1-2">
			<polygon points="790,201.6 830.4,201.6 830.4,66.4 863,66.4 863,52.6 751.5,52.6 751.5,66.5 789,66.5 			"/>
			<polygon points="918.3,200.6 958.8,200.6 958.8,65.4 991.4,65.4 991.4,51.6 879.8,51.6 879.8,65.5 917.3,65.5 			"/>
			<path d="M666.8,46.5c-45-0.3-81.7,35.9-82,80.9s35.9,81.7,80.9,82s81.7-35.9,82-80.9c0-0.2,0-0.4,0-0.6
				C747.9,83.1,711.6,46.7,666.8,46.5z M665.1,191.9c-24,0-43.4-28.6-43.4-63.9s19.4-63.9,43.4-63.9s43.4,28.5,43.4,63.9
				S689,191.9,665.1,191.9z"/>
			<path d="M1087.7,50.3h-31.6L995,199.6h16.1l18.1-42.8l61.8-0.2l17.3,43.6h43.3L1087.7,50.3z M1033.8,140.4l24.2-58.7l25.2,58.7
				L1033.8,140.4z"/>
			<polygon points="514.3,53.1 514.3,121.4 471.4,121.4 471.4,52.6 429.6,52.6 429.6,204 471.4,204 471.4,204 472.5,204 
				472.5,133.5 514.3,133.5 514.3,202.9 557.2,202.9 557.2,53.1 			"/>
			<rect x="422.5" y="213.2" class="st0" width="728.4" height="3.5"/>
			<polygon class="st0" points="784.7,194.5 825.1,194.5 825.1,59.3 857.7,59.3 857.7,45.5 746.1,45.5 746.1,59.4 783.7,59.4 			"/>
			<polygon class="st0" points="913,193.5 953.4,193.5 953.4,58.3 986,58.3 986,44.5 874.5,44.5 874.5,58.4 912,58.4 			"/>
			<path class="st0" d="M661.4,39.4c-45-0.3-81.7,35.9-82,80.9s35.9,81.7,80.9,82c45,0.3,81.7-35.9,82-80.9c0-0.2,0-0.4,0-0.6
				C742.5,76,706.3,39.6,661.4,39.4z M659.8,184.7c-24,0-43.4-28.6-43.4-63.8S635.7,57,659.8,57s43.4,28.6,43.4,63.9
				S683.7,184.7,659.8,184.7z"/>
			<path class="st0" d="M1082.4,43.1h-31.6l-61.2,149.4h16.1l18.1-42.8l61.9-0.2l17.3,43.6h43.2L1082.4,43.1z M1028.4,133.3
				l24.3-58.7l25.1,58.7H1028.4z"/>
			<polygon class="st0" points="508.9,46 508.9,114.3 466,114.3 466,45.5 424.2,45.5 424.2,196.9 466,196.9 466,196.9 467.1,196.9 
				467.1,126.4 508.9,126.4 508.9,195.8 551.9,195.8 551.9,46 			"/>
			<path d="M1116.8,43.2h-4.4v-1.7h10.8v1.7h-4.4v12.8h-1.8L1116.8,43.2z"/>
			<path d="M1130.4,55.9l-3.8-11.7v11.7h-1.8V41.5h2.5l4,12.3l3.8-12.3h2.5v14.5h-1.8V44.2l-3.8,11.7H1130.4z"/>
			<path class="st1" d="M143.7,414.6c-2.4-0.3,0.3-27.3,0.6-29.9c1.7-16,10.8-29.7,21-41.9c10.9-12.9,31.9-26.6,49-29.6
				c0,0-34.1,99.7-46.6,129.6c-12.5,29.9-23.3,73.3-48.2,89.8c-24.9,16.5-24.9,17.4-37.4,20.8c-7.1,2-14.4,3.1-21.7,3.4
				c0,0-1.4,71.5,66.6,65.6s88.1-59.9,93.9-72.3c5.8-12.4,26.6-82.1,26.6-82.1s45.4-1.9,64,0c25.3,2.6,39.1,15.5,39.1,15.5
				s30.7-63.2-10-72.3c-38.5-8.6-81.5,1.7-81.5,1.7l25.8-109.7c0,0,44-2.5,69.8,17.4c25.8,20,30.7,32.4,30.7,32.4
				s62.6-47.9,18.5-88.6s-193.8-15.3-214.2-8.6c-20.4,6.6-106.6,29.2-99.4,104.7C96.3,421.2,143.7,414.6,143.7,414.6z"/>
			<path class="st1" d="M426.2,363.1c0,0,53.3-13.9,72.3-12.5c19,1.4,20,18.3,15.8,31.6c-4.2,13.3-70.6,144.6-70.6,144.6
				s-14.1,28.3,6.7,29.9c20.8,1.7,61.5-35.7,77.3-79.8c15.8-44,43.2-108.8,43.2-108.8s42.4-23.3,72.3-10.8
				c28.7,12-56.5,174.5-56.5,174.5s-8.3,24.1-5,36.6c2.6,8.6,6.5,16.7,11.5,24c0,0-11.6,10-40,15.8c-28.3,5.8-60.7,10.8-60.7-10
				c0.2-13.5,1.8-26.9,5-40c0,0-41.2,44.2-66.9,47.5c-25.8,3.3-73.3,15-73.5-48.4C357,496.1,422.9,403,426.2,363.1z"/>
			<path class="st1" d="M808.5,452.9c0,0,84.8-34.1,46-82.3c-27-33.7-80.2-27.8-116.2-14.9c-36,12.9-67.3,41.1-77.1,79.1
				c-5.6,21.5,2.5,40.3,21.8,51.4c54.9,31.6,69.8,30.7,71.5,47.4s-20.8,23.3-29.9,24.9s-60.5,0-75.5-49.9c0,0-30.9,23.3-20.9,63.2
				c7.1,28.3,39.2,38.9,64.8,41.6c40.6,4.3,85.1-11.1,112.9-40c25.1-26.2,35.8-62.6,9.1-91.8c-17.6-19.2-61-26.4-66.3-55.2
				c-6.7-35.7,21.5-35.5,29.1-36.6C816.8,384.7,808.5,452.9,808.5,452.9z"/>
			<path class="st1" d="M919,369c0,0,53.6-17.6,75.2-11.8c21.6,5.8,12,19.3,6.2,38.4s-46.9,111-52.3,143.8
				c-6.5,39.6,4,55.8,6.7,52.3c0,0-15,20-46.6,22.4c-31.7,2.4-69.8,1.7-56.5-65.6S923.2,387.2,919,369z"/>
			<path class="st1" d="M939.8,292.5c0,0-14.1,47.4,38.2,42.4s55.7-47.9,55.7-48.2c2.4-30-27.5-36.1-50.5-31.1
				C962,260.3,947.8,272.5,939.8,292.5z"/>
			<path class="st1" d="M1219.8,385.2c0,0-84.7-22.1-124.6,64.4c-39.9,86.4,0,103.9,11.6,103.9c11.6,0,52.3-18.7,57.3-80.6
				s-17.4-59-17.4-59s25.5-26.2,59.6-11.3c34.1,15,16.4,78.3,4.8,100.7c-11.6,22.4-54.4,103.5-124.2,110s-113.9-31.7-83-133.6
				C1036.2,372.5,1179.3,301.6,1219.8,385.2z"/>
			<path class="st1" d="M1286.3,361.5c0,0,63.1-16.6,69.8-5.5c10.3,17.3,0,54.5,0,54.5s69.9-77.1,113-54.5
				c27.2,14.2,39,49.5,28.9,77.9c-7.4,20.5-17.5,40.3-26.6,59.9c-9.7,20.7-19.6,41.4-29.5,62c-15,30.9-6.7,15.8-2.5,22.4
				c4,5.6,8.4,10.9,13.3,15.8c-14.8,8.6-31.3,14-48.3,15.9c-26.6,2.5-72.8,6.5-61.5-40.7c6.5-27.1,20.6-51.4,36.6-73.9
				c15.5-22.1,37-42.3,42.3-69.8c2.2-11.2-2-20.8-14.1-16.4c-8.8,3.1-17.2,7.3-25.1,12.3c-25.6,16.7-43.3,42.6-54.7,70.5
				c-14.2,34.1-25.3,69.5-33.3,105.5c0,0-29.1,12.1-46.6,13.9s-35.9-8-33.3-24.4C1222.2,538.9,1293.8,373.1,1286.3,361.5z"/>
			<g>
				
					<linearGradient id="SVGID_1_" gradientUnits="userSpaceOnUse" x1="240.0439" y1="1532.8467" x2="240.0439" y2="1367.1901" gradientTransform="matrix(1 0 0 -1 0 1887.4381)">
					<stop  offset="4.000000e-02" style="stop-color:#FFFFFF;stop-opacity:0"/>
					<stop  offset="6.000000e-02" style="stop-color:#FAE2E3;stop-opacity:0.12"/>
					<stop  offset="0.12" style="stop-color:#EE979B;stop-opacity:0.42"/>
					<stop  offset="0.19" style="stop-color:#DA2029;stop-opacity:0.9"/>
					<stop  offset="0.21" style="stop-color:#D60812"/>
					<stop  offset="0.3" style="stop-color:#D60812"/>
					<stop  offset="0.39" style="stop-color:#D70C16;stop-opacity:0.98"/>
					<stop  offset="0.48" style="stop-color:#D91A23;stop-opacity:0.93"/>
					<stop  offset="0.57" style="stop-color:#DD3139;stop-opacity:0.84"/>
					<stop  offset="0.66" style="stop-color:#E25057;stop-opacity:0.71"/>
					<stop  offset="0.74" style="stop-color:#E9797F;stop-opacity:0.54"/>
					<stop  offset="0.83" style="stop-color:#F1ABAF;stop-opacity:0.34"/>
					<stop  offset="0.91" style="stop-color:#FBE5E6;stop-opacity:0.1"/>
					<stop  offset="0.95" style="stop-color:#FFFFFF;stop-opacity:0"/>
				</linearGradient>
				<path class="st2" d="M143.7,414.6c-2.4-0.3,0.3-27.3,0.6-29.9c1.7-16,10.8-29.7,21-41.9c10.9-12.9,31.9-26.6,49-29.6
					c0,0-34.1,99.7-46.6,129.6c-12.5,29.9-23.3,73.3-48.2,89.8c-24.9,16.5-24.9,17.4-37.4,20.8c-7.1,2-14.4,3.1-21.7,3.4
					c0,0-1.4,71.5,66.6,65.6s88.1-59.9,93.9-72.3c5.8-12.4,26.6-82.1,26.6-82.1s45.4-1.9,64,0c25.3,2.6,39.1,15.5,39.1,15.5
					s30.7-63.2-10-72.3c-38.5-8.6-81.5,1.7-81.5,1.7l25.8-109.7c0,0,44-2.5,69.8,17.4c25.8,20,30.7,32.4,30.7,32.4
					s62.6-47.9,18.5-88.6s-193.8-15.3-214.2-8.6c-20.4,6.6-106.6,29.2-99.4,104.7C96.3,421.2,143.7,414.6,143.7,414.6z"/>
				
					<linearGradient id="SVGID_2_" gradientUnits="userSpaceOnUse" x1="503.0714" y1="1532.8467" x2="503.0714" y2="1367.1901" gradientTransform="matrix(1 0 0 -1 0 1887.4381)">
					<stop  offset="4.000000e-02" style="stop-color:#FFFFFF;stop-opacity:0"/>
					<stop  offset="6.000000e-02" style="stop-color:#FAE2E3;stop-opacity:0.12"/>
					<stop  offset="0.12" style="stop-color:#EE979B;stop-opacity:0.42"/>
					<stop  offset="0.19" style="stop-color:#DA2029;stop-opacity:0.9"/>
					<stop  offset="0.21" style="stop-color:#D60812"/>
					<stop  offset="0.3" style="stop-color:#D60812"/>
					<stop  offset="0.39" style="stop-color:#D70C16;stop-opacity:0.98"/>
					<stop  offset="0.48" style="stop-color:#D91A23;stop-opacity:0.93"/>
					<stop  offset="0.57" style="stop-color:#DD3139;stop-opacity:0.84"/>
					<stop  offset="0.66" style="stop-color:#E25057;stop-opacity:0.71"/>
					<stop  offset="0.74" style="stop-color:#E9797F;stop-opacity:0.54"/>
					<stop  offset="0.83" style="stop-color:#F1ABAF;stop-opacity:0.34"/>
					<stop  offset="0.91" style="stop-color:#FBE5E6;stop-opacity:0.1"/>
					<stop  offset="0.95" style="stop-color:#FFFFFF;stop-opacity:0"/>
				</linearGradient>
				<path class="st3" d="M426.2,363.1c0,0,53.3-13.9,72.3-12.5c19,1.4,20,18.3,15.8,31.6c-4.2,13.3-70.6,144.6-70.6,144.6
					s-14.1,28.3,6.7,29.9c20.8,1.7,61.5-35.7,77.3-79.8c15.8-44,43.2-108.8,43.2-108.8s42.4-23.3,72.3-10.8
					c28.7,12-56.5,174.5-56.5,174.5s-8.3,24.1-5,36.6c2.6,8.6,6.5,16.7,11.5,24c0,0-11.6,10-40,15.8c-28.3,5.8-60.7,10.8-60.7-10
					c0.2-13.5,1.8-26.9,5-40c0,0-41.2,44.2-66.9,47.5c-25.8,3.3-73.3,15-73.5-48.4C357,496.1,422.9,403,426.2,363.1z"/>
				
					<linearGradient id="SVGID_3_" gradientUnits="userSpaceOnUse" x1="745.4656" y1="1532.8467" x2="745.4656" y2="1367.1901" gradientTransform="matrix(1 0 0 -1 0 1887.4381)">
					<stop  offset="4.000000e-02" style="stop-color:#FFFFFF;stop-opacity:0"/>
					<stop  offset="6.000000e-02" style="stop-color:#FAE2E3;stop-opacity:0.12"/>
					<stop  offset="0.12" style="stop-color:#EE979B;stop-opacity:0.42"/>
					<stop  offset="0.19" style="stop-color:#DA2029;stop-opacity:0.9"/>
					<stop  offset="0.21" style="stop-color:#D60812"/>
					<stop  offset="0.3" style="stop-color:#D60812"/>
					<stop  offset="0.39" style="stop-color:#D70C16;stop-opacity:0.98"/>
					<stop  offset="0.48" style="stop-color:#D91A23;stop-opacity:0.93"/>
					<stop  offset="0.57" style="stop-color:#DD3139;stop-opacity:0.84"/>
					<stop  offset="0.66" style="stop-color:#E25057;stop-opacity:0.71"/>
					<stop  offset="0.74" style="stop-color:#E9797F;stop-opacity:0.54"/>
					<stop  offset="0.83" style="stop-color:#F1ABAF;stop-opacity:0.34"/>
					<stop  offset="0.91" style="stop-color:#FBE5E6;stop-opacity:0.1"/>
					<stop  offset="0.95" style="stop-color:#FFFFFF;stop-opacity:0"/>
				</linearGradient>
				<path class="st4" d="M808.5,452.9c0,0,84.8-34.1,46-82.3c-27-33.7-80.2-27.8-116.2-14.9c-36,12.9-67.3,41.1-77.1,79.1
					c-5.6,21.5,2.5,40.3,21.8,51.4c54.9,31.6,69.8,30.7,71.5,47.4s-20.8,23.3-29.9,24.9s-60.5,0-75.5-49.9c0,0-30.9,23.3-20.9,63.2
					c7.1,28.3,39.2,38.9,64.8,41.6c40.6,4.3,85.1-11.1,112.9-40c25.1-26.2,35.8-62.6,9.1-91.8c-17.6-19.2-61-26.4-66.3-55.2
					c-6.7-35.7,21.5-35.5,29.1-36.6C816.8,384.7,808.5,452.9,808.5,452.9z"/>
				
					<linearGradient id="SVGID_4_" gradientUnits="userSpaceOnUse" x1="928.3098" y1="1532.8467" x2="928.3098" y2="1367.1901" gradientTransform="matrix(1 0 0 -1 0 1887.4381)">
					<stop  offset="4.000000e-02" style="stop-color:#FFFFFF;stop-opacity:0"/>
					<stop  offset="6.000000e-02" style="stop-color:#FAE2E3;stop-opacity:0.12"/>
					<stop  offset="0.12" style="stop-color:#EE979B;stop-opacity:0.42"/>
					<stop  offset="0.19" style="stop-color:#DA2029;stop-opacity:0.9"/>
					<stop  offset="0.21" style="stop-color:#D60812"/>
					<stop  offset="0.3" style="stop-color:#D60812"/>
					<stop  offset="0.39" style="stop-color:#D70C16;stop-opacity:0.98"/>
					<stop  offset="0.48" style="stop-color:#D91A23;stop-opacity:0.93"/>
					<stop  offset="0.57" style="stop-color:#DD3139;stop-opacity:0.84"/>
					<stop  offset="0.66" style="stop-color:#E25057;stop-opacity:0.71"/>
					<stop  offset="0.74" style="stop-color:#E9797F;stop-opacity:0.54"/>
					<stop  offset="0.83" style="stop-color:#F1ABAF;stop-opacity:0.34"/>
					<stop  offset="0.91" style="stop-color:#FBE5E6;stop-opacity:0.1"/>
					<stop  offset="0.95" style="stop-color:#FFFFFF;stop-opacity:0"/>
				</linearGradient>
				<path class="st5" d="M919,369c0,0,53.6-17.6,75.2-11.8c21.6,5.8,12,19.3,6.2,38.4s-46.9,111-52.3,143.8
					c-6.5,39.6,4,55.8,6.7,52.3c0,0-15,20-46.6,22.4c-31.7,2.4-69.8,1.7-56.5-65.6S923.2,387.2,919,369z"/>
				
					<linearGradient id="SVGID_5_" gradientUnits="userSpaceOnUse" x1="985.96" y1="1532.8467" x2="985.96" y2="1367.1901" gradientTransform="matrix(1 0 0 -1 0 1887.4381)">
					<stop  offset="4.000000e-02" style="stop-color:#FFFFFF;stop-opacity:0"/>
					<stop  offset="6.000000e-02" style="stop-color:#FAE2E3;stop-opacity:0.12"/>
					<stop  offset="0.12" style="stop-color:#EE979B;stop-opacity:0.42"/>
					<stop  offset="0.19" style="stop-color:#DA2029;stop-opacity:0.9"/>
					<stop  offset="0.21" style="stop-color:#D60812"/>
					<stop  offset="0.3" style="stop-color:#D60812"/>
					<stop  offset="0.39" style="stop-color:#D70C16;stop-opacity:0.98"/>
					<stop  offset="0.48" style="stop-color:#D91A23;stop-opacity:0.93"/>
					<stop  offset="0.57" style="stop-color:#DD3139;stop-opacity:0.84"/>
					<stop  offset="0.66" style="stop-color:#E25057;stop-opacity:0.71"/>
					<stop  offset="0.74" style="stop-color:#E9797F;stop-opacity:0.54"/>
					<stop  offset="0.83" style="stop-color:#F1ABAF;stop-opacity:0.34"/>
					<stop  offset="0.91" style="stop-color:#FBE5E6;stop-opacity:0.1"/>
					<stop  offset="0.95" style="stop-color:#FFFFFF;stop-opacity:0"/>
				</linearGradient>
				<path class="st6" d="M939.8,292.5c0,0-14.1,47.4,38.2,42.4s55.7-47.9,55.7-48.2c2.4-30-27.5-36.1-50.5-31.1
					C962,260.3,947.8,272.5,939.8,292.5z"/>
				
					<linearGradient id="SVGID_6_" gradientUnits="userSpaceOnUse" x1="1110.0183" y1="1532.8467" x2="1110.0183" y2="1367.1901" gradientTransform="matrix(1 0 0 -1 0 1887.4381)">
					<stop  offset="4.000000e-02" style="stop-color:#FFFFFF;stop-opacity:0"/>
					<stop  offset="6.000000e-02" style="stop-color:#FAE2E3;stop-opacity:0.12"/>
					<stop  offset="0.12" style="stop-color:#EE979B;stop-opacity:0.42"/>
					<stop  offset="0.19" style="stop-color:#DA2029;stop-opacity:0.9"/>
					<stop  offset="0.21" style="stop-color:#D60812"/>
					<stop  offset="0.3" style="stop-color:#D60812"/>
					<stop  offset="0.39" style="stop-color:#D70C16;stop-opacity:0.98"/>
					<stop  offset="0.48" style="stop-color:#D91A23;stop-opacity:0.93"/>
					<stop  offset="0.57" style="stop-color:#DD3139;stop-opacity:0.84"/>
					<stop  offset="0.66" style="stop-color:#E25057;stop-opacity:0.71"/>
					<stop  offset="0.74" style="stop-color:#E9797F;stop-opacity:0.54"/>
					<stop  offset="0.83" style="stop-color:#F1ABAF;stop-opacity:0.34"/>
					<stop  offset="0.91" style="stop-color:#FBE5E6;stop-opacity:0.1"/>
					<stop  offset="0.95" style="stop-color:#FFFFFF;stop-opacity:0"/>
				</linearGradient>
				<path class="st7" d="M1219.8,385.2c0,0-84.7-22.1-124.6,64.4c-39.9,86.4,0,103.9,11.6,103.9c11.6,0,52.3-18.7,57.3-80.6
					s-17.4-59-17.4-59s25.5-26.2,59.6-11.3c34.1,15,16.4,78.3,4.8,100.7c-11.6,22.4-54.4,103.5-124.2,110s-113.9-31.7-83-133.6
					C1036.2,372.5,1179.3,301.6,1219.8,385.2z"/>
				
					<linearGradient id="SVGID_7_" gradientUnits="userSpaceOnUse" x1="1358.0277" y1="1532.8467" x2="1358.0277" y2="1367.1901" gradientTransform="matrix(1 0 0 -1 0 1887.4381)">
					<stop  offset="4.000000e-02" style="stop-color:#FFFFFF;stop-opacity:0"/>
					<stop  offset="6.000000e-02" style="stop-color:#FAE2E3;stop-opacity:0.12"/>
					<stop  offset="0.12" style="stop-color:#EE979B;stop-opacity:0.42"/>
					<stop  offset="0.19" style="stop-color:#DA2029;stop-opacity:0.9"/>
					<stop  offset="0.21" style="stop-color:#D60812"/>
					<stop  offset="0.3" style="stop-color:#D60812"/>
					<stop  offset="0.39" style="stop-color:#D70C16;stop-opacity:0.98"/>
					<stop  offset="0.48" style="stop-color:#D91A23;stop-opacity:0.93"/>
					<stop  offset="0.57" style="stop-color:#DD3139;stop-opacity:0.84"/>
					<stop  offset="0.66" style="stop-color:#E25057;stop-opacity:0.71"/>
					<stop  offset="0.74" style="stop-color:#E9797F;stop-opacity:0.54"/>
					<stop  offset="0.83" style="stop-color:#F1ABAF;stop-opacity:0.34"/>
					<stop  offset="0.91" style="stop-color:#FBE5E6;stop-opacity:0.1"/>
					<stop  offset="0.95" style="stop-color:#FFFFFF;stop-opacity:0"/>
				</linearGradient>
				<path class="st8" d="M1286.3,361.5c0,0,63.1-16.6,69.8-5.5c10.3,17.3,0,54.5,0,54.5s69.9-77.1,113-54.5
					c27.2,14.2,39,49.5,28.9,77.9c-7.4,20.5-17.5,40.3-26.6,59.9c-9.7,20.7-19.6,41.4-29.5,62c-15,30.9-6.7,15.8-2.5,22.4
					c4,5.6,8.4,10.9,13.3,15.8c-14.8,8.6-31.3,14-48.3,15.9c-26.6,2.5-72.8,6.5-61.5-40.7c6.5-27.1,20.6-51.4,36.6-73.9
					c15.5-22.1,37-42.3,42.3-69.8c2.2-11.2-2-20.8-14.1-16.4c-8.8,3.1-17.2,7.3-25.1,12.3c-25.6,16.7-43.3,42.6-54.7,70.5
					c-14.2,34.1-25.3,69.5-33.3,105.5c0,0-29.1,12.1-46.6,13.9s-35.9-8-33.3-24.4C1222.2,538.9,1293.8,373.1,1286.3,361.5z"/>
			</g>
		</g>
	</g>
</g>
</svg>
