<svg xmlns="http://www.w3.org/2000/svg" width="136" height="136" viewBox="0 0 136 136">
  <g id="maxvalu" transform="translate(0.239)">
    <rect id="Your_image_here" data-name="Your image here" width="136" height="136" transform="translate(-0.239)" fill="#fff"/>
    <g id="MaxValu_logo__2nd_" data-name="MaxValu_logo_(2nd)" transform="translate(4.761 42.394)">
      <path id="path28" d="M121.326,18.209h-.03v-.224h.03m3.865-6.338a8.081,8.081,0,0,0-7.913-4.63L83.947,6.991c-.5-.009-1.1.06-1.422-.28L84.1.993a.962.962,0,0,0-.034-.7,1.025,1.025,0,0,0-.455-.254L79.1,0c-.251.111-.575.163-.664.456l-7.742,27.4c-.115.109-.128-.073-.162-.111L68.271,17.319a.866.866,0,0,0-.642-.567l-5.8-.043-.383.133a.791.791,0,0,0-.166.614l6.431,22.693a.978.978,0,0,0,.583.616l3.588.012a.912.912,0,0,0,.847-.472l8.236-28.387.191-.189,36.123-.043,1.486.107a3.312,3.312,0,0,1,2.469,2.532l0,27.613-.187,1.453a3.771,3.771,0,0,1-2.438,2.2L6.84,45.614l-.468-.275A3.278,3.278,0,0,1,4.644,43.3L4.627,22.7l.055-7.739.179-1.105A3.76,3.76,0,0,1,7.5,11.777l62.793-.03.273-.176,1.26-4.111c.008-.133.056-.417-.132-.442L10.5,6.991l-2.89.1c-1.124-.1-1.953.481-2.928.709-.311.12-.562.4-.868.482A15.093,15.093,0,0,0,1.949,9.859a8.248,8.248,0,0,0-1.928,5.1L0,43.078a9.893,9.893,0,0,0,.621,2.606,5.659,5.659,0,0,1,.579,1.04A14.207,14.207,0,0,0,2.78,48.465a7.858,7.858,0,0,0,4.1,1.814l109.911.052a11,11,0,0,0,3.681-.559,7.677,7.677,0,0,0,4.061-3.108,9.492,9.492,0,0,0,1.392-4.928l.025-26.111a7.542,7.542,0,0,0-.757-3.977Z" fill="#c40147"/>
      <path id="path30" d="M116.617,43.466c.221-.064.336-.293.438-.434V17.952l-.328-.387h-5.119a1.212,1.212,0,0,0-.625.434V42.98a.794.794,0,0,0,.285.486Z" transform="translate(-17.791 -2.831)" fill="#c40147"/>
      <path id="path32" d="M29.541,20a1.558,1.558,0,0,0-1.063.245c-1.5,3.74-2.849,7.567-4.257,11.342-.089.021-.242.07-.293-.034L22.839,28.5l-2.811-8.113A.68.68,0,0,0,19.544,20l-5.524-.034a.813.813,0,0,0-.612.447V43.634l.293.314a19.027,19.027,0,0,0,3.789.047c.166-.081.45-.142.5-.412l.03-11.425c.017-.236,0-.546.277-.546.663,2,1.369,3.964,2.011,5.96l2.113,6.2a1.7,1.7,0,0,0,.813.361c.412-.034.773.026,1.037-.305l4.282-12.22.14-.1c.038-.018.064.029.094.029l.034,11.828c.085.216.128.525.433.546H34.4a.376.376,0,0,0,.34-.39l.038-22.986c-.038-.224-.136-.477-.379-.507Z" transform="translate(-2.161 -3.218)" fill="#c40147"/>
      <path id="path34" d="M47.967,41.4a1.536,1.536,0,0,1-.642.718,1.27,1.27,0,0,1-.85-.15c-.9-.968-.633-2.649-.23-3.81a2.225,2.225,0,0,1,1.505-1.152c.293,0,.2.335.26.5m-.23-3.384c-1.054.237-2.152.379-3.172.7a8.11,8.11,0,0,0-3.674,2.472,6.17,6.17,0,0,0-.472,5.263c.727,1.668,2.5,2.468,4.146,2.893,2.811.387,5.924.331,8.139-1.354a2.543,2.543,0,0,0,.795-1.29l.034-11.294c-.068-.822.153-1.759-.4-2.387a3.158,3.158,0,0,0-1.786-1.763c-.438-.331-1.059-.232-1.569-.413a2.273,2.273,0,0,1-.769-.081c-2.377.1-4.844.081-6.74,1.487L41.2,29.482a3.261,3.261,0,0,0-.268,2.658,2.637,2.637,0,0,0,4.176.985c.65-.689.65-1.685,1.233-2.421a1.246,1.246,0,0,1,1.038-.314c.327.1.416.456.587.65a16.277,16.277,0,0,1,.043,2.833Z" transform="translate(-6.424 -4.33)" fill="#c40147"/>
      <path id="path36" d="M98.964,37.652c.242-.408.714-.5,1.131-.645.255.073.268.408.255.667l-.025,2.911a2.226,2.226,0,0,1-.124,1.036,1.433,1.433,0,0,1-.723.507c-.515.086-.8-.322-1.059-.683a4.134,4.134,0,0,1,.544-3.792Zm-6.208,4.7c.565,1.844,2.538,2.648,4.184,3.09a14,14,0,0,0,6.663-.481c.918-.486,2.042-1.032,2.284-2.159l.03-12.456-.119-.683a3.988,3.988,0,0,0-2.308-2.425c-.472-.06-.9-.211-1.357-.293a1.835,1.835,0,0,1-.744-.081,22.627,22.627,0,0,0-4.133.348,9.194,9.194,0,0,0-2.471,1.032c-.6.6-1.441,1.2-1.6,2.064a3.042,3.042,0,0,0,1,3.027,6.864,6.864,0,0,0,1.318.429c.8-.1,1.829-.1,2.131-1.01.612-.59.417-1.492,1.042-2.056a1.333,1.333,0,0,1,1.042-.314c1.033.53.523,1.827.646,2.791,0,.387.068.753-.293.946-.919.116-1.76.442-2.7.55a9.332,9.332,0,0,0-2.841,1.437c-.5.546-1.344.907-1.489,1.749-.068.061-.2.1-.153.216a5.868,5.868,0,0,0-.136,4.278Z" transform="translate(-14.81 -4.33)" fill="#c40147"/>
      <path id="path38" d="M71.209,28.393l.047-.361a.621.621,0,0,0-.357-.456l-3.784-.026-.328.142-1.875,2.949c-.132.172-.272.392-.5.315l-1.471-3.087-.251-.293-5.345-.026c-.251.12-.515.237-.536.6l3.581,7.533c.182.46.57.869.548,1.432l-4.426,7.3c-.141.361.123.554.3.744l3.483.039a1.626,1.626,0,0,0,.974-.289c.663-1.036,1.263-2.18,1.985-3.173a.493.493,0,0,1,.3.094L65.026,44.8c.081.27.374.27.553.361,1.858.039,3.8.055,5.63-.031.119-.137.357-.374.221-.64l-4.362-8.667v-.5Z" transform="translate(-9.049 -4.44)" fill="#c40147"/>
      <path id="path40" d="M124.074,45.076c2.862.753,6.485.792,9.019-.705a3.639,3.639,0,0,0,1.632-2.76V27.744l-.153-.167-5.549-.022a.9.9,0,0,0-.323.452l-.069,12.263a1.508,1.508,0,0,1-.421.842,2.329,2.329,0,0,1-.917.065c-.421-.163-.413-.563-.562-.907l-.047-12.443-.221-.249-5.422-.022a.45.45,0,0,0-.336.392l-.025,13.316.243,1.019a4.865,4.865,0,0,0,3.151,2.794Z" transform="translate(-19.327 -4.44)" fill="#c40147"/>
    </g>
  </g>
</svg>
