<svg xmlns="http://www.w3.org/2000/svg" width="30" height="30" viewBox="0 0 30 30"><path d="M.7,20.22a.84.84,0,0,0,.84.84A.91.91,0,0,0,2,20.91l4.63-3.3A2.27,2.27,0,0,1,8,17.18H18.15a3.24,3.24,0,0,0,3.25-3.25V3.26a.85.85,0,0,0-.84-.85H4A3.26,3.26,0,0,0,.7,5.66ZM2.38,5.66A1.56,1.56,0,0,1,4,4.1H19.72v9.84a1.56,1.56,0,0,1-1.57,1.56H8a3.94,3.94,0,0,0-2.3.74l-3.3,2.35Z" fill="#ff8f1c"/><path d="M29.42,12.19a3.25,3.25,0,0,0-3.25-3.25H23.92a.84.84,0,1,0,0,1.68h2.25a1.58,1.58,0,0,1,1.57,1.57V25.11l-3.3-2.35a3.93,3.93,0,0,0-2.3-.73H12a1.57,1.57,0,0,1-1.57-1.57v-.75a.84.84,0,0,0-1.68,0v.75A3.24,3.24,0,0,0,12,23.71H22.15a2.3,2.3,0,0,1,1.32.42l4.63,3.3a.83.83,0,0,0,1.32-.68V12.19Z" fill="#ff8f1c"/><path d="M6.75,8.68h9.73a.84.84,0,0,0,0-1.68H6.75a.84.84,0,0,0,0,1.68Z" fill="#ff8f1c"/><path d="M6.75,12.61h9.73a.84.84,0,0,0,0-1.68H6.75a.84.84,0,0,0,0,1.68Z" fill="#ff8f1c"/></svg>