<svg xmlns="http://www.w3.org/2000/svg" width="30" height="30" viewBox="0 0 30 30"><path d="M13,4.57a1.74,1.74,0,0,0-2.46,0,1.72,1.72,0,0,0-.47.84L8,13.48,3.12,18.3a.86.86,0,0,0,0,1.21l.45.45L1.73,21.77a.85.85,0,0,0,0,1.2l4.16,4.2a.85.85,0,0,0,1.2,0l1.82-1.8.45.46a.85.85,0,0,0,1.2,0l.67-.67,4.07,4.12a.86.86,0,0,0,1.21,0L19,26.81a.85.85,0,0,0,0-1.21l-4.06-4.1.5-.5,8.1-2a1.75,1.75,0,0,0,1.33-2.08,1.7,1.7,0,0,0-.46-.84ZM6.5,25.36l-3-3,1.22-1.2,3,3ZM4.92,18.92l3.83-3.8,5.06,5.11L10,24ZM17.2,26.21l-1.28,1.27L12.45,24l1.28-1.27Zm6-8.86-7.89,1.94L9.7,13.66s2-7.85,2-7.88,0,0,0,0h0l11.4,11.52s0,0,0,.05Z" fill="#ff8f1c"/><path d="M25.84,3.29A9.33,9.33,0,0,0,19.24.47a.86.86,0,0,0-.86.85.85.85,0,0,0,.85.85,7.67,7.67,0,0,1,7.58,7.75h0a.85.85,0,0,0,.84.86h0a.84.84,0,0,0,.85-.84A9.27,9.27,0,0,0,25.84,3.29Z" fill="#ff8f1c"/><path d="M19.21,3.89h0a.85.85,0,0,0-.86.84.86.86,0,0,0,.85.86A4.25,4.25,0,0,1,23.4,9.88h0a.85.85,0,0,0,.84.86h0a.85.85,0,0,0,.85-.85,6,6,0,0,0-5.89-6Z" fill="#ff8f1c"/></svg>