<svg xmlns="http://www.w3.org/2000/svg" width="30" height="30" viewBox="0 0 30 30"><path d="M10.27,19.32H24.7a1.15,1.15,0,0,0,1.1-.83L29,7.37A1.14,1.14,0,0,0,28.19,6h0a1.12,1.12,0,0,0-.31,0H8.75l-.5-2.27a1.15,1.15,0,0,0-1.13-.91H2.36A1.15,1.15,0,1,0,2.36,5H6.2L8.94,17.38a5.93,5.93,0,0,1,.21,7.14,2.74,2.74,0,1,0,4.56-2h7.58a2.73,2.73,0,1,0,3.86.22,1.36,1.36,0,0,0-.24-.24,1.15,1.15,0,0,0-.21-2.28H10.3a.44.44,0,0,1,0-.87Zm2.06,5.21a.44.44,0,1,1-.44-.44h0a.44.44,0,0,1,.44.44Zm11.22,0a.44.44,0,0,1-.44.44.44.44,0,0,1,0-.88h0a.44.44,0,0,1,.44.44ZM9.25,8.21h17.1L23.83,17H11.22Z" fill="#ff8f1c"/></svg>