<svg xmlns="http://www.w3.org/2000/svg" width="30" height="30" viewBox="0 0 30 30"><path d="M14.4,18.85a.85.85,0,0,0,1.2,0L21,13.47a4.12,4.12,0,0,0-5.82-5.82L15,7.81l-.16-.16A4.12,4.12,0,0,0,9,13.47ZM11.93,8.15a2.4,2.4,0,0,1,1.7.7l.77.77a.85.85,0,0,0,1.21,0l.76-.76a2.4,2.4,0,1,1,3.45,3.35l0,0L15,17l-4.78-4.78a2.41,2.41,0,0,1,1.71-4.11Z" fill="#ff8f1c"/><path d="M5.62,22.5h4.67l4,5.26a.87.87,0,0,0,1.2.16,1.21,1.21,0,0,0,.16-.16l4-5.26h4.67a5.22,5.22,0,0,0,5.2-5.2V7.1a5.2,5.2,0,0,0-5.2-5.19H5.62A5.2,5.2,0,0,0,.42,7.1V17.3a5.2,5.2,0,0,0,5.2,5.19ZM2.13,7.1A3.5,3.5,0,0,1,5.62,3.61H24.38A3.5,3.5,0,0,1,27.87,7.1V17.3a3.5,3.5,0,0,1-3.49,3.49H19.29a.85.85,0,0,0-.68.33L15,25.83l-3.61-4.71a.86.86,0,0,0-.68-.33H5.62A3.49,3.49,0,0,1,2.13,17.3Z" fill="#ff8f1c"/></svg>