<svg xmlns="http://www.w3.org/2000/svg" width="1366" height="768" viewBox="0 0 1366 768"><rect width="1366" height="768" fill="#ff8f1c"/><path d="M0,162,1280.41,766.94,0,767.85Z" fill="#dd2d21"/><g opacity="0.5"><path d="M328.41,310.81c-5.74-9.45-13.16-16.36-20.65-23.24-12-11.05-26.36-17-42.29-19.54a159.63,159.63,0,0,0-22.59-1.7c-3.43-.07-5,1.11-5.79,4.47-5.1,22.73-10.35,45.44-15.55,68.15q-2.23,9.78-4.48,19.54c-.33,1.44-1,2.87-.11,4.74A226.51,226.51,0,0,1,252,359.42c12.12-.22,24.18.1,36.05,2.95,12.24,2.94,18.74,10.77,19.3,23.42.64,14.64-3.94,28-9.59,40.91-1.9.91-2.73-.37-3.72-1.06a67.57,67.57,0,0,0-37.73-12c-14.91-.37-29.83-.06-44.75.07-6.47.05-6.35-.45-8.46,6.28-6,18.94-11.86,37.91-18.2,56.72-6.13,18.18-14.61,35.16-28.51,48.81-20.7,20.33-46,28.55-74.53,26.39-14.8-1.12-26.61-8.36-34.65-21.15-6.36-10.1-9.32-21.25-10.17-33.07-.23-3.25.77-4.81,4.17-5,15-.68,27.5-7.17,40-15,16-10,26.68-23.61,33.75-40.61,9.44-22.72,17.73-45.89,26.33-68.93,10.72-28.69,21.52-57.35,31.14-86.44.59-1.78,1.5-3.47,1.29-5.68-3-.63-5.6.82-8.11,1.8-21.23,8.28-37,22.76-47.64,42.79a49.38,49.38,0,0,0-5.6,21.1c-.33,6.9-1.19,13.77-1.07,20.69.07,4.28-.09,4.55-4.24,4.34-16.95-.82-30.4-8.19-37-24-12.68-30.3-8.72-63.38,18.63-87.36,15.91-13.94,34.87-22.13,54.65-28.82,19.56-6.63,39.86-9.35,60.23-11.84,22.12-2.7,44.3-4.27,66.59-3.58,16.21.5,32.34,2,48,6.48,11.13,3.19,21.51,7.81,29.62,16.52,11.26,12.1,14.26,25.91,8.23,41.3C350.48,289.69,340.63,300.75,328.41,310.81Z" fill="none" stroke="#fff"/><path d="M427.12,496.76c-2.46,2.37-4.76,4.56-7,6.78a256.63,256.63,0,0,1-26.23,22.15,67.76,67.76,0,0,1-37.21,13.41c-7.31.45-14.52,1.41-22,.57-16.14-1.83-27.09-12-30.36-29.75-3-16.09-1-31.81,3.31-47.38,5-17.92,12-35.08,19.57-52.05,10.18-22.86,21.67-45.13,31-68.37,2.5-6.2,5-12.43,5.91-19.12.33-2.56,1.5-3.72,3.95-4.31,17.43-4.16,34.9-8.13,52.74-10.13a36.81,36.81,0,0,1,11,.12c8.93,1.67,13.56,7,13.94,16.06.3,7.09-1.7,13.67-4.69,20-6.2,13-12.33,26.14-18.79,39.07-13.43,26.84-27,53.59-40.62,80.36a48.08,48.08,0,0,0-5.17,15.92c-1.07,8.86,4.17,14,13.11,12.88,6.65-.81,12.35-3.87,17.7-7.57,17.6-12.2,30.65-28.39,40.79-47.07,6.21-11.45,9.71-24,14.32-36.06,9.36-24.58,18.86-49.1,29.55-73.15a14.28,14.28,0,0,1,7.9-7.86,124,124,0,0,1,34.11-9.8,53.63,53.63,0,0,1,22.42,1.92c4.72,1.41,7.1,4.33,7.83,9.17,1.19,7.88-.08,15.57-2.09,23-3.93,14.62-9.54,28.65-15.09,42.77-11,27.9-24.75,54.4-37.68,81.33-4.24,8.85-5.52,18.59-6,28.33-.15,3,.85,5.95,1.82,8.84a78.74,78.74,0,0,0,6.94,14.6c2.27,3.9,2.2,4.29-1.65,6.57a64.53,64.53,0,0,1-9.25,4.65C483.17,539.77,464.31,543,445,544.08a32.41,32.41,0,0,1-9-1c-8.69-1.92-12.18-6-11.85-15a154.22,154.22,0,0,1,2.94-25.7C427.45,500.74,428.11,499.1,427.12,496.76Z" fill="none" stroke="#fff"/><path d="M1199.53,359.42c4.54-4.31,7.89-7.63,11.38-10.79,15-13.53,31-25.63,49.6-33.79a62.25,62.25,0,0,1,18.67-5.15c16.42-1.69,28.21,6.32,37.74,18.51A54.8,54.8,0,0,1,1329,361a50.5,50.5,0,0,1-2.34,17c-12.11,38.65-33.34,73.15-49.5,109.94a72.6,72.6,0,0,0-5.35,15.9,13.19,13.19,0,0,0,2.83,11.48c3,3.65,6.09,7.25,9.4,11.17-1.49,2.08-3.8,2.75-5.82,3.76-19.24,9.69-39.83,12.36-61.07,11.74a57.83,57.83,0,0,1-15.94-2.49c-11.81-3.75-17.88-12.61-16.49-26.61,1.24-12.38,5.6-23.93,10.77-35.16,8.64-18.75,20-35.78,32.66-52.06,6.74-8.71,13.68-17.27,19.2-26.86a80.57,80.57,0,0,0,8.56-20.9,36.27,36.27,0,0,0,.74-9c0-5.25-4.62-10-11.16-7.65a108.66,108.66,0,0,0-33.65,19c-17.26,14.5-29.37,32.73-38.08,53.31a568.79,568.79,0,0,0-29.65,91.72c-.63,2.69-1.25,4.85-4.16,5.91-12.57,4.59-25.07,9.42-38.5,11.07a32.37,32.37,0,0,1-20.58-4c-7.95-4.56-11-11.18-9.19-20.19,3.38-16.77,8.89-32.93,14.51-49,13.59-38.89,27.45-77.68,41-116.59,3.67-10.56,8-21,8.84-32.36.13-1.94,1.42-2.34,3-2.73,14.28-3.46,28.65-6.42,43.35-7.52a49.73,49.73,0,0,1,5.18,0c8.93.28,11.52,2.24,13.47,10.84,2.53,11.15,1.86,22.31-.37,33.43Z" fill="none" stroke="#fff"/><path d="M1010.45,365c15.21-16.1,40-18.67,56.72-8.86,10.31,6.06,13.8,16.24,14.61,27.42,1.36,18.93-2.52,37.1-10.19,54.23-12.38,27.62-28.77,52.7-50.61,73.88-15.11,14.67-32.3,26.1-53.28,30.49-17.13,3.59-34.34,3.69-51.3-1.17-22.68-6.52-36.23-21.62-41.13-44.62-3.1-14.6-2.21-29.23.21-43.77,4.34-26,12.46-50.64,27.64-72.58,14.81-21.41,32.93-39.15,55.42-52.65,15.57-9.35,31.67-16.75,49.59-19.67,11.61-1.89,23.27-1.81,34.62,1.89,15.15,4.95,25.79,15,33,28.92-1.78,1.54-3.28.77-4.69.57-33.07-4.73-62,3.29-85.87,27.48A98.88,98.88,0,0,0,968.48,390C959.83,406.29,953,423.27,950,441.57c-1.65,10.09-1.9,20.23,1.91,30,2.94,7.57,7.9,13.35,15.37,16.73a17.82,17.82,0,0,0,13.87.51c13.4-4.84,23.12-14,30.74-25.72,8.47-13,12.47-27.48,13.65-42.75,1-12.7,1.58-25.49-1.37-38.06C1022.31,374.53,1019.21,367.52,1010.45,365Z" fill="none" stroke="#fff"/><path d="M707.16,400.41c.77-12.51.64-23.91-2.13-35.12a37.65,37.65,0,0,0-4.91-11.91c-4.87-7.4-11.68-10.6-20.5-9.19-4,.64-8.16.72-12.09,2.08-8.52,3-13.26,9.34-13.94,18.36-1,13.42,3.8,24.07,14.7,31.95A75.61,75.61,0,0,0,674.7,401c7.62,4.37,15.32,8.6,22.95,12.94,19.34,11,30.92,27.4,29.4,49.9-1,14.93-7.68,27.78-17.32,39-19.4,22.67-44.46,35.2-73.53,40.1a116.81,116.81,0,0,1-51.36-2.51,76,76,0,0,1-20.15-8.7c-10.37-6.53-17.41-15.48-19.59-27.72-3.76-21,2.45-38.71,18-53,2.5.2,2.46,2.1,2.95,3.36,8.73,22.68,25.82,34.81,49.12,39.45a47.71,47.71,0,0,0,29.14-2.92A29.64,29.64,0,0,0,655,483.71a14.88,14.88,0,0,0-.75-21c-3.77-3.68-8.47-5.94-13.1-8.26-15.26-7.65-30.54-15.25-45.35-23.75-6.28-3.6-11.84-8-15.91-14-6.68-9.9-8-20.81-5.16-32.23,5.59-22.55,18.38-40.31,37-53.85,28.06-20.43,59.7-28.88,94.11-26,18.88,1.59,34.88,9.62,45.92,25.75,8.93,13,8.8,25.54-.29,38.49a71,71,0,0,1-17.62,17.05C725.72,391.6,717.29,396.73,707.16,400.41Z" fill="none" stroke="#fff"/><path d="M837.62,525.62a59,59,0,0,1-35.31,18.32c-10,1.46-20.11,2.13-30.32.56-16.65-2.55-26.08-12.21-27.93-29-1.42-12.89.7-25.38,3.76-37.77,6.24-25.22,16.23-49.09,26.56-72.84,9-20.75,19.07-41,27.45-62.08,2-5,4-10,4.58-15.45.17-1.68.68-2.86,2.43-3.34,19.55-5.38,39-11.43,59.65-10.55a27.28,27.28,0,0,1,10.59,2.74c4.76,2.26,7.19,5.9,6.8,11.38a41.23,41.23,0,0,1-1.85,8.85c-5,17-11.89,33.27-18.62,49.62-11.18,27.16-22.88,54.14-30.72,82.53a102.16,102.16,0,0,0-2.39,46.15A21.94,21.94,0,0,0,837.62,525.62Z" fill="none" stroke="#fff"/><path d="M909.32,248.5c-1.44,16.82-9.18,29.94-24,38.23a62.25,62.25,0,0,1-41.91,7.21c-12-2.07-19.35-10.63-19.91-22.88-.86-18.86,8.43-32.21,23.91-41.45a55.34,55.34,0,0,1,39.34-6.8c8.84,1.63,16.3,5.63,20.41,14.25A25.15,25.15,0,0,1,909.32,248.5Z" fill="none" stroke="#fff"/></g></svg>