<svg xmlns="http://www.w3.org/2000/svg" width="100" height="100" viewBox="0 0 100 100"><rect y="-0.1" width="100" height="100" fill="#fa6400"/><path d="M63.33,71C64.1,64.67,60,60.62,49.24,57.18c-5.23-1.78-7.69-4.12-7.63-7.33.22-3.56,3.53-6.16,7.94-6.25a17.82,17.82,0,0,1,9.73,3c.38.24.66.21.89-.13s1.06-1.67,1.31-2.09a.64.64,0,0,0-.23-1,21,21,0,0,0-11.79-3.53c-6.44,0-11.52,4.1-12,9.54-.27,3.92,1.67,7.11,5.84,9.54a72.86,72.86,0,0,0,7.58,3c6,1.87,9.1,5.21,8.37,9.11-.67,3.53-4.39,5.82-9.52,5.88a18.44,18.44,0,0,1-10.56-4l-.47-.37a.62.62,0,0,0-1,.1c-.17.27-1.27,1.85-1.55,2.26s-.11.57.16.8a23.29,23.29,0,0,0,3.83,2.61,22.57,22.57,0,0,0,9.54,2.46,16.76,16.76,0,0,0,7-1.2A10.59,10.59,0,0,0,63.33,71ZM50,15.1c-7,0-12.67,6.58-12.94,14.82H63C62.69,21.68,57,15.1,50,15.1Zm26.5,76.28H23a7.1,7.1,0,0,1-6.65-6.71l0-.66L13.9,31.58h0v-.11a1.54,1.54,0,0,1,1.51-1.55h16.8C32.63,19,40.44,10.37,50,10.37S67.42,19,67.83,29.92H84.6a1.54,1.54,0,0,1,1.55,1.55v.07h0L83.54,84.16l0,.45a7.33,7.33,0,0,1-7,6.77Z" fill="#fefefe"/></svg>