<svg xmlns="http://www.w3.org/2000/svg" width="135" height="135" viewBox="0 0 135 135">
  <g id="shopee" transform="translate(-454 -1171)">
    <rect id="Your_image_here" data-name="Your image here" width="135" height="135" transform="translate(454 1171)" fill="#fff"/>
    <g id="shopee-seeklogo.com" transform="translate(478.754 1175.29)">
      <path id="Path_2358" data-name="Path 2358" d="M9.918,425.32a.7.7,0,1,1,.773-1.16q.29.2.638.406a8.622,8.622,0,0,0,4.292,1.45,2.955,2.955,0,0,0,2.571-1.257h0c.039-.058.077-.1.077-.135a3.769,3.769,0,0,0,.367-.812,2.454,2.454,0,0,0-.1-1.663,3.382,3.382,0,0,0-1.45-1.527h0a7.828,7.828,0,0,0-1.837-.773,7.446,7.446,0,0,1-4-2.262,3.5,3.5,0,0,1,0-4.021,3.882,3.882,0,0,1,3.267-1.837,8.563,8.563,0,0,1,4.447,1.025.692.692,0,0,1-.619,1.237,7.128,7.128,0,0,0-3.712-.87,2.513,2.513,0,0,0-2.146,1.121,2.211,2.211,0,0,0-.1,2.533,6.12,6.12,0,0,0,3.248,1.759,8.3,8.3,0,0,1,2.165.928h0a4.794,4.794,0,0,1,1.991,2.165,3.745,3.745,0,0,1,.155,2.591,4.763,4.763,0,0,1-.522,1.16,1.239,1.239,0,0,0-.116.193h0a4.279,4.279,0,0,1-3.731,1.856,9.952,9.952,0,0,1-5.007-1.643A7.465,7.465,0,0,0,9.918,425.32Z" transform="translate(0 -320.659)" fill="#ea501f"/>
      <path id="Path_2359" data-name="Path 2359" d="M75.1,412.457a.7.7,0,0,1,1.392,0v14.365a.7.7,0,0,1-1.392,0Z" transform="translate(-52.828 -320.731)" fill="#ea501f"/>
      <path id="Path_2360" data-name="Path 2360" d="M77.32,446.76a.7.7,0,1,1-1.083-.889,7.166,7.166,0,0,1,3.441-2.436,4.431,4.431,0,0,1,2.4-.077,3.362,3.362,0,0,1,1.875,1.3,3.966,3.966,0,0,1,.7,2.359v5.143a.7.7,0,1,1-1.392,0v-5.143a2.685,2.685,0,0,0-.425-1.566,2.032,2.032,0,0,0-1.1-.754,3,3,0,0,0-1.643.058A5.985,5.985,0,0,0,77.32,446.76Z" transform="translate(-53.618 -346.082)" fill="#ea501f"/>
      <path id="Path_2361" data-name="Path 2361" d="M135.614,443.2a4.792,4.792,0,0,1,3.4,1.411h0a4.812,4.812,0,1,1-6.805,6.805h0a4.808,4.808,0,0,1,0-6.805h0a4.826,4.826,0,0,1,3.4-1.411Zm2.436,2.378a3.454,3.454,0,0,0-4.872,0h0a3.454,3.454,0,0,0,0,4.872h0a3.445,3.445,0,0,0,4.872-4.872Z" transform="translate(-97.759 -346.06)" fill="#ea501f"/>
      <path id="Path_2362" data-name="Path 2362" d="M190.8,443.9a.7.7,0,0,1,1.392,0v.87a1.168,1.168,0,0,1,.155-.155h0a4.808,4.808,0,0,1,6.805,0h0a4.812,4.812,0,1,1-6.805,6.805h0a1.166,1.166,0,0,0-.155-.155v6.322a.7.7,0,0,1-1.392,0V443.9Zm7.366,1.682a3.449,3.449,0,0,0-2.436-1.005,3.484,3.484,0,0,0-2.436,1.005h0a3.454,3.454,0,0,0,0,4.872h0a3.445,3.445,0,0,0,4.872-4.872Z" transform="translate(-146.159 -346.06)" fill="#ea501f"/>
      <path id="Path_2363" data-name="Path 2363" d="M256.5,443.2a4.235,4.235,0,0,1,3.055,1.276,4.69,4.69,0,0,1,1.16,2.011c.6,1.953-.541,1.875-.889,1.875h-6.4a6.166,6.166,0,0,0,.309,1.276,2.944,2.944,0,0,0,1.083,1.353,3.34,3.34,0,0,0,1.817.464,7.073,7.073,0,0,0,2.687-.638.693.693,0,1,1,.541,1.276,8.868,8.868,0,0,1-3.209.735,4.488,4.488,0,0,1-2.571-.677,3.789,3.789,0,0,1-1.624-1.991,5.227,5.227,0,0,1,.986-5.684A4.128,4.128,0,0,1,256.5,443.2Zm2.088,2.262a2.941,2.941,0,0,0-4.176,0,3.566,3.566,0,0,0-.909,1.489h6.013A4.052,4.052,0,0,0,258.593,445.462Z" transform="translate(-195.566 -346.06)" fill="#ea501f"/>
      <path id="Path_2364" data-name="Path 2364" d="M311.1,443.2a4.235,4.235,0,0,1,3.055,1.276,4.69,4.69,0,0,1,1.16,2.011c.6,1.953-.541,1.875-.889,1.875h-6.4a6.165,6.165,0,0,0,.309,1.276,2.944,2.944,0,0,0,1.083,1.353,3.34,3.34,0,0,0,1.817.464,7.073,7.073,0,0,0,2.687-.638.693.693,0,0,1,.541,1.276,8.869,8.869,0,0,1-3.209.735,4.488,4.488,0,0,1-2.571-.677,3.788,3.788,0,0,1-1.624-1.991,5.227,5.227,0,0,1,.986-5.684A4.128,4.128,0,0,1,311.1,443.2Zm2.088,2.262a2.94,2.94,0,0,0-4.176,0,3.567,3.567,0,0,0-.909,1.489h6.013A4.051,4.051,0,0,0,313.193,445.462Z" transform="translate(-239.61 -346.06)" fill="#ea501f"/>
      <path id="Path_2365" data-name="Path 2365" d="M23.406,34.287H37.964a31.541,31.541,0,0,1,3.789-12.779c2.61-4.524,6.322-7.308,10.517-7.308s7.888,2.8,10.517,7.308a31.448,31.448,0,0,1,3.789,12.779H81.116a3.059,3.059,0,0,1,3.132,3.132L81.329,78.155c-.367,5.1-3.577,8.023-8.236,8.023H31.449c-5.181,0-7.927-3.615-8.236-8.023L20.274,37.439a3.087,3.087,0,0,1,3.132-3.151Zm18.193,0H62.9a27.515,27.515,0,0,0-3.287-10.962c-1.933-3.383-4.563-5.491-7.347-5.491-2.8,0-5.413,2.107-7.385,5.51A27.732,27.732,0,0,0,41.6,34.287Z" transform="translate(-8.597)" fill="#ea501f"/>
      <path id="Path_2366" data-name="Path 2366" d="M128.4,191.6a1.475,1.475,0,1,1,1.663-2.436c.425.29.87.58,1.353.87,3.4,2.069,6.535,3.093,9.145,3.093a6.278,6.278,0,0,0,5.491-2.687h0c.077-.135.155-.213.174-.271a7.273,7.273,0,0,0,.773-1.74,5.227,5.227,0,0,0-.193-3.557,7.467,7.467,0,0,0-3.093-3.267h0a15.028,15.028,0,0,0-3.905-1.624c-3.983-1.121-6.921-2.707-8.507-4.833-1.74-2.339-1.875-5.162-.019-8.584,1.237-2.262,3.77-3.673,6.979-3.925a18.236,18.236,0,0,1,9.473,2.165,1.479,1.479,0,0,1-1.353,2.629,15.193,15.193,0,0,0-7.907-1.856c-2.185.174-3.847,1.025-4.582,2.378-1.237,2.262-1.218,4.041-.213,5.394,1.16,1.566,3.577,2.784,6.941,3.731a19.143,19.143,0,0,1,4.64,1.953h0a10.288,10.288,0,0,1,4.273,4.621,8.19,8.19,0,0,1,.348,5.549,9.629,9.629,0,0,1-1.1,2.475c-.116.174-.193.309-.251.406h0a9.163,9.163,0,0,1-7.927,3.983c-3.151,0-6.825-1.16-10.691-3.519A17.246,17.246,0,0,1,128.4,191.6Z" transform="translate(-95.303 -119.71)" fill="#fff"/>
    </g>
  </g>
</svg>
