<svg xmlns="http://www.w3.org/2000/svg" width="136" height="136" viewBox="0 0 136 136">
  <g id="top" transform="translate(-0.356)">
    <rect id="Your_image_here" data-name="Your image here" width="136" height="136" transform="translate(0.356)" fill="#fff"/>
    <g id="surface1" transform="translate(22.356 36.081)">
      <path id="Path_2324" data-name="Path 2324" d="M66.981,145.82v-.013H48.039v5.705H58.9v24.03H65.21v-24.03h1.771s10.651,0,10.651-7.754c0,0-.782,2.062-10.651,2.062" transform="translate(-47.795 -141.508)" fill="#e20613"/>
      <path id="Path_2325" data-name="Path 2325" d="M168.285,206.194a7.209,7.209,0,1,0-7.061-7.206,6.953,6.953,0,0,0,7.061,7.206m0-19.823c7.256,0,13.063,5.059,13.063,12.618S175.54,211.6,168.285,211.6s-13.066-5.055-13.066-12.607,5.807-12.618,13.066-12.618" transform="translate(-136.987 -176.97)" fill="#e20613"/>
      <path id="Path_2326" data-name="Path 2326" d="M328.647,191.779a7.209,7.209,0,1,0,7.058,7.212,6.955,6.955,0,0,0-7.058-7.212m-12.862-4.807h5.7v3.61h.1c1.752-2.907,4.906-4.21,8.255-4.21,7.411,0,11.865,5.51,11.865,12.62s-4.754,12.6-11.611,12.6a9.892,9.892,0,0,1-8.16-3.648h-.148v14.468h-6.005" transform="translate(-270.605 -176.97)" fill="#e20613"/>
      <path id="Path_2327" data-name="Path 2327" d="M482.374,193.645a5.442,5.442,0,0,0-4.7-2.455c-1.6,0-3.5.753-3.5,2.551,0,4.306,12.961.8,12.961,10.162,0,5.7-5.454,7.7-10.357,7.7-3.7,0-6.909-.947-9.364-3.7l4.009-3.748c1.547,1.693,3.151,2.95,5.7,2.95,1.752,0,4.005-.851,4.005-2.758,0-4.949-12.963-1.042-12.963-10.208,0-5.356,4.8-7.757,9.661-7.757,3.2,0,6.605,1.006,8.559,3.652" transform="translate(-396.782 -176.98)" fill="#e20613"/>
      <path id="Path_2328" data-name="Path 2328" d="M472.222,147.769h-1.089V143.3h1.023v.852a1.575,1.575,0,0,1,1.316-.941,1.32,1.32,0,0,1,1.495,1.462v3.1h-1.1v-2.778c0-.445-.136-.9-.654-.9a1.176,1.176,0,0,0-.993,1.211" transform="translate(-399.88 -141.054)" fill="#e20613"/>
      <path id="Path_2329" data-name="Path 2329" d="M477.4,130.355v.482h-1.973c-.2,0-.419.106-.419.33a.234.234,0,0,0,.1.245l.7-.327.455.251a.451.451,0,0,0,.307.046.392.392,0,0,0,.254-.317l.574.25a.715.715,0,0,1-.644.723,1.107,1.107,0,0,1-.554-.175l-.4-.224-.6.29a.9.9,0,0,1-.38.1.81.81,0,0,1-.785-.858.836.836,0,0,1,.848-.812" transform="translate(-402.282 -130.355)" fill="#e20613"/>
      <path id="Path_2330" data-name="Path 2330" d="M497.27,145.3h2.068v.7h-1a1.017,1.017,0,0,0,1.059,1.135c.713-.039,1.026-.554,1.026-1.458,0-.947-.3-1.611-1.158-1.611a1.059,1.059,0,0,0-.983.749l-1-.149a2.018,2.018,0,0,1,2.052-1.451,2.13,2.13,0,0,1,2.194,2.346,2.158,2.158,0,0,1-2.217,2.366c-1.469-.007-2.144-1.178-2.042-2.623" transform="translate(-421.622 -141.057)" fill="#e20613"/>
      <path id="Path_2331" data-name="Path 2331" d="M527.59,137.519c0,.521.343.716.88.716.469,0,.865-.195.865-.716v-4.89h1.086v4.821c0,.96-.426,1.63-1.927,1.63-1.567,0-1.989-.669-1.989-1.63V134.5h1.086" transform="translate(-445.958 -132.247)" fill="#e20613"/>
      <path id="Path_2332" data-name="Path 2332" d="M557.718,142.8v3.068h-1.1v-2.177c-.6,0-1.838,0-1.838.894,0,.607.825.749,1.317.445l.115.6a1.4,1.4,0,0,1-1.135.35,1.381,1.381,0,0,1-1.461-1.386c0-1.752,3-1.521,3-1.521v-.337c0-.521-.535-.643-.927-.643a.9.9,0,0,0-.928.614l-.96-.135a1.9,1.9,0,0,1,2.085-1.284,2.865,2.865,0,0,1,.974.161,1.383,1.383,0,0,1,1.162-.521l.092.848c-.165-.013-.528-.05-.641.106a1.454,1.454,0,0,1,.245.914" transform="translate(-468.517 -139.155)" fill="#e20613"/>
      <path id="Path_2333" data-name="Path 2333" d="M572.769,132.031c0-.818.148-1.257,1.573-1.2v.456c-.62-.076-.531.419-.531.742" transform="translate(-484.458 -130.749)" fill="#e20613"/>
      <path id="Path_2334" data-name="Path 2334" d="M52.572,422.765h.059c1.082-1.752,2.254-2.785,4.425-2.785a3.513,3.513,0,0,1,3.705,2.649c1.227-1.643,2.508-2.649,4.626-2.649a3.71,3.71,0,0,1,3.87,3.926v6.572c0,.812.334,1.115,1.115,1.115h1.475v1.842h-7.8v-1.842h.808c.778,0,1.115-.3,1.115-1.115v-6.572a1.8,1.8,0,0,0-1.98-1.755,3.247,3.247,0,0,0-3.092,3.312v5.015c0,.812.337,1.115,1.116,1.115h.752v1.842h-7.1v-1.842H56.5c.781,0,1.118-.3,1.118-1.115v-5.847c0-1.448-.281-2.481-1.95-2.481a3.326,3.326,0,0,0-3.121,3.312v5.015c0,.812.337,1.115,1.115,1.115H54.5v1.842H46.586v-1.842h1.558c.781,0,1.115-.3,1.115-1.115v-7.127c0-.805-.334-1.115-1.115-1.115H46.586V420.4h5.986" transform="translate(-46.586 -371.372)" fill="#00713e"/>
      <path id="Path_2335" data-name="Path 2335" d="M208.1,426.561l-2.95,1.333c-.812.369-1.672.812-1.672,2.122,0,1.164.528,1.752,1.672,1.752,1.891,0,2.95-1.61,2.95-3.4Zm6.49,2.029v.839c0,3.118-1.254,4.434-3.593,4.434-1.393,0-2.59-.587-2.811-2.062a5.191,5.191,0,0,1-4.566,2.063c-2.181,0-3.874-1.04-3.874-3.543,0-5.4,8.354-2.785,8.354-6.711,0-1.779-1.5-2.112-2.979-2.112a3.632,3.632,0,0,0-2.59.914c1.029-.142,1.834.31,1.834,1.452,0,1.251-.861,1.644-1.946,1.644a1.977,1.977,0,0,1-2-2.062c0-2.844,3.4-3.454,5.6-3.454,3.758,0,5.375,1.7,5.375,4.038v6.827c0,.61.251.914.667.914s.755-.386.755-2.112V428.59" transform="translate(-174.041 -371.378)" fill="#00713e"/>
      <path id="Path_2336" data-name="Path 2336" d="M294.425,422.51h.056c1.112-1.669,1.977-2.534,3.478-2.534a3.067,3.067,0,0,1,3.372,3.068,2.14,2.14,0,0,1-2.115,2.34,1.8,1.8,0,0,1-1.977-1.785,1.7,1.7,0,0,1,1.834-1.67,1.493,1.493,0,0,0-1.164-.393c-2.29,0-3.458,2.28-3.458,4.293v4.646c0,.812.337,1.115,1.118,1.115h1.752v1.844h-8.8V431.59h1.534c.778,0,1.112-.3,1.112-1.115v-7.127c0-.805-.334-1.115-1.112-1.115H288.52V420.4h5.906" transform="translate(-247.915 -371.369)" fill="#00713e"/>
      <path id="Path_2337" data-name="Path 2337" d="M355.25,408.576v-1.844h1.5c.779,0,1.115-.3,1.115-1.112V393.058c0-.805-.336-1.115-1.115-1.115h-1.5v-1.838h5.9v11.838l4.428-3.589a.811.811,0,0,0,.386-.644c0-.224-.36-.336-.61-.336h-1.865v-1.835h8.242v1.835a4.084,4.084,0,0,0-2.56.864l-3.006,2.366,3.7,5.045a3.275,3.275,0,0,0,2.838,1.082v1.844h-8.245v-1.844h1.227c.333,0,.475-.136.475-.419a1.179,1.179,0,0,0-.307-.663l-2.148-3.035-2.56,2.006v1c0,.812.336,1.112,1.115,1.112h.888v1.844" transform="translate(-303.446 -346.511)" fill="#00713e"/>
      <path id="Path_2338" data-name="Path 2338" d="M464.728,425.423c.026-1.752-.528-3.481-2.508-3.481-1.894,0-2.59,1.729-2.672,3.481Zm-5.18,1.838c-.086,2.171.583,4.51,3.177,4.51,2,0,3-1.033,3.366-2.953h2.31c-.36,3.178-2.283,5.048-5.986,5.048-4.319,0-6.6-2.425-6.6-6.942,0-4.065,2.616-6.932,6.457-6.932,4.57,0,6.493,4.092,6.186,7.269" transform="translate(-387.134 -371.382)" fill="#00713e"/>
      <path id="Path_2339" data-name="Path 2339" d="M528.5,398.627v-1.752c2.837-.195,3.564-2.7,3.811-5.266h1.732v5.18h3.676v1.838h-3.6v8.216c0,.561.307.924,1.059.924.864,0,1.2-.479,1.2-1.587V403.7h1.834v2.339c0,2.92-1.613,4.207-3.814,4.207-2.092,0-3.563-.868-3.563-3.092v-8.526" transform="translate(-447.616 -347.762)" fill="#00713e"/>
    </g>
  </g>
</svg>
